<svg height="792pt" viewBox="0 0 612 792" width="612pt" xmlns="http://www.w3.org/2000/svg" xmlns:xlink="http://www.w3.org/1999/xlink">
 <symbol id="a" overflow="visible">
  <path d="m.328125 0v-6.234375h1.40625c.363281 0 .695313.101563 1 .296875.25.167969.429687.421875.546875.765625.0625.1875.09375.40625.09375.65625 0 .429687-.117188.765625-.34375 1.015625-.09375.105469-.203125.183594-.328125.234375.207031.085937.382813.246094.53125.484375.101563.15625.175781.359375.21875.609375.019531.125.03125.273437.03125.4375 0 .398437-.074219.730469-.21875 1-.117187.21875-.277344.390625-.484375.515625-.242188.1484375-.480469.21875-.71875.21875zm1.015625-.921875h.390625c.3125 0 .53125-.164063.65625-.5.039063-.113281.0625-.242187.0625-.390625 0-.34375-.070313-.59375-.203125-.75-.117188-.144531-.289062-.21875-.515625-.21875h-.390625zm0-2.765625h.390625c.289063 0 .484375-.140625.578125-.421875.039062-.113281.0625-.25.0625-.40625 0-.25-.0625-.441406-.1875-.578125-.117188-.125-.265625-.1875-.453125-.1875h-.390625zm0 0"/>
 </symbol>
 <symbol id="b" overflow="visible">
  <path d="m.328125 0v-6.234375h2.671875v.9375h-1.734375v1.703125h1.265625v.953125h-1.265625v1.703125h1.734375v.9375zm0 0"/>
 </symbol>
 <symbol id="c" overflow="visible">
  <path d="m1.796875-6.234375c.53125 0 .914063.148437 1.15625.4375.21875.25.328125.601563.328125 1.046875v.90625c0 .449219-.167969.824219-.5 1.125l.6875 2.71875h-1.015625l-.5625-2.34375c-.03125 0-.0625 0-.09375 0h-.53125v2.34375h-.9375v-6.234375zm.5625 1.5c0-.351563-.179687-.53125-.53125-.53125h-.5625v1.984375h.5625c.144531 0 .269531-.050781.375-.15625.101563-.101562.15625-.226562.15625-.375zm0 0"/>
 </symbol>
 <symbol id="d" overflow="visible">
  <path d="m1.265625 0h-.9375v-6.234375h.9375zm0 0"/>
 </symbol>
 <symbol id="e" overflow="visible">
  <path d="m1.375-6.234375 1.25 4.1875v-4.1875h.9375v6.234375h-1l-1.296875-3.984375v3.984375h-.9375v-6.234375zm0 0"/>
 </symbol>
 <symbol id="f" overflow="visible">
  <path d="m1.265625 0h-.9375v-6.234375h2.671875v.9375h-1.734375v1.703125h1.265625v.953125h-1.265625zm0 0"/>
 </symbol>
 <symbol id="g" overflow="visible">
  <path d="m1.8125-6.3125c.414062 0 .765625.148438 1.046875.4375.289063.292969.4375.648438.4375 1.0625v3.390625c0 .417969-.148437.773437-.4375 1.0625-.292969.2929688-.640625.4375-1.046875.4375-.417969 0-.773438-.1445312-1.0625-.4375-.28125-.289063-.421875-.644531-.421875-1.0625v-3.390625c0-.414062.144531-.769531.4375-1.0625.289063-.289062.640625-.4375 1.046875-.4375zm.515625 1.46875c0-.144531-.054687-.269531-.15625-.375-.105469-.101562-.234375-.15625-.390625-.15625-.148438 0-.273438.054688-.375.15625-.105469.105469-.15625.230469-.15625.375v3.421875c0 .148437.050781.273437.15625.375.101562.105469.226562.15625.375.15625.15625 0 .285156-.050781.390625-.15625.101563-.101563.15625-.226563.15625-.375zm0 0"/>
 </symbol>
 <symbol id="h" overflow="visible">
  <path d="m4.1875-6.234375h.984375l-.96875 6.234375h-.90625l-.53125-3.40625-.5 3.40625h-.90625l-1.03125-6.234375h.984375l.484375 3.34375.453125-3.34375h.984375l.5 3.34375zm0 0"/>
 </symbol>
 <symbol id="i" overflow="visible">
  <path d="m1.53125-1.4375-.234375 1.4375h-.96875l1.046875-6.234375h1.296875l1.046875 6.234375h-.984375l-.21875-1.4375zm.484375-3.359375-.34375 2.453125h.703125zm0 0"/>
 </symbol>
 <symbol id="j" overflow="visible">
  <path d="m1.328125-5.296875h-1v-.9375h2.921875v.9375h-.984375v5.296875h-.9375zm0 0"/>
 </symbol>
 <symbol id="k" overflow="visible"/>
 <symbol id="l" overflow="visible">
  <path d="m1.328125-5.296875h-1v-.9375h2.921875v.9375h-.984375v5.296875h-.9375zm0 0"/>
 </symbol>
 <symbol id="m" overflow="visible">
  <path d="m1.265625 0h-.9375v-6.234375h1.34375l.875 4.46875.84375-4.46875h1.296875v6.234375h-.9375v-3.921875l-.828125 3.921875h-.75l-.90625-3.90625zm0 0"/>
 </symbol>
 <symbol id="n" overflow="visible">
  <path d="m1.796875-6.234375c.457031 0 .820313.148437 1.09375.4375.257813.273437.390625.621094.390625 1.046875v.90625c0 .417969-.148438.773438-.4375 1.0625-.28125.292969-.632812.4375-1.046875.4375h-.53125v2.34375h-.9375v-6.234375zm.5625 1.5c0-.15625-.046875-.28125-.140625-.375-.09375-.101563-.226562-.15625-.390625-.15625h-.5625v1.984375h.5625c.144531 0 .269531-.050781.375-.15625.101563-.101562.15625-.226562.15625-.375zm0 0"/>
 </symbol>
 <symbol id="o" overflow="visible">
  <path d="m1.265625 0h-.9375v-6.234375h.9375zm0 0"/>
 </symbol>
 <symbol id="p" overflow="visible">
  <path d="m2.890625 0h-2.5625v-6.234375h.9375v5.296875h1.625zm0 0"/>
 </symbol>
 <symbol id="q" overflow="visible">
  <path d="m1.265625 0h-.9375v-6.234375h1.34375l.875 4.46875.84375-4.46875h1.296875v6.234375h-.9375v-3.921875l-.828125 3.921875h-.75l-.90625-3.90625zm0 0"/>
 </symbol>
 <symbol id="r" overflow="visible">
  <path d="m3.4375-1.546875c0 .429687-.117188.796875-.34375 1.109375-.15625.210938-.371094.3554688-.640625.4375-.15625.0507812-.335937.078125-.53125.078125-.367187 0-.667969-.09375-.90625-.28125-.210937-.144531-.371094-.34375-.484375-.59375-.117188-.257813-.183594-.554687-.203125-.890625l.890625-.0625c.039062.355469.132812.617188.28125.78125.113281.125.242188.183594.390625.171875.207031-.007813.375-.109375.5-.296875.0625-.101562.09375-.242188.09375-.421875 0-.257813-.121094-.515625-.359375-.765625-.1875-.175781-.464844-.441406-.828125-.796875-.3125-.300781-.539063-.566406-.671875-.796875-.136719-.269531-.203125-.5625-.203125-.875 0-.570312.191406-1.003906.578125-1.296875.226562-.175781.519531-.265625.875-.265625.332031 0 .617188.078125.859375.234375.175781.117187.320313.277344.4375.484375.113281.210938.1875.449219.21875.71875l-.90625.15625c-.023437-.25-.09375-.445312-.21875-.59375-.085937-.101562-.210937-.15625-.375-.15625-.167969 0-.296875.078125-.390625.234375-.074219.125-.109375.277344-.109375.453125 0 .292969.125.585938.375.875.09375.117188.226563.246094.40625.390625.21875.1875.363281.320313.4375.390625.226563.230469.40625.460938.53125.6875.0625.105469.113281.203125.15625.296875.082031.21875.128906.417969.140625.59375zm0 0"/>
 </symbol>
 <symbol id="s" overflow="visible">
  <path d="m1.265625-2.640625v2.640625h-.9375v-6.234375h.9375v2.65625h1.125v-2.65625h.9375v6.234375h-.9375v-2.640625zm0 0"/>
 </symbol>
 <symbol id="t" overflow="visible">
  <path d="m1.53125-1.4375-.234375 1.4375h-.96875l1.046875-6.234375h1.296875l1.046875 6.234375h-.984375l-.21875-1.4375zm.484375-3.359375-.34375 2.453125h.703125zm0 0"/>
 </symbol>
 <symbol id="u" overflow="visible">
  <path d="m3.28125-1.484375c0 .40625-.148438.757813-.4375 1.046875-.292969.292969-.640625.4375-1.046875.4375h-1.46875v-6.234375h1.46875c.414063 0 .765625.148437 1.046875.4375.289062.292969.4375.640625.4375 1.046875zm-2.015625.5625h.5625c.144531 0 .269531-.050781.375-.15625.101563-.113281.15625-.242187.15625-.390625v-3.265625c0-.144531-.054687-.269531-.15625-.375-.105469-.113281-.230469-.171875-.375-.171875h-.5625zm0 0"/>
 </symbol>
 <symbol id="v" overflow="visible">
  <path d="m2.171875-6.8125c-.179687.375-.339844.757812-.484375 1.140625-.21875.617187-.359375 1.179687-.421875 1.6875-.03125.199219-.046875.386719-.046875.5625 0 .617187.160156 1.398437.484375 2.34375.144531.417969.304687.828125.484375 1.234375l-.609375.296875c-.230469-.3867188-.4375-.789063-.625-1.21875-.417969-.976563-.625-1.863281-.625-2.65625 0-.625.128906-1.285156.390625-1.984375.0625-.175781.140625-.359375.234375-.546875.1875-.414063.394531-.796875.625-1.140625zm0 0"/>
 </symbol>
 <symbol id="w" overflow="visible">
  <path d="m1.8125.078125c-.417969 0-.773438-.1445312-1.0625-.4375-.28125-.289063-.421875-.640625-.421875-1.046875v-3.40625c0-.40625.144531-.753906.4375-1.046875.289063-.289063.640625-.4375 1.046875-.4375.414062 0 .765625.148437 1.046875.4375.289063.292969.4375.640625.4375 1.046875v.71875h-.96875v-.734375c0-.144531-.054687-.269531-.15625-.375-.105469-.113281-.234375-.171875-.390625-.171875-.148438 0-.273438.058594-.375.171875-.105469.105469-.15625.230469-.15625.375v3.40625c0 .15625.050781.289063.15625.390625.101562.105469.226562.15625.375.15625.15625 0 .285156-.050781.390625-.15625.101563-.101562.15625-.234375.15625-.390625v-1.21875h-.53125v-.9375h1.5v2.171875c0 .417969-.148437.773438-.4375 1.0625-.292969.28125-.640625.421875-1.046875.421875zm0 0"/>
 </symbol>
 <symbol id="x" overflow="visible">
  <path d="m.921875-7.078125c.226563.335937.441406.710937.640625 1.125.414062.90625.625 1.757813.625 2.546875 0 .792969-.210938 1.671875-.625 2.640625-.1875.4375-.402344.84375-.640625 1.21875l-.59375-.296875c.175781-.40625.335937-.8125.484375-1.21875.21875-.644531.363281-1.234375.4375-1.765625.019531-.195313.03125-.390625.03125-.578125 0-.625-.15625-1.378906-.46875-2.265625-.148438-.382813-.304688-.765625-.46875-1.140625zm0 0"/>
 </symbol>
 <symbol id="y" overflow="visible">
  <path d="m1.8125-6.3125c.414062 0 .765625.148438 1.046875.4375.289063.292969.4375.648438.4375 1.0625v3.390625c0 .417969-.148437.773437-.4375 1.0625-.292969.2929688-.640625.4375-1.046875.4375-.417969 0-.773438-.1445312-1.0625-.4375-.28125-.289063-.421875-.644531-.421875-1.0625v-3.390625c0-.414062.144531-.769531.4375-1.0625.289063-.289062.640625-.4375 1.046875-.4375zm.515625 1.46875c0-.144531-.054687-.269531-.15625-.375-.105469-.101562-.234375-.15625-.390625-.15625-.148438 0-.273438.054688-.375.15625-.105469.105469-.15625.230469-.15625.375v3.421875c0 .148437.050781.273437.15625.375.101562.105469.226562.15625.375.15625.15625 0 .285156-.050781.390625-.15625.101563-.101563.15625-.226563.15625-.375zm0 0"/>
 </symbol>
 <symbol id="z" overflow="visible">
  <path d="m2.890625 0h-2.5625v-6.234375h.9375v5.296875h1.625zm0 0"/>
 </symbol>
 <symbol id="A" overflow="visible">
  <path d="m1.265625-2.640625v2.640625h-.9375v-6.234375h.9375v2.65625h1.125v-2.65625h.9375v6.234375h-.9375v-2.640625zm0 0"/>
 </symbol>
 <symbol id="B" overflow="visible">
  <path d="m1.796875-6.234375c.457031 0 .820313.148437 1.09375.4375.257813.273437.390625.621094.390625 1.046875v.90625c0 .417969-.148438.773438-.4375 1.0625-.28125.292969-.632812.4375-1.046875.4375h-.53125v2.34375h-.9375v-6.234375zm.5625 1.5c0-.15625-.046875-.28125-.140625-.375-.09375-.101563-.226562-.15625-.390625-.15625h-.5625v1.984375h.5625c.144531 0 .269531-.050781.375-.15625.101563-.101562.15625-.226562.15625-.375zm0 0"/>
 </symbol>
 <symbol id="C" overflow="visible">
  <path d="m.328125 0v-.9375h.9375v.9375l-.34375.71875h-.390625l.21875-.71875zm0 0"/>
 </symbol>
 <symbol id="D" overflow="visible">
  <path d="m3.4375-1.546875c0 .429687-.117188.796875-.34375 1.109375-.15625.210938-.371094.3554688-.640625.4375-.15625.0507812-.335937.078125-.53125.078125-.367187 0-.667969-.09375-.90625-.28125-.210937-.144531-.371094-.34375-.484375-.59375-.117188-.257813-.183594-.554687-.203125-.890625l.890625-.0625c.039062.355469.132812.617188.28125.78125.113281.125.242188.183594.390625.171875.207031-.007813.375-.109375.5-.296875.0625-.101562.09375-.242188.09375-.421875 0-.257813-.121094-.515625-.359375-.765625-.1875-.175781-.464844-.441406-.828125-.796875-.3125-.300781-.539063-.566406-.671875-.796875-.136719-.269531-.203125-.5625-.203125-.875 0-.570312.191406-1.003906.578125-1.296875.226562-.175781.519531-.265625.875-.265625.332031 0 .617188.078125.859375.234375.175781.117187.320313.277344.4375.484375.113281.210938.1875.449219.21875.71875l-.90625.15625c-.023437-.25-.09375-.445312-.21875-.59375-.085937-.101562-.210937-.15625-.375-.15625-.167969 0-.296875.078125-.390625.234375-.074219.125-.109375.277344-.109375.453125 0 .292969.125.585938.375.875.09375.117188.226563.246094.40625.390625.21875.1875.363281.320313.4375.390625.226563.230469.40625.460938.53125.6875.0625.105469.113281.203125.15625.296875.082031.21875.128906.417969.140625.59375zm0 0"/>
 </symbol>
 <symbol id="E" overflow="visible">
  <path d="m1.8125.078125c-.417969 0-.773438-.1445312-1.0625-.4375-.28125-.289063-.421875-.640625-.421875-1.046875v-3.40625c0-.40625.144531-.753906.4375-1.046875.289063-.289063.640625-.4375 1.046875-.4375.414062 0 .765625.148437 1.046875.4375.289063.292969.4375.640625.4375 1.046875v.71875h-.96875v-.734375c0-.144531-.054687-.269531-.15625-.375-.105469-.113281-.234375-.171875-.390625-.171875-.148438 0-.273438.058594-.375.171875-.105469.105469-.15625.230469-.15625.375v3.40625c0 .15625.050781.289063.15625.390625.101562.105469.226562.15625.375.15625.15625 0 .285156-.050781.390625-.15625.101563-.101562.15625-.234375.15625-.390625v-.859375h.96875v.875c0 .417969-.148437.773438-.4375 1.0625-.292969.28125-.640625.421875-1.046875.421875zm0 0"/>
 </symbol>
 <symbol id="F" overflow="visible">
  <path d="m.328125-.9375h.9375v.9375h-.9375zm0 0"/>
 </symbol>
 <symbol id="G" overflow="visible">
  <path d="m1.8125.0625c-.417969 0-.773438-.140625-1.0625-.421875-.28125-.289063-.421875-.640625-.421875-1.046875v-4.828125h.921875v4.8125c0 .148437.050781.273437.15625.375.101562.105469.226562.15625.375.15625.15625 0 .285156-.050781.390625-.15625.101563-.101563.15625-.226563.15625-.375v-4.8125h.96875v4.828125c0 .417969-.148437.765625-.4375 1.046875-.292969.28125-.640625.421875-1.046875.421875zm0 0"/>
 </symbol>
 <symbol id="H" overflow="visible">
  <path d="m1.578125-2.609375-1.25-3.625h1.03125l.6875 2.234375.703125-2.234375h1.03125l-1.265625 3.625v2.609375h-.9375zm0 0"/>
 </symbol>
 <symbol id="I" overflow="visible">
  <path d="m2.921875-6.625h.765625l-2.59375 6.8125h-.765625zm0 0"/>
 </symbol>
 <symbol id="J" overflow="visible">
  <path d="m1.265625 0h-.9375v-6.234375h2.671875v.9375h-1.734375v1.703125h1.265625v.953125h-1.265625zm0 0"/>
 </symbol>
 <symbol id="K" overflow="visible">
  <path d="m1.8125.078125c-.417969 0-.773438-.1445312-1.0625-.4375-.28125-.289063-.421875-.640625-.421875-1.046875v-3.40625c0-.40625.144531-.753906.4375-1.046875.289063-.289063.640625-.4375 1.046875-.4375.414062 0 .765625.148437 1.046875.4375.289063.292969.4375.640625.4375 1.046875v.71875h-.96875v-.734375c0-.144531-.054687-.269531-.15625-.375-.105469-.113281-.234375-.171875-.390625-.171875-.148438 0-.273438.058594-.375.171875-.105469.105469-.15625.230469-.15625.375v3.40625c0 .15625.050781.289063.15625.390625.101562.105469.226562.15625.375.15625.15625 0 .285156-.050781.390625-.15625.101563-.101562.15625-.234375.15625-.390625v-1.21875h-.53125v-.9375h1.5v2.171875c0 .417969-.148437.773438-.4375 1.0625-.292969.28125-.640625.421875-1.046875.421875zm0 0"/>
 </symbol>
 <symbol id="L" overflow="visible">
  <path d="m.484375-6.03125h.96875c.394531 0 .691406.070312.890625.203125.207031.136719.34375.304687.40625.5.0625.1875.101562.417969.125.6875v.28125c0 .34375-.058594.625-.171875.84375-.105469.210937-.296875.355469-.578125.4375v.015625c.5625.167969.84375.605469.84375 1.3125 0 .074219-.007812.148438-.015625.21875v.15625c-.023437.917969-.511719 1.375-1.46875 1.375h-1zm.765625.671875v1.984375c.21875 0 .390625-.035156.515625-.109375.125-.082031.207031-.195313.25-.34375.050781-.15625.078125-.347656.078125-.578125 0-.320312-.0625-.5625-.1875-.71875-.117188-.15625-.277344-.234375-.484375-.234375zm0 2.625v2.046875c.3125 0 .53125-.0625.65625-.1875s.191406-.320312.203125-.59375v-.28125c0-.351562-.070313-.601562-.203125-.75-.125-.15625-.320312-.234375-.578125-.234375zm0 0"/>
 </symbol>
 <symbol id="M" overflow="visible">
  <path d="m.984375-1.875c0 .855469.160156 1.28125.484375 1.28125.132812 0 .242188-.0625.328125-.1875.09375-.125.140625-.316406.140625-.578125h.703125c0 .355469-.058594.636719-.171875.84375-.117188.210937-.261719.359375-.4375.453125-.167969.0820312-.359375.125-.578125.125-.242187 0-.449219-.05859375-.625-.171875-.167969-.125-.304687-.304687-.40625-.546875-.105469-.238281-.167969-.539062-.1875-.90625 0-.1875-.007813-.335938-.015625-.453125.019531-1.394531.421875-2.09375 1.203125-2.09375.34375 0 .601563.117187.78125.34375.1875.21875.304687.492187.359375.8125.0625.324219.09375.683594.09375 1.078125zm.015625-.53125h.890625c0-.675781-.152344-1.015625-.453125-1.015625-.136719 0-.246094.074219-.328125.21875-.074219.136719-.109375.402344-.109375.796875zm0 0"/>
 </symbol>
 <symbol id="N" overflow="visible">
  <path d="m.359375 0v-4.046875h.75l-.015625.5h.03125c.175781-.375.460938-.5625.859375-.5625v.75c-.335937 0-.5625.070313-.6875.203125-.125.136719-.1875.339844-.1875.609375v2.546875zm0 0"/>
 </symbol>
 <symbol id="O" overflow="visible"/>
 <symbol id="P" overflow="visible">
  <path d="m.484375 0v-6.03125h.765625l1.40625 4.578125.03125-.015625c-.023438-.320312-.046875-.65625-.078125-1-.023437-.351562-.042969-.65625-.0625-.90625-.023437-.25-.039063-.582031-.046875-1-.011719-.425781-.015625-.976562-.015625-1.65625h.8125v6.03125h-.75l-1.40625-4.65625-.015625.015625c.113281 1.230469.171875 2.351563.171875 3.359375 0 .167969-.007813.382812-.015625.640625v.640625zm0 0"/>
 </symbol>
 <symbol id="Q" overflow="visible">
  <path d="m1.078125-3.046875c-.042969.179687-.074219.539063-.09375 1.078125.019531.480469.050781.796875.09375.953125.070313.261719.207031.402344.40625.421875.113281-.007812.210937-.070312.296875-.1875.082031-.113281.132812-.257812.15625-.4375.019531-.488281.03125-.769531.03125-.84375 0-.269531-.023438-.554688-.0625-.859375-.023438-.164063-.074219-.289063-.15625-.375-.074219-.082031-.164062-.125-.265625-.125-.1875 0-.324219.125-.40625.375zm.84375 2.53125c-.0625.1875-.164063.335937-.296875.4375-.125.09375-.265625.140625-.421875.140625-.1875 0-.359375-.06640625-.515625-.203125-.15625-.144531-.265625-.335937-.328125-.578125-.074219-.28125-.121094-.71875-.140625-1.3125.019531-.625.078125-1.085938.171875-1.390625.082031-.238281.191406-.410156.328125-.515625.132812-.113281.285156-.171875.453125-.171875.175781 0 .335937.054687.484375.15625.144531.105469.234375.226563.265625.359375h.015625l.015625-.453125h.75v4.046875h-.765625v-.515625zm0 0"/>
 </symbol>
 <symbol id="R" overflow="visible">
  <path d="m.34375 0v-4.046875h.765625v.5h.015625c.164062-.375.429688-.5625.796875-.5625.175781.011719.328125.0625.453125.15625.132812.09375.222656.230469.265625.40625h.015625c.101562-.21875.226562-.363281.375-.4375.144531-.082031.328125-.125.546875-.125.53125.03125.796875.34375.796875.9375v3.171875h-.75v-2.84375c0-.238281-.039062-.394531-.109375-.46875-.074219-.082031-.171875-.125-.296875-.125-.179688 0-.304688.054688-.375.15625-.074219.105469-.109375.273438-.109375.5v2.78125h-.75v-2.734375c0-.25-.027344-.425781-.078125-.53125-.054688-.101563-.164062-.160156-.328125-.171875-.179687 0-.304687.0625-.375.1875-.074219.125-.109375.359375-.109375.703125v2.546875zm0 0"/>
 </symbol>
 <symbol id="S" overflow="visible">
  <path d="m.5-5.1875h.75v1.140625h.40625v.59375h-.40625v3.453125h-.75v-3.453125h-.40625v-.59375h.40625zm0 0"/>
 </symbol>
 <symbol id="T" overflow="visible">
  <path d="m2.03125-.796875v.71875c-.199219.09375-.402344.140625-.609375.140625-.46875 0-.789063-.195312-.953125-.59375-.15625-.394531-.242188-.867188-.25-1.421875.007812-.375.039062-.710937.09375-1.015625.050781-.300781.164062-.5625.34375-.78125.1875-.226562.453125-.34375.796875-.34375.21875 0 .410156.042969.578125.125v.765625h-.015625c-.074219-.125-.203125-.1875-.390625-.1875-.199219 0-.34375.078125-.4375.234375-.085938.15625-.136719.320312-.15625.484375-.023438.15625-.039062.382813-.046875.671875.007813.386719.050781.710938.125.96875.082031.25.253906.386719.515625.40625.15625-.019531.289062-.078125.40625-.171875zm0 0"/>
 </symbol>
 <symbol id="U" overflow="visible">
  <path d="m.359375 0v-6.640625h.75v3.0625h.015625c.164062-.34375.4375-.515625.8125-.515625h.21875c.257812.042969.425781.179688.5.40625.070312.230469.109375.527344.109375.890625v2.796875h-.75v-2.828125c0-.226563-.042969-.382813-.125-.46875-.074219-.082031-.179687-.128906-.3125-.140625-.3125 0-.46875.242188-.46875.71875v2.71875zm0 0"/>
 </symbol>
 <symbol id="V" overflow="visible">
  <path d="m.25-2.4375c.03125-.570312.148438-.992188.359375-1.265625.21875-.269531.507813-.40625.875-.40625.394531 0 .707031.148437.9375.4375.238281.292969.359375.824219.359375 1.59375 0 .03125-.007812.078125-.015625.140625v.15625c-.03125 1.230469-.449219 1.84375-1.25 1.84375-.28125 0-.523437-.06640625-.71875-.203125-.1875-.132813-.335937-.347656-.4375-.640625-.09375-.300781-.140625-.679688-.140625-1.140625.019531-.226563.03125-.398437.03125-.515625zm.75.421875c0 .492187.03125.84375.09375 1.0625.070312.21875.207031.335937.40625.34375.019531-.007813.039062-.015625.0625-.015625.175781-.019531.296875-.144531.359375-.375.0625-.238281.09375-.582031.09375-1.03125 0-.09375-.007813-.21875-.015625-.375 0-.164062-.015625-.320312-.046875-.46875-.023437-.15625-.070313-.285156-.140625-.390625-.074219-.101563-.179688-.15625-.3125-.15625-.210938 0-.34375.125-.40625.375-.0625.242187-.101562.558594-.109375.953125.007813.023438.015625.046875.015625.078125zm0 0"/>
 </symbol>
 <symbol id="W" overflow="visible">
  <path d="m.34375-.421875c0-.125.046875-.234375.140625-.328125s.207031-.140625.34375-.140625c.125 0 .234375.046875.328125.140625s.140625.203125.140625.328125c0 .136719-.046875.25-.140625.34375-.085938.09375-.1875.140625-.3125.140625-.148438 0-.265625-.046875-.359375-.140625s-.140625-.207031-.140625-.34375zm0 0"/>
 </symbol>
 <symbol id="X" overflow="visible">
  <path d="m.484375-6.03125h1.125c.90625 0 1.457031.511719 1.65625 1.53125.09375.523438.140625 1.074219.140625 1.65625 0 .449219-.03125.859375-.09375 1.234375-.0625.367187-.167969.667969-.3125.90625-.125.210937-.289062.367187-.484375.46875-.199219.105469-.40625.171875-.625.203125-.210937.0234375-.453125.03125-.734375.03125h-.671875zm.8125.671875-.015625 4.671875c.351562 0 .628906-.082031.828125-.25.207031-.175781.335937-.429688.390625-.765625.039062-.320313.0625-.707031.0625-1.15625 0-.8125-.054688-1.382813-.15625-1.71875-.167969-.519531-.539062-.78125-1.109375-.78125zm0 0"/>
 </symbol>
 <symbol id="Y" overflow="visible">
  <path d="m.34375-1.015625c.28125.199219.539062.308594.78125.328125.226562-.007812.398438-.09375.515625-.25.125-.164062.1875-.398438.1875-.703125-.023437-.238281-.101563-.445313-.234375-.625-.125-.1875-.320312-.398437-.578125-.640625-.261719-.25-.460937-.46875-.59375-.65625-.136719-.195312-.21875-.425781-.25-.6875-.011719-.070312-.015625-.179688-.015625-.328125 0-.476563.117188-.851563.359375-1.125.25-.269531.566406-.40625.953125-.40625.300781 0 .59375.070313.875.203125v.796875c-.199219-.164063-.421875-.25-.671875-.25-.210937 0-.382813.078125-.515625.234375-.136719.148438-.203125.355469-.203125.625 0 .179688.054687.339844.171875.484375.113281.148437.3125.371094.59375.671875.289062.304688.515625.574219.671875.8125.15625.242188.238281.511719.25.8125 0 .417969-.070313.761719-.203125 1.03125-.136719.273438-.3125.46875-.53125.59375-.21875.1132812-.453125.171875-.703125.171875-.355469 0-.640625-.09375-.859375-.28125zm0 0"/>
 </symbol>
 <symbol id="Z" overflow="visible">
  <path d="m.03125-4.046875h.84375l.59375 2.828125h.015625l.671875-2.828125h.765625l-1.65625 5.703125h-.78125l.625-1.984375zm0 0"/>
 </symbol>
 <symbol id="aa" overflow="visible">
  <path d="m1.09375-6.640625v6.640625h-.75v-6.640625zm0 0"/>
 </symbol>
 <symbol id="ab" overflow="visible">
  <path d="m-.03125-4.046875h.796875c0 .023437.046875.339844.140625.953125.09375.617188.160156 1.078125.203125 1.390625.050781.304687.082031.492187.09375.5625h.015625c.0625-.4375.097656-.703125.109375-.796875.007813-.09375.03125-.242188.0625-.453125.039063-.21875.082031-.445313.125-.6875.039063-.238281.101563-.5625.1875-.96875h.53125l.46875 2.90625h.015625c.039062-.3125.070312-.5625.09375-.75.03125-.195313.0625-.398437.09375-.609375.03125-.21875.066406-.441406.109375-.671875.039063-.226563.097656-.519531.171875-.875h.734375l-.953125 4.046875h-.515625c-.042969-.226562-.105469-.5625-.1875-1-.085937-.4375-.140625-.734375-.171875-.890625-.03125-.164063-.058594-.332031-.078125-.5-.023437-.164063-.039063-.359375-.046875-.578125h-.015625c-.117187 1.03125-.273437 2.023438-.46875 2.96875h-.53125zm0 0"/>
 </symbol>
 <symbol id="ac" overflow="visible">
  <path d="m1.046875.90625c-.480469-1.175781-.726563-2.359375-.734375-3.546875.019531-1.195313.257812-2.351563.71875-3.46875l.75.171875c-.230469.625-.402344 1.199219-.515625 1.71875-.117187.523438-.179687 1.042969-.1875 1.5625.019531.960938.253906 2.085938.703125 3.375zm0 0"/>
 </symbol>
 <symbol id="ad" overflow="visible">
  <path d="m.25-.859375c.164062.15625.375.246094.625.265625.289062-.019531.457031-.160156.5-.421875 0-.1875-.046875-.332031-.140625-.4375-.09375-.113281-.246094-.25-.453125-.40625-.199219-.164063-.355469-.320313-.46875-.46875-.105469-.144531-.167969-.335937-.1875-.578125 0-.257812.046875-.476562.140625-.65625.101563-.1875.238281-.320312.40625-.40625.164063-.09375.347656-.140625.546875-.140625.25 0 .46875.058594.65625.171875v.71875c-.148438-.132812-.34375-.203125-.59375-.203125-.117188 0-.21875.027344-.3125.078125-.085938.054688-.136719.132812-.15625.234375-.011719.054687-.015625.089844-.015625.109375 0 .136719.035156.242188.109375.3125.082031.074219.234375.199219.453125.375.226563.167969.398437.335938.515625.5.113281.167969.175781.375.1875.625 0 .398438-.109375.703125-.328125.921875s-.492187.328125-.8125.328125c-.242187 0-.464844-.0625-.671875-.1875zm0 0"/>
 </symbol>
 <symbol id="ae" overflow="visible">
  <path d="m1.171875-6.125c.101563.242188.195313.5.28125.78125.09375.28125.171875.574219.234375.875.0625.292969.109375.589844.140625.890625.03125.304687.046875.617187.046875.9375 0 .585937-.058594 1.179687-.171875 1.78125-.117187.59375-.292969 1.179687-.53125 1.765625l-.75-.1875c.238281-.6484375.414063-1.238281.53125-1.78125.113281-.539062.171875-1.066406.171875-1.578125 0-.988281-.234375-2.085937-.703125-3.296875zm0 0"/>
 </symbol>
 <symbol id="af" overflow="visible">
  <path d="m1.046875 0-1.03125-6.03125h.78125c.039063.25.09375.625.15625 1.125.070313.5.128906.898438.171875 1.1875.039062.292969.085938.664062.140625 1.109375.0625.4375.109375.808594.140625 1.109375h.015625c.082031-.75.171875-1.460938.265625-2.140625.101562-.6875.234375-1.484375.390625-2.390625h.625l.65625 4.5h.015625c.039062-.40625.078125-.757812.109375-1.0625.039063-.300781.085937-.660156.140625-1.078125.0625-.414063.117188-.828125.171875-1.234375.0625-.414062.113281-.789062.15625-1.125h.78125l-1.0625 6.03125h-.640625c-.042969-.300781-.09375-.628906-.15625-.984375-.054688-.351563-.121094-.765625-.203125-1.234375-.074219-.46875-.132813-.867188-.171875-1.203125-.042969-.34375-.078125-.695313-.109375-1.0625h-.015625c-.023438.3125-.058594.667969-.109375 1.0625-.054687.386719-.105469.742187-.15625 1.0625-.054687.324219-.117187.699219-.1875 1.125-.0625.417969-.132813.828125-.203125 1.234375zm0 0"/>
 </symbol>
 <symbol id="ag" overflow="visible">
  <path d="m.65625-6.03125h1.390625v6.03125h-.796875v-5.34375h-.59375zm0 0"/>
 </symbol>
 <symbol id="ah" overflow="visible">
  <path d="m.484375-6.03125h.796875v5.328125h1.359375v.703125h-2.15625zm0 0"/>
 </symbol>
 <symbol id="ai" overflow="visible">
  <path d="m1.453125-.703125h1.5v.703125h-2.65625l1.46875-3.140625c.28125-.601563.421875-1.109375.421875-1.515625 0-.476562-.195312-.71875-.578125-.71875-.167969.023438-.28125.117188-.34375.28125-.054687.167969-.085937.398438-.09375.6875.007813.074219.015625.183594.015625.328125h-.8125c0-.488281.035156-.878906.109375-1.171875.070313-.289062.195313-.503906.375-.640625.1875-.144531.445313-.21875.78125-.21875h.125c.300781.011719.539063.078125.71875.203125.175781.125.300781.292969.375.5.082031.199219.125.429688.125.6875 0 .25-.03125.511719-.09375.78125-.054687.261719-.121094.511719-.203125.75-.085938.242188-.164062.429688-.234375.5625zm0 0"/>
 </symbol>
 <symbol id="aj" overflow="visible">
  <path d="m.484375 0v-6.03125h1.09375c.488281 0 .847656.125 1.078125.375.226562.25.347656.648438.359375 1.1875 0 .460938-.070313.824219-.203125 1.09375-.125.261719-.304688.445312-.53125.546875-.230469.105469-.507812.164063-.828125.171875-.042969-.007812-.101563-.015625-.171875-.015625v2.671875zm.796875-3.34375c.300781 0 .523438-.066406.671875-.203125.144531-.144531.21875-.390625.21875-.734375 0-.375-.070313-.644531-.203125-.8125-.136719-.175781-.367188-.265625-.6875-.265625zm0 0"/>
 </symbol>
 <symbol id="ak" overflow="visible">
  <path d="m.84375-6.125.640625.203125-.765625 2.125-.421875-.125zm0 0"/>
 </symbol>
 <symbol id="al" overflow="visible">
  <path d="m1.09375-4.046875v4.046875h-.75v-4.046875zm-.875-1.21875c0-.132813.046875-.25.140625-.34375.101563-.101563.222656-.15625.359375-.15625.132812 0 .25.054687.34375.15625.101562.09375.15625.210937.15625.34375 0 .136719-.046875.257813-.140625.359375-.085937.09375-.195313.140625-.328125.140625-.15625 0-.289062-.046875-.390625-.140625-.09375-.101562-.140625-.222656-.140625-.359375zm0 0"/>
 </symbol>
 <symbol id="am" overflow="visible">
  <path d="m2.765625-2.953125v2.953125h-.75v-2.84375c0-.394531-.148437-.59375-.4375-.59375-.179687.011719-.304687.074219-.375.1875-.0625.117188-.09375.328125-.09375.640625v2.609375h-.75v-4.046875h.75v.46875h.015625c.175781-.351563.441406-.53125.796875-.53125.300781 0 .515625.09375.640625.28125.132812.1875.203125.480469.203125.875zm0 0"/>
 </symbol>
 <symbol id="an" overflow="visible">
  <path d="m.984375-2.03125c0 .449219.035156.796875.109375 1.046875.082031.25.210938.382813.390625.390625.195313 0 .320313-.117188.375-.359375.0625-.238281.09375-.597656.09375-1.078125 0-.925781-.15625-1.390625-.46875-1.390625-.125 0-.226563.046875-.296875.140625-.0625.09375-.109375.242188-.140625.4375-.03125.1875-.054687.460938-.0625.8125zm.953125 1.5625c-.117188.335938-.34375.515625-.6875.546875-.34375 0-.605469-.1640625-.78125-.5-.167969-.332031-.25-.867187-.25-1.609375 0-.5625.046875-.992188.140625-1.296875.09375-.300781.207031-.503906.34375-.609375.144531-.101562.316406-.160156.515625-.171875.3125 0 .550781.1875.71875.5625l.015625-.03125v-.453125h.75v4.03125c0 .394531-.03125.71875-.09375.96875s-.183594.4375-.359375.5625c-.167969.125-.40625.1875-.71875.1875-.417969-.011719-.730469-.117188-.9375-.3125-.210938-.1875-.3125-.507812-.3125-.953125h.734375c0 .394531.160156.59375.484375.59375.300781 0 .453125-.199219.453125-.59375v-.921875zm0 0"/>
 </symbol>
 <symbol id="ao" overflow="visible">
  <path d="m1.34375-6.03125h.640625l1.296875 6.03125h-.8125l-.234375-1.171875h-1.1875l-.234375 1.171875h-.78125zm.78125 4.234375-.46875-3.078125h-.015625l-.484375 3.078125zm0 0"/>
 </symbol>
 <symbol id="ap" overflow="visible">
  <path d="m1.046875-2.953125c-.03125.148437-.058594.46875-.078125.96875.019531.46875.039062.757813.0625.859375.03125.167969.082031.296875.15625.390625.082031.085937.175781.132813.28125.140625.113281-.007812.207031-.0625.28125-.15625.082031-.101562.132812-.242188.15625-.421875.03125-.476563.046875-.816406.046875-1.015625 0-.332031-.015625-.582031-.046875-.75-.03125-.15625-.089844-.273438-.171875-.359375-.074219-.09375-.164063-.140625-.265625-.140625-.09375 0-.183594.042969-.265625.125-.074219.085938-.125.203125-.15625.359375zm.875 2.4375c-.042969.167969-.136719.308594-.28125.421875-.148437.1015625-.3125.15625-.5.15625-.273437 0-.476563-.125-.609375-.375-.199219-.363281-.308594-.921875-.328125-1.671875.007813-.4375.050781-.847656.125-1.234375.070313-.289062.1875-.507812.34375-.65625.15625-.15625.332031-.234375.53125-.234375.15625 0 .296875.046875.421875.140625.132812.09375.234375.21875.296875.375h.015625v-3.046875h.75v6.640625h-.75v-.515625zm0 0"/>
 </symbol>
 <symbol id="aq" overflow="visible">
  <path d="m1.09375-4.046875v5.703125h-.75v-5.703125zm-.875-1.21875c0-.132813.046875-.25.140625-.34375.101563-.101563.222656-.15625.359375-.15625.132812 0 .25.054687.34375.15625.101562.09375.15625.210937.15625.34375 0 .136719-.046875.257813-.140625.359375-.085937.09375-.195313.140625-.328125.140625-.15625 0-.289062-.046875-.390625-.140625-.09375-.101562-.140625-.222656-.140625-.359375zm0 0"/>
 </symbol>
 <symbol id="ar" overflow="visible">
  <path d="m.359375-4.046875h.75l-.015625 2.796875c0 .1875.03125.339844.09375.453125.070312.117187.195312.171875.375.171875.1875 0 .304688-.054688.359375-.171875.0625-.113281.09375-.253906.09375-.421875v-2.828125h.765625l-.015625 2.8125c0 .355469-.074219.65625-.21875.90625-.148437.2421875-.429687.3671875-.84375.390625-.480469 0-.828125-.1015625-1.046875-.3125-.210938-.207031-.3125-.554688-.3125-1.046875zm0 0"/>
 </symbol>
 <symbol id="as" overflow="visible">
  <path d="m1.5625-3.421875c-.15625 0-.273438.074219-.34375.21875-.0625.136719-.105469.28125-.125.4375-.011719.15625-.023438.390625-.03125.703125 0 .46875.03125.828125.09375 1.078125.070312.25.203125.375.390625.375.195313 0 .328125-.109375.390625-.328125.0625-.226562.09375-.5625.09375-1 0-.320312-.011719-.585938-.03125-.796875-.023438-.21875-.070312-.382813-.140625-.5-.0625-.125-.164063-.1875-.296875-.1875zm-1.21875 5.078125v-5.6875h.75v.515625h.015625c.0625-.1875.15625-.332031.28125-.4375.132813-.101563.285156-.15625.453125-.15625.175781 0 .34375.070313.5.203125.15625.136719.257812.324219.3125.5625.09375.40625.140625.855469.140625 1.34375 0 .542969-.046875.992188-.140625 1.34375-.0625.242188-.171875.421875-.328125.546875-.148437.11328125-.3125.171875-.5.171875-.15625 0-.308594-.046875-.453125-.140625-.136719-.09375-.226562-.21875-.265625-.375h-.015625v2.109375zm0 0"/>
 </symbol>
 <symbol id="at" overflow="visible">
  <path d="m-.03125-6.03125h2.65625v.6875h-.90625v5.34375h-.8125v-5.34375h-.9375zm0 0"/>
 </symbol>
 <symbol id="au" overflow="visible">
  <path d="m2.828125-5.9375v.734375c-.167969-.101563-.351563-.15625-.546875-.15625-.179688 0-.34375.058594-.5.171875-.148438.117188-.265625.273438-.359375.46875-.0625.125-.121094.359375-.171875.703125-.042969.34375-.070312.703125-.078125 1.078125.007813.398438.035156.75.078125 1.0625.050781.3125.160156.59375.328125.84375.175781.242188.429687.367188.765625.375.195312-.019531.359375-.066406.484375-.140625v.703125c-.179687.1132812-.402344.171875-.671875.171875-.25 0-.5-.0585938-.75-.171875-.242188-.113281-.421875-.265625-.546875-.453125-.167969-.25-.296875-.585937-.390625-1.015625-.085938-.4375-.132812-.90625-.140625-1.40625.007813-.425781.046875-.832031.109375-1.21875.0625-.382812.144531-.703125.25-.953125.132812-.300781.328125-.535156.578125-.703125.25-.175781.519531-.265625.8125-.265625.25 0 .5.058594.75.171875zm0 0"/>
 </symbol>
 <symbol id="av" overflow="visible">
  <path d="m.484375-6.03125h.796875v2.359375h1.203125v-2.359375h.8125v6.03125h-.8125v-2.984375h-1.203125v2.984375h-.796875zm0 0"/>
 </symbol>
 <symbol id="aw" overflow="visible">
  <path d="m.328125-2.609375c0-.1875-.007813-.332031-.015625-.4375.007812-.53125.046875-1 .109375-1.40625.0625-.414063.1875-.769531.375-1.0625.1875-.300781.445313-.484375.78125-.546875.101563-.019531.21875-.03125.34375-.03125.46875 0 .820313.179688 1.0625.53125.238281.355469.378906.789062.421875 1.296875.039062.6875.0625 1.179687.0625 1.46875 0 .898437-.121094 1.601563-.359375 2.109375-.230469.511719-.636719.765625-1.21875.765625-.324219 0-.601563-.0859375-.828125-.265625-.230469-.1875-.40625-.476562-.53125-.875-.125-.40625-.195312-.921875-.203125-1.546875zm.859375-.171875c0 1.398438.238281 2.105469.71875 2.125.019531-.007812.039062-.015625.0625-.015625.164062-.019531.296875-.109375.390625-.265625.09375-.164062.15625-.367188.1875-.609375.039063-.25.0625-.523437.0625-.828125.007813-.3125.015625-.570312.015625-.78125 0-1.476562-.234375-2.21875-.703125-2.21875h-.03125c-.199219.011719-.351563.132812-.453125.359375-.105469.230469-.171875.5-.203125.8125-.03125.304687-.054687.667969-.0625 1.09375.007813.085937.015625.195313.015625.328125zm0 0"/>
 </symbol>
 <symbol id="ax" overflow="visible">
  <path d="m.6875-6.03125h.6875l.859375 4.34375h.015625l.78125-4.34375h.703125l.5625 6.03125h-.78125l-.203125-4.15625h-.015625l-.765625 4.15625h-.546875l-.78125-4.15625h-.015625l-.234375 4.15625h-.765625zm0 0"/>
 </symbol>
 <symbol id="ay" overflow="visible">
  <path d="m.359375-6.640625h.75v4.390625h.015625l.9375-1.796875h.84375l-1.046875 1.796875 1.171875 2.25h-.875l-1.03125-2.140625h-.015625v2.140625h-.75zm0 0"/>
 </symbol>
 <symbol id="az" overflow="visible">
  <path d="m.296875-3.15625c.007813-.53125.023437-.929688.046875-1.203125.019531-.269531.070312-.550781.15625-.84375.082031-.289063.222656-.523437.421875-.703125.195313-.175781.460937-.265625.796875-.265625.257812.011719.472656.089844.640625.234375.175781.136719.3125.324219.40625.5625.101563.242188.175781.523438.21875.84375.039063.3125.0625.671875.0625 1.078125 0 .1875-.007813.328125-.015625.421875-.011719.492188-.03125.90625-.0625 1.25-.03125.335938-.09375.640625-.1875.921875-.09375.273437-.242188.484375-.4375.640625-.1875.15625-.4375.234375-.75.234375-.230469 0-.445312-.078125-.640625-.234375-.1875-.164062-.351563-.457031-.484375-.875-.125-.414062-.1875-.976562-.1875-1.6875 0-.039062 0-.097656 0-.171875.007812-.070313.015625-.140625.015625-.203125zm.84375 1.578125c.039063.523437.210937.808594.515625.859375.394531 0 .59375-.726562.59375-2.1875 0-.207031-.007812-.421875-.015625-.640625-.011719-.226563-.023437-.441406-.03125-.640625-.011719-.195312-.015625-.332031-.015625-.40625-.011719-.238281-.0625-.441406-.15625-.609375-.09375-.164063-.214844-.25-.359375-.25-.074219 0-.140625.015625-.203125.046875-.25.15625-.386719.882812-.40625 2.171875.019531.75.046875 1.304687.078125 1.65625zm0 0"/>
 </symbol>
 <symbol id="aA" overflow="visible">
  <path d="m.484375-6.03125h2.15625v.6875h-1.359375v1.90625h1.21875v.6875h-1.21875v2.046875h1.359375v.703125h-2.15625zm0 0"/>
 </symbol>
 <symbol id="aB" overflow="visible">
  <path d="m.109375-4.046875h.875l.578125 1.390625c.132812-.445312.304688-.910156.515625-1.390625h.78125l-.90625 1.90625 1.109375 2.140625h-.890625c-.117187-.25-.210937-.445312-.28125-.59375-.074219-.15625-.136719-.289062-.1875-.40625-.042969-.113281-.085937-.222656-.125-.328125-.03125-.113281-.058594-.21875-.078125-.3125h-.015625c0 .105469-.023437.226563-.0625.359375-.042969.136719-.09375.273438-.15625.40625-.054687.136719-.125.304688-.21875.5-.085937.1875-.136719.3125-.15625.375h-.78125l1.015625-2.140625zm0 0"/>
 </symbol>
 <symbol id="aC" overflow="visible">
  <path d="m.484375 0v-6.03125h1.09375c.4375 0 .757813.109375.96875.328125.21875.210937.347656.539063.390625.984375v.234375c0 .417969-.074219.773437-.21875 1.0625-.148438.292969-.351562.453125-.609375.484375l1.109375 2.9375h-.828125l-1.09375-2.953125h-.015625v2.953125zm.796875-3.359375c.300781 0 .507812-.085937.625-.265625.125-.175781.1875-.425781.1875-.75 0-.28125-.054688-.507812-.15625-.6875-.105469-.1875-.28125-.28125-.53125-.28125h-.125zm0 0"/>
 </symbol>
 <symbol id="aD" overflow="visible">
  <path d="m2.890625-6.640625h.625l-3.078125 7.46875h-.640625zm0 0"/>
 </symbol>
 <symbol id="aE" overflow="visible">
  <path d="m1.296875-1.78125c.15625.042969.257813.121094.3125.234375.0625.117187.097656.277344.109375.484375 0 .375-.070312.65625-.203125.84375-.125.1796875-.320313.265625-.578125.265625h-.046875c-.125-.0117188-.230469-.03125-.3125-.0625-.085937-.03125-.15625-.0820312-.21875-.15625-.054687-.070313-.09375-.164063-.125-.28125-.03125-.113281-.046875-.253906-.046875-.421875h.453125c-.011719.03125-.015625.074219-.015625.125 0 .117188.023438.210938.078125.28125.0625.0625.128906.09375.203125.09375.09375 0 .171875-.039062.234375-.125.070313-.082031.109375-.207031.109375-.375 0-.1875-.011719-.328125-.03125-.421875-.023438-.09375-.074219-.164063-.15625-.21875-.074219-.050781-.195312-.078125-.359375-.078125v-.421875c.113281 0 .207031-.007813.28125-.03125.070313-.03125.125-.0625.15625-.09375.039063-.039063.0625-.070313.0625-.09375.007813-.03125.015625-.070313.015625-.125 0-.007813 0-.035156 0-.078125.007812-.050781.015625-.09375.015625-.125 0-.351562-.09375-.53125-.28125-.53125-.074219 0-.136719.039062-.1875.109375-.054687.0625-.078125.164063-.078125.296875v.140625h-.4375v-.09375c0-.21875.023438-.390625.078125-.515625.0625-.132812.144531-.226562.25-.28125.101563-.050781.222656-.078125.359375-.078125.25 0 .429688.074219.546875.21875.125.148437.1875.355469.1875.625 0 .273437-.027344.476563-.078125.609375-.054688.125-.152344.214844-.296875.265625zm0 0"/>
 </symbol>
 <symbol id="aF" overflow="visible">
  <path d="m1.515625-3.46875v2.171875h.21875v.34375h-.21875v.953125h-.453125v-.953125h-.921875v-.390625l.921875-2.125zm-.453125 2.171875v-1.46875l-.578125 1.46875zm0 0"/>
 </symbol>
 <symbol id="aG" overflow="visible">
  <path d="m.828125-.40625h.859375v.40625h-1.515625l.84375-1.8125c.15625-.332031.234375-.617188.234375-.859375 0-.28125-.109375-.421875-.328125-.421875-.09375.023438-.164063.078125-.203125.171875-.03125.09375-.046875.226563-.046875.390625v.1875h-.453125c0-.28125.019531-.503906.0625-.671875.039062-.164063.113281-.289063.21875-.375.101562-.082031.25-.125.4375-.125h.078125c.164063.011719.300781.054687.40625.125.101563.074219.175781.167969.21875.28125.050781.117187.078125.25.078125.40625 0 .136719-.023438.28125-.0625.4375-.03125.15625-.074219.304687-.125.4375-.042969.136719-.085938.246094-.125.328125zm0 0"/>
 </symbol>
 <symbol id="aH" overflow="visible">
  <path d="m.984375-1.34375v-.984375h.328125v.984375h.78125v.328125h-.78125v1h-.328125v-1h-.78125v-.328125zm0 0"/>
 </symbol>
 <symbol id="aI" overflow="visible">
  <path d="m.140625-1.359375h.828125v.34375h-.828125zm0 0"/>
 </symbol>
 <symbol id="aJ" overflow="visible">
  <path d="m4.96875-1.1875v.890625c-.492188.28125-1.015625.421875-1.578125.421875-.417969 0-.820313-.078125-1.203125-.234375-.375-.164063-.714844-.394531-1.015625-.6875-.292969-.289063-.523437-.632813-.6875-1.03125-.167969-.394531-.25-.816406-.25-1.265625.039063-.726562.242187-1.320312.609375-1.78125.363281-.457031.78125-.785156 1.25-.984375.476562-.195313.914062-.296875 1.3125-.296875.332031 0 .617188.03125.859375.09375.238281.0625.472656.164062.703125.296875v.875c-.46875-.394531-1.007812-.59375-1.609375-.59375-.324219 0-.632813.070313-.921875.203125-.28125.125-.53125.304688-.75.53125-.21875.230469-.390625.492188-.515625.78125-.125.28125-.1875.574219-.1875.875 0 .367188.0625.703125.1875 1.015625.125.304687.296875.570313.515625.796875.226562.230469.484375.40625.765625.53125.289063.125.59375.1875.90625.1875.582031 0 1.117187-.207031 1.609375-.625zm0 0"/>
 </symbol>
 <symbol id="aK" overflow="visible">
  <path d="m2.15625-3.171875c-.230469 0-.445312.0625-.640625.1875-.199219.117187-.355469.277344-.46875.484375-.117187.199219-.171875.414062-.171875.640625 0 .230469.054688.449219.171875.65625.113281.199219.269531.355469.46875.46875.195313.117187.410156.171875.640625.171875.226562 0 .441406-.054688.640625-.171875.195313-.113281.351563-.269531.46875-.46875.113281-.207031.171875-.425781.171875-.65625 0-.226563-.058594-.441406-.171875-.640625-.117187-.207031-.273437-.367188-.46875-.484375-.199219-.125-.414063-.1875-.640625-.1875zm0-.6875c.363281 0 .695312.089844 1 .265625.3125.179688.554688.421875.734375.734375.175781.304687.265625.636719.265625 1 0 .355469-.089844.6875-.265625 1-.179687.304687-.421875.542969-.734375.71875-.304688.1757812-.636719.265625-1 .265625-.355469 0-.6875-.0898438-1-.265625-.304688-.175781-.546875-.414063-.734375-.71875-.179687-.3125-.265625-.644531-.265625-1 0-.363281.085938-.695313.265625-1 .1875-.3125.429687-.554687.734375-.734375.3125-.175781.644531-.265625 1-.265625zm0 0"/>
 </symbol>
 <symbol id="aL" overflow="visible">
  <path d="m.53125-6.953125h.71875v6.953125h-.71875zm0 0"/>
 </symbol>
 <symbol id="aM" overflow="visible">
  <path d="m1.265625-3.75v.640625c.113281-.25.257813-.4375.4375-.5625.1875-.125.382813-.1875.59375-.1875.238281 0 .441406.058594.609375.171875l-.328125.671875c-.125-.09375-.289063-.140625-.484375-.140625-.304688 0-.515625.125-.640625.375s-.1875.542969-.1875.875v1.90625h-.71875v-3.75zm0 0"/>
 </symbol>
 <symbol id="aN" overflow="visible">
  <path d="m1.296875-6.46875.578125.4375c-.21875.4375-.386719.96875-.5 1.59375-.117188.625-.179688 1.28125-.1875 1.96875.007812.65625.066406 1.292969.171875 1.90625.113281.6132812.285156 1.171875.515625 1.671875l-.578125.4375c-.179687-.335937-.328125-.71875-.453125-1.15625-.125-.4257812-.226562-.878906-.296875-1.359375-.0625-.476562-.101563-.972656-.109375-1.484375.007812-.75.082031-1.46875.21875-2.15625.144531-.695313.359375-1.316406.640625-1.859375zm0 0"/>
 </symbol>
 <symbol id="aO" overflow="visible">
  <path d="m.578125-6.03125h.75v5.34375h1.828125v.6875h-2.578125zm0 0"/>
 </symbol>
 <symbol id="aP" overflow="visible">
  <path d="m1.046875 1.546875-.59375-.4375c.101563-.21875.195313-.46875.28125-.75.09375-.28125.164063-.570313.21875-.875.0625-.300781.101563-.613281.125-.9375.03125-.332031.046875-.664063.046875-1 0-1.394531-.226562-2.59375-.671875-3.59375l.578125-.4375c.175781.335937.328125.71875.453125 1.15625.125.429687.21875.890625.28125 1.390625.070313.492188.109375.992188.109375 1.5 0 .46875-.03125.945312-.09375 1.421875-.0625.46875-.15625.921875-.28125 1.359375s-.277344.835938-.453125 1.203125zm0 0"/>
 </symbol>
 <symbol id="aQ" overflow="visible">
  <path d="m3.40625-1.53125 2.078125-4.765625 1.234375 6.296875h-.78125l-.703125-4.015625-1.828125 4.15625-1.8125-4.171875-.71875 4.03125h-.765625l1.234375-6.296875zm0 0"/>
 </symbol>
 <symbol id="aR" overflow="visible">
  <path d="m3.296875-3.75h.71875v3.75h-.71875v-.609375c-.34375.492187-.777344.734375-1.296875.734375-.273438 0-.515625-.046875-.734375-.140625-.21875-.101563-.414063-.242187-.578125-.421875-.15625-.1875-.277344-.40625-.359375-.65625-.085937-.25-.125-.515625-.125-.796875 0-.40625.082031-.753906.25-1.046875.164063-.300781.382813-.53125.65625-.6875.28125-.15625.578125-.234375.890625-.234375.132812 0 .28125.027344.4375.078125.164062.054688.320312.136719.46875.25.15625.117188.285156.261719.390625.4375zm.03125 1.84375c0-.34375-.105469-.644531-.3125-.90625-.210937-.257812-.507813-.394531-.890625-.40625-.1875 0-.375.054688-.5625.15625-.1875.105469-.34375.257812-.46875.453125-.117188.199219-.171875.4375-.171875.71875 0 .273437.050781.515625.15625.734375.113281.210938.257813.371094.4375.484375.1875.117187.375.171875.5625.171875.363281-.007812.660156-.140625.890625-.390625.238281-.25.359375-.585937.359375-1.015625zm0 0"/>
 </symbol>
 <symbol id="aS" overflow="visible">
  <path d="m2-2.890625c-.105469-.21875-.265625-.328125-.484375-.328125-.117187 0-.210937.039062-.28125.109375-.074219.074219-.109375.167969-.109375.28125.007812.148437.125.277344.34375.390625.21875.105469.425781.203125.625.296875.207031.09375.382812.226563.53125.390625.15625.15625.238281.382812.25.671875 0 .199219-.058594.390625-.171875.578125-.105469.1875-.257813.339844-.453125.453125-.1875.1132812-.390625.171875-.609375.171875-.375 0-.679687-.0859375-.90625-.25-.21875-.164062-.371094-.359375-.453125-.578125l.625-.296875c.0625.148438.15625.265625.28125.359375.125.085937.253906.132813.390625.140625.132813-.007812.253906-.050781.359375-.125.101562-.082031.171875-.191406.203125-.328125 0-.101563-.027344-.195313-.078125-.28125-.054688-.082031-.121094-.15625-.203125-.21875-.085937-.0625-.179687-.117187-.28125-.171875-.105469-.050781-.199219-.097656-.28125-.140625-.304687-.15625-.523437-.3125-.65625-.46875-.125-.164063-.1875-.347656-.1875-.546875.007813-.175781.054687-.347656.140625-.515625.09375-.164063.222656-.300781.390625-.40625.164063-.101563.359375-.15625.578125-.15625.445312 0 .789062.21875 1.03125.65625zm0 0"/>
 </symbol>
 <symbol id="aT" overflow="visible">
  <path d="m1.265625-2.328125 1.40625-1.421875h.953125l-1.59375 1.5625 1.765625 2.1875h-.9375l-1.34375-1.703125-.25.25v1.453125h-.71875v-6.953125h.71875zm0 0"/>
 </symbol>
 <symbol id="aU" overflow="visible">
  <path d="m3.28125-3.078125v-.671875h.71875v3.75c0 .59375-.09375 1.046875-.28125 1.359375-.1875.320313-.414062.53125-.671875.625-.261719.101563-.542969.15625-.84375.15625-.367187 0-.6875-.074219-.96875-.21875-.273437-.136719-.484375-.335937-.640625-.59375-.148438-.25-.21875-.542969-.21875-.875h.71875c0 .257813.078125.5.234375.71875s.46875.328125.9375.328125c.332031 0 .582031-.105469.75-.3125.175781-.210938.265625-.515625.265625-.921875v-.875c-.054688.085937-.109375.167969-.171875.25-.054687.074219-.125.152344-.21875.234375-.085937.0742188-.203125.12890625-.359375.171875-.15625.0507812-.351562.078125-.578125.078125-.335937 0-.636719-.0859375-.90625-.25-.261719-.175781-.46875-.421875-.625-.734375-.148437-.320313-.21875-.6875-.21875-1.09375 0-.21875.035156-.4375.109375-.65625.070312-.226563.179688-.4375.328125-.625.15625-.1875.34375-.332031.5625-.4375.21875-.113281.460937-.175781.734375-.1875.257812 0 .503906.0625.734375.1875.238281.125.441406.324219.609375.59375zm.046875 1.171875c0-.289062-.0625-.535156-.1875-.734375-.125-.195313-.28125-.34375-.46875-.4375-.179687-.09375-.355469-.140625-.53125-.140625-.25 0-.46875.0625-.65625.1875-.179687.117188-.3125.273438-.40625.46875-.09375.199219-.148437.414062-.15625.640625 0 .242187.039063.46875.125.6875.09375.210937.226563.382813.40625.515625.175781.136719.390625.203125.640625.203125.238281 0 .453125-.054687.640625-.171875.1875-.113281.332031-.273438.4375-.484375.101563-.207031.15625-.453125.15625-.734375zm0 0"/>
 </symbol>
 <symbol id="aV" overflow="visible">
  <path d="m.59375-3.75v-1.4375h.71875v1.4375h.71875v.671875h-.71875v3.078125h-.71875v-3.078125h-.390625v-.671875zm0 0"/>
 </symbol>
 <symbol id="aW" overflow="visible">
  <path d="m3.171875-1.25.609375.359375c-.15625.261719-.371094.496094-.640625.703125-.273437.2070312-.648437.3125-1.125.3125-.28125-.011719-.539063-.0625-.765625-.15625-.21875-.101562-.40625-.25-.5625-.4375s-.277344-.410156-.359375-.671875c-.085937-.257813-.125-.550781-.125-.875.007813-.257813.054687-.5.140625-.71875.082031-.21875.203125-.410156.359375-.578125.15625-.175781.34375-.3125.5625-.40625.226563-.09375.476563-.140625.75-.140625.40625 0 .738281.09375 1 .28125.269531.1875.460937.429687.578125.71875.125.28125.1875.574219.1875.875 0 .105469-.007812.183594-.015625.234375h-2.828125c0 .355469.101562.652344.3125.890625.21875.230469.5.351563.84375.359375.21875 0 .421875-.066406.609375-.203125.1875-.132813.34375-.316406.46875-.546875zm-.109375-1.046875c-.042969-.28125-.152344-.503906-.328125-.671875-.179687-.175781-.402344-.265625-.671875-.265625-.242188 0-.46875.074219-.6875.21875-.210938.148437-.34375.386719-.40625.71875zm0 0"/>
 </symbol>
 <symbol id="aX" overflow="visible">
  <path d="m1.015625-5.96875c.132813 0 .25.054688.34375.15625.101563.105469.15625.226562.15625.359375-.011719.136719-.070313.25-.171875.34375-.09375.09375-.210938.140625-.34375.140625-.148438 0-.265625-.050781-.359375-.15625-.085937-.101562-.125-.222656-.125-.359375.007813-.125.0625-.234375.15625-.328125.09375-.101562.207031-.15625.34375-.15625zm-.359375 2.21875h.71875v3.75h-.71875zm0 0"/>
 </symbol>
 <symbol id="aY" overflow="visible">
  <path d="m1.1875-3.75v.46875h.015625c.03125-.0625.09375-.132812.1875-.21875.09375-.09375.207031-.175781.34375-.25.144531-.070312.300781-.109375.46875-.109375.476563.023437.835937.246094 1.078125.671875.113281-.1875.265625-.34375.453125-.46875.195313-.132812.425781-.203125.6875-.203125.425781 0 .738281.140625.9375.421875.207031.273438.3125.652344.3125 1.140625v2.296875h-.71875v-2.140625c0-.382813-.058594-.660156-.171875-.828125-.105469-.164062-.289062-.25-.546875-.25-.261719 0-.460937.105469-.59375.3125-.136719.210938-.203125.5-.203125.875v2.03125h-.71875v-2c0-.375-.054688-.671875-.15625-.890625-.09375-.21875-.292969-.328125-.59375-.328125-.523438.023438-.78125.4375-.78125 1.25v1.96875h-.71875v-3.75zm0 0"/>
 </symbol>
 <symbol id="aZ" overflow="visible">
  <path d="m.5625-6.03125h2.921875v.6875h-2.15625v1.6875h2.09375v.6875h-2.09375v2.96875h-.765625zm0 0"/>
 </symbol>
 <symbol id="a0" overflow="visible">
  <path d="m1.453125-5.34375h-1.4375v-.6875h3.625v.6875h-1.4375v5.34375h-.75zm0 0"/>
 </symbol>
 <symbol id="a1" overflow="visible"/>
 <symbol id="a2" overflow="visible">
  <path d="m2.8125-6.296875 2.890625 6.296875h-.8125l-.6875-1.515625h-2.765625l-.6875 1.515625h-.8125zm0 1.65625-1.0625 2.4375h2.140625zm0 0"/>
 </symbol>
 <symbol id="a3" overflow="visible">
  <path d="m1.15625-.796875c.132812 0 .242188.046875.328125.140625.09375.085938.140625.195312.140625.328125 0 .125-.046875.234375-.140625.328125-.085937.0820312-.195313.125-.328125.125-.125 0-.234375-.0429688-.328125-.125-.085937-.09375-.125-.203125-.125-.328125 0-.132813.039063-.242187.125-.328125.09375-.09375.203125-.140625.328125-.140625zm0 0"/>
 </symbol>
 <symbol id="a4" overflow="visible">
  <path d="m1.546875-5.6875c-.261719 0-.484375.089844-.671875.265625-.179688.179687-.265625.386719-.265625.625 0 .15625.039063.308594.125.453125.082031.136719.195313.246094.34375.328125.144531.074219.300781.109375.46875.109375.164063 0 .316406-.035156.453125-.109375.144531-.082031.257812-.191406.34375-.328125.082031-.144531.125-.296875.125-.453125s-.042969-.300781-.125-.4375c-.085938-.132813-.199219-.242187-.34375-.328125-.136719-.082031-.289062-.125-.453125-.125zm0-.46875c.25 0 .484375.0625.703125.1875.21875.117188.390625.277344.515625.484375.125.210937.1875.4375.1875.6875s-.0625.480469-.1875.6875c-.125.210937-.296875.375-.515625.5s-.453125.1875-.703125.1875c-.261719 0-.5-.0625-.71875-.1875-.210937-.125-.375-.289063-.5-.5-.125-.207031-.1875-.4375-.1875-.6875s.0625-.476563.1875-.6875c.125-.207031.296875-.367187.515625-.484375.21875-.125.453125-.1875.703125-.1875zm2.578125 4.015625c-.167969 0-.324219.042969-.46875.125-.136719.074219-.246094.179687-.328125.3125-.085937.136719-.125.289063-.125.453125 0 .25.085937.464844.265625.640625.1875.167969.40625.25.65625.25.164062 0 .320312-.035156.46875-.109375.144531-.082031.257812-.191406.34375-.328125.082031-.132813.125-.285156.125-.453125 0-.164062-.042969-.316406-.125-.453125-.085938-.132813-.199219-.238281-.34375-.3125-.148438-.082031-.304688-.125-.46875-.125zm0-.484375c.257812 0 .492188.0625.703125.1875.21875.125.390625.292969.515625.5.125.210938.1875.4375.1875.6875s-.0625.480469-.1875.6875c-.125.210938-.296875.375-.515625.5-.210937.125-.445313.1875-.703125.1875-.25 0-.484375-.0625-.703125-.1875-.210937-.125-.382813-.289062-.515625-.5-.125-.207031-.1875-.4375-.1875-.6875s.0625-.476562.1875-.6875c.132812-.207031.304688-.375.515625-.5.21875-.125.453125-.1875.703125-.1875zm.296875-3.53125.359375.203125-3.53125 6.078125-.359375-.203125zm0 0"/>
 </symbol>
 <symbol id="a5" overflow="visible">
  <path d="m.578125-6.03125h.953125c.382812 0 .738281.03125 1.0625.09375.320312.054688.613281.210938.875.46875.269531.261719.40625.65625.40625 1.1875-.011719.324219-.078125.601562-.203125.828125-.117187.230469-.273437.414063-.46875.546875-.199219.136719-.40625.234375-.625.296875-.21875.054687-.433594.078125-.640625.078125h-.609375v2.53125h-.765625zm1.078125.671875h-.328125v2.15625c.0625.011719.144531.015625.25.015625.53125 0 .925781-.09375 1.1875-.28125.257813-.1875.394531-.476562.40625-.875 0-.34375-.140625-.597656-.421875-.765625-.28125-.164063-.648438-.25-1.09375-.25zm0 0"/>
 </symbol>
 <symbol id="a6" overflow="visible">
  <path d="m1.15625-3.75v.625h.03125c.0625-.113281.15625-.222656.28125-.328125.125-.113281.269531-.207031.4375-.28125.175781-.070313.363281-.113281.5625-.125.3125 0 .601562.085937.875.25.269531.15625.484375.386719.640625.6875.164063.304687.25.648437.25 1.03125 0 .34375-.070313.671875-.203125.984375-.136719.304688-.335938.554688-.59375.75-.261719.1875-.570312.28125-.921875.28125-.585937 0-1.039063-.242188-1.359375-.734375v2.75h-.71875v-5.890625zm2.375 1.875c0-.40625-.121094-.726562-.359375-.96875-.230469-.25-.523437-.375-.875-.375-.199219 0-.386719.054688-.5625.15625-.179687.105469-.324219.257812-.4375.453125-.117187.199219-.171875.4375-.171875.71875 0 .386719.101562.714844.3125.984375.21875.261719.515625.398438.890625.40625h.015625c.007812-.007812.015625-.015625.015625-.015625.238281 0 .445313-.0625.625-.1875.175781-.125.304687-.285156.390625-.484375.09375-.207031.144531-.4375.15625-.6875zm0 0"/>
 </symbol>
 <symbol id="a7" overflow="visible">
  <path d="m.5-3.75h.71875v.53125c.144531-.21875.304688-.378906.484375-.484375.1875-.101563.410156-.15625.671875-.15625.46875 0 .800781.136719 1 .40625.207031.273437.3125.671875.3125 1.203125v2.25h-.71875v-2.265625c0-.363281-.070312-.613281-.203125-.75-.125-.132813-.335937-.203125-.625-.203125-.324219.011719-.558594.117188-.703125.3125-.148438.1875-.21875.476562-.21875.859375v2.046875h-.71875zm0 0"/>
 </symbol>
 <symbol id="a8" overflow="visible">
  <path d="m3.59375-6.953125.5625.265625-3.328125 7.703125-.578125-.265625zm0 0"/>
 </symbol>
 <symbol id="a9" overflow="visible">
  <path d="m3.265625-4.890625c-.230469-.382813-.558594-.578125-.984375-.578125-.1875 0-.359375.042969-.515625.125-.15625.085938-.277344.195312-.359375.328125-.085938.125-.125.25-.125.375 0 .34375.195312.609375.59375.796875.175781.074219.398438.167969.671875.28125.28125.105469.546875.246094.796875.421875.257812.179687.441406.386719.546875.625.101563.261719.15625.523437.15625.78125 0 .261719-.054687.5-.15625.71875-.09375.21875-.230469.417969-.40625.59375-.179687.167969-.382813.296875-.609375.390625-.230469.09375-.476562.144531-.734375.15625-.3125 0-.605469-.0703125-.875-.203125-.273437-.132813-.5-.332031-.6875-.59375-.179687-.257813-.28125-.554687-.3125-.890625l.75-.15625c.007813.25.070313.464844.1875.640625.113281.167969.257813.292969.4375.375.175781.085937.359375.125.546875.125.269531 0 .507812-.085937.71875-.265625.207031-.175781.332031-.421875.375-.734375.007812-.101563.015625-.171875.015625-.203125 0-.3125-.109375-.550781-.328125-.71875-.210938-.164062-.507812-.320312-.890625-.46875-.335937-.144531-.605469-.28125-.8125-.40625-.210937-.125-.386719-.289062-.53125-.5-.136719-.207031-.203125-.46875-.203125-.78125 0-.175781.035156-.351562.109375-.53125.082031-.175781.203125-.335938.359375-.484375.15625-.15625.34375-.273437.5625-.359375.226562-.09375.476562-.140625.75-.140625.332031 0 .628906.078125.890625.234375.257813.15625.476563.386719.65625.6875zm0 0"/>
 </symbol>
 <symbol id="ba" overflow="visible">
  <path d="m2.921875-3.75h.71875v2.15625c0 .3125-.054687.605469-.15625.875-.105469.261719-.277344.480469-.515625.65625-.230469.164062-.527344.25-.890625.25-.292969 0-.5625-.070312-.8125-.203125-.242187-.144531-.433594-.347656-.578125-.609375-.148438-.257812-.21875-.5625-.21875-.90625v-2.21875h.71875v2.125c0 .28125.070312.542969.21875.78125.144531.230469.367188.34375.671875.34375.289063 0 .503906-.097656.640625-.296875.132812-.207031.203125-.484375.203125-.828125zm0 0"/>
 </symbol>
 <symbol id="bb" overflow="visible">
  <path d="m3.25-1.03125v.921875c-.304688.1445312-.640625.21875-1.015625.21875-.367187 0-.703125-.0859375-1.015625-.25-.3125-.164063-.5625-.394531-.75-.6875-.179688-.289063-.265625-.625-.265625-1s.085937-.710937.265625-1.015625c.1875-.3125.4375-.554688.75-.734375.3125-.175781.648438-.265625 1.015625-.265625.382813 0 .722656.078125 1.015625.234375v.9375c-.28125-.34375-.652344-.515625-1.109375-.515625-.367187.023438-.65625.164062-.875.421875-.21875.261719-.335937.546875-.34375.859375 0 .230469.046875.449219.140625.65625.09375.199219.234375.367188.421875.5.195313.125.425781.195312.6875.203125.195313 0 .375-.03125.53125-.09375.164063-.0625.347656-.191406.546875-.390625zm0 0"/>
 </symbol>
 <symbol id="bc" overflow="visible">
  <path d="m.5-6.953125h.71875v3.703125h.015625c.238281-.40625.617187-.609375 1.140625-.609375.875 0 1.3125.507813 1.3125 1.515625v2.34375h-.71875v-2.34375c0-.289062-.070312-.507812-.203125-.65625-.125-.144531-.355469-.21875-.6875-.21875-.574219.03125-.859375.421875-.859375 1.171875v2.046875h-.71875zm0 0"/>
 </symbol>
 <symbol id="bd" overflow="visible">
  <path d="m-.0625-6.03125h.828125l1.796875 4.453125 1.796875-4.453125h.828125l-2.625 6.34375zm0 0"/>
 </symbol>
 <symbol id="be" overflow="visible">
  <path d="m2-5.4375c-.210938 0-.386719.074219-.53125.21875-.136719.148438-.203125.324219-.203125.53125 0 .210938.066406.386719.203125.53125.144531.136719.320312.203125.53125.203125.207031 0 .382812-.066406.53125-.203125.144531-.144531.21875-.320312.21875-.53125 0-.207031-.074219-.382812-.21875-.53125-.148438-.144531-.324219-.21875-.53125-.21875zm0-.5c.164062 0 .328125.03125.484375.09375s.285156.15625.390625.28125c.125.117188.210938.246094.265625.390625.0625.148437.09375.308594.09375.484375 0 .34375-.121094.636719-.359375.875-.242188.242188-.53125.359375-.875.359375-.355469 0-.652344-.113281-.890625-.34375-.230469-.238281-.34375-.535156-.34375-.890625 0-.351562.117187-.648438.359375-.890625.238281-.238281.53125-.359375.875-.359375zm0 0"/>
 </symbol>
 <rect fill="#fff" height="100%" width="100%"/>
 <g fill="none" stroke="#000" stroke-linejoin="round" stroke-miterlimit="10" transform="matrix(1 0 0 -1 0 792)">
  <path d="m53 755h542" stroke-width="2"/>
  <path d="m53 738.199219h542" stroke-width="2"/>
  <path d="m53 714.300781h542" stroke-width=".75"/>
  <path d="m53 690.5h542" stroke-width="2"/>
  <path d="m54 756v-66.5" stroke-width="2"/>
  <path d="m378.699219 739.199219v-49.699219" stroke-width=".75"/>
  <path d="m464.101562 739.199219v-25.25" stroke-width=".75"/>
  <path d="m594 756v-66.5" stroke-width="2"/>
 </g>
 <use x="56.9" xlink:href="#a" y="49"/>
 <use x="60.89" xlink:href="#b" y="49"/>
 <use x="64.187" xlink:href="#b" y="49"/>
 <use x="67.484" xlink:href="#c" y="49"/>
 <use x="73.273" xlink:href="#d" y="49"/>
 <use x="75.065" xlink:href="#e" y="49"/>
 <use x="79.16" xlink:href="#f" y="49"/>
 <use x="82.457" xlink:href="#g" y="49"/>
 <use x="348.7" xlink:href="#L" y="64.3"/>
 <use x="351.996" xlink:href="#M" y="64.3"/>
 <use x="354.892" xlink:href="#M" y="64.3"/>
 <use x="357.788" xlink:href="#N" y="64.3"/>
 <use x="359.98" xlink:href="#O" y="64.3"/>
 <use x="361.58" xlink:href="#P" y="64.3"/>
 <use x="365.372" xlink:href="#Q" y="64.3"/>
 <use x="368.372" xlink:href="#R" y="64.3"/>
 <use x="373.068" xlink:href="#M" y="64.3"/>
 <use x="448" xlink:href="#L" y="64.3"/>
 <use x="451.296" xlink:href="#Q" y="64.3"/>
 <use x="454.296" xlink:href="#S" y="64.3"/>
 <use x="456.088" xlink:href="#T" y="64.3"/>
 <use x="458.288" xlink:href="#U" y="64.3"/>
 <use x="453.1" xlink:href="#P" y="72.8"/>
 <use x="456.892" xlink:href="#V" y="72.8"/>
 <use x="459.892" xlink:href="#W" y="72.8"/>
 <use x="580" xlink:href="#X" y="64.3"/>
 <use x="583.792" xlink:href="#Q" y="64.3"/>
 <use x="586.792" xlink:href="#S" y="64.3"/>
 <use x="588.584" xlink:href="#M" y="64.3"/>
 <use x="364.2" xlink:href="#Y" y="87.5"/>
 <use x="367" xlink:href="#S" y="87.5"/>
 <use x="368.792" xlink:href="#Z" y="87.5"/>
 <use x="371.784" xlink:href="#aa" y="87.5"/>
 <use x="373.184" xlink:href="#M" y="87.5"/>
 <use x="567.5" xlink:href="#L" y="87.5"/>
 <use x="570.796" xlink:href="#N" y="87.5"/>
 <use x="572.988" xlink:href="#M" y="87.5"/>
 <use x="575.884" xlink:href="#ab" y="87.5"/>
 <use x="579.78" xlink:href="#M" y="87.5"/>
 <use x="582.676" xlink:href="#N" y="87.5"/>
 <use x="584.868" xlink:href="#ac" y="87.5"/>
 <use x="587.06" xlink:href="#ad" y="87.5"/>
 <use x="589.252" xlink:href="#ae" y="87.5"/>
 <g fill="none" stroke="#000" stroke-linejoin="round" stroke-miterlimit="10" transform="matrix(1 0 0 -1 0 792)">
  <path d="m53 680.5h542" stroke-width="2"/>
  <path d="m53 663.800781h542" stroke-width="2"/>
  <path d="m53 639.898438h542" stroke-width=".75"/>
  <path d="m53 616.601562h542" stroke-width=".75"/>
  <path d="m53 592.800781h542" stroke-width="2"/>
  <path d="m54 681.5v-89.699219" stroke-width="2"/>
  <g stroke-width=".75">
   <path d="m105.898438 640.300781v-48.5"/>
   <path d="m157.800781 640.300781v-48.5"/>
   <path d="m189 664.800781v-25.25"/>
   <path d="m209.800781 640.300781v-48.5"/>
  </g>
  <path d="m324 681.5v-89.699219" stroke-width="2"/>
  <g stroke-width=".75">
   <path d="m377.898438 640.300781v-48.5"/>
   <path d="m431.898438 640.300781v-48.5"/>
   <path d="m485.800781 640.300781v-48.5"/>
   <path d="m539.699219 640.300781v-48.5"/>
  </g>
  <path d="m594 681.5v-89.699219" stroke-width="2"/>
 </g>
 <use x="56.9" xlink:href="#h" y="123.4"/>
 <use x="61.597" xlink:href="#i" y="123.4"/>
 <use x="64.894" xlink:href="#j" y="123.4"/>
 <use x="68.688" xlink:href="#b" y="123.4"/>
 <use x="71.985" xlink:href="#c" y="123.4"/>
 <use x="75.779" xlink:href="#k" y="123.4"/>
 <use x="76.381" xlink:href="#k" y="123.4"/>
 <use x="77.074" xlink:href="#l" y="123.4"/>
 <use x="80.77" xlink:href="#c" y="123.4"/>
 <use x="84.662" xlink:href="#b" y="123.4"/>
 <use x="87.959" xlink:href="#i" y="123.4"/>
 <use x="91.256" xlink:href="#j" y="123.4"/>
 <use x="94.952" xlink:href="#m" y="123.4"/>
 <use x="100.146" xlink:href="#b" y="123.4"/>
 <use x="103.443" xlink:href="#e" y="123.4"/>
 <use x="107.538" xlink:href="#j" y="123.4"/>
 <use x="326.8" xlink:href="#h" y="123.4"/>
 <use x="331.497" xlink:href="#i" y="123.4"/>
 <use x="334.696" xlink:href="#j" y="123.4"/>
 <use x="338.49" xlink:href="#b" y="123.4"/>
 <use x="341.787" xlink:href="#c" y="123.4"/>
 <use x="345.581" xlink:href="#k" y="123.4"/>
 <use x="346.274" xlink:href="#k" y="123.4"/>
 <use x="346.876" xlink:href="#n" y="123.4"/>
 <use x="350.572" xlink:href="#c" y="123.4"/>
 <use x="354.366" xlink:href="#g" y="123.4"/>
 <use x="358.16" xlink:href="#f" y="123.4"/>
 <use x="361.457" xlink:href="#o" y="123.4"/>
 <use x="363.249" xlink:href="#p" y="123.4"/>
 <use x="366.448" xlink:href="#b" y="123.4"/>
 <use x="167" xlink:href="#af" y="138.7"/>
 <use x="171.6" xlink:href="#Q" y="138.7"/>
 <use x="174.6" xlink:href="#S" y="138.7"/>
 <use x="176.392" xlink:href="#M" y="138.7"/>
 <use x="179.288" xlink:href="#N" y="138.7"/>
 <use x="181.48" xlink:href="#O" y="138.7"/>
 <use x="183.08" xlink:href="#ag" y="138.7"/>
 <use x="183.7" xlink:href="#ah" y="147.2"/>
 <use x="302" xlink:href="#af" y="138.7"/>
 <use x="306.6" xlink:href="#Q" y="138.7"/>
 <use x="309.6" xlink:href="#S" y="138.7"/>
 <use x="311.392" xlink:href="#M" y="138.7"/>
 <use x="314.288" xlink:href="#N" y="138.7"/>
 <use x="316.48" xlink:href="#O" y="138.7"/>
 <use x="318.08" xlink:href="#ai" y="138.7"/>
 <use x="318.7" xlink:href="#ah" y="147.2"/>
 <use x="491.2" xlink:href="#aj" y="138.7"/>
 <use x="494.296" xlink:href="#Q" y="138.7"/>
 <use x="497.296" xlink:href="#aa" y="138.7"/>
 <use x="498.696" xlink:href="#R" y="138.7"/>
 <use x="503.392" xlink:href="#M" y="138.7"/>
 <use x="506.288" xlink:href="#N" y="138.7"/>
 <use x="508.48" xlink:href="#ak" y="138.7"/>
 <use x="509.776" xlink:href="#ad" y="138.7"/>
 <use x="511.968" xlink:href="#O" y="138.7"/>
 <use x="513.664" xlink:href="#L" y="138.7"/>
 <use x="516.96" xlink:href="#N" y="138.7"/>
 <use x="519.056" xlink:href="#M" y="138.7"/>
 <use x="521.952" xlink:href="#ab" y="138.7"/>
 <use x="525.848" xlink:href="#al" y="138.7"/>
 <use x="527.248" xlink:href="#am" y="138.7"/>
 <use x="530.344" xlink:href="#an" y="138.7"/>
 <use x="533.536" xlink:href="#O" y="138.7"/>
 <use x="535.136" xlink:href="#af" y="138.7"/>
 <use x="539.632" xlink:href="#Q" y="138.7"/>
 <use x="542.728" xlink:href="#S" y="138.7"/>
 <use x="544.52" xlink:href="#M" y="138.7"/>
 <use x="547.416" xlink:href="#N" y="138.7"/>
 <use x="549.608" xlink:href="#O" y="138.7"/>
 <use x="551.208" xlink:href="#ao" y="138.7"/>
 <use x="554.504" xlink:href="#ap" y="138.7"/>
 <use x="557.6" xlink:href="#aq" y="138.7"/>
 <use x="559" xlink:href="#ar" y="138.7"/>
 <use x="562.096" xlink:href="#ad" y="138.7"/>
 <use x="564.288" xlink:href="#S" y="138.7"/>
 <use x="566.08" xlink:href="#R" y="138.7"/>
 <use x="570.776" xlink:href="#M" y="138.7"/>
 <use x="573.672" xlink:href="#am" y="138.7"/>
 <use x="576.768" xlink:href="#S" y="138.7"/>
 <use x="578.56" xlink:href="#O" y="138.7"/>
 <use x="580.16" xlink:href="#ao" y="138.7"/>
 <use x="583.456" xlink:href="#as" y="138.7"/>
 <use x="586.552" xlink:href="#as" y="138.7"/>
 <use x="589.552" xlink:href="#O" y="138.7"/>
 <use x="562.8" xlink:href="#at" y="147.2"/>
 <use x="565" xlink:href="#Q" y="147.2"/>
 <use x="568" xlink:href="#N" y="147.2"/>
 <use x="570.192" xlink:href="#an" y="147.2"/>
 <use x="573.288" xlink:href="#M" y="147.2"/>
 <use x="576.088" xlink:href="#S" y="147.2"/>
 <use x="577.88" xlink:href="#O" y="147.2"/>
 <use x="579.576" xlink:href="#Y" y="147.2"/>
 <use x="582.376" xlink:href="#S" y="147.2"/>
 <use x="584.168" xlink:href="#Z" y="147.2"/>
 <use x="587.16" xlink:href="#aa" y="147.2"/>
 <use x="588.56" xlink:href="#M" y="147.2"/>
 <use x="92.1" xlink:href="#P" y="162"/>
 <use x="95.892" xlink:href="#Q" y="162"/>
 <use x="98.892" xlink:href="#au" y="162"/>
 <use x="101.884" xlink:href="#aa" y="162"/>
 <use x="100.3" xlink:href="#an" y="170.5"/>
 <use x="135.9" xlink:href="#P" y="162"/>
 <use x="139.692" xlink:href="#Q" y="162"/>
 <use x="142.692" xlink:href="#av" y="162"/>
 <use x="146.388" xlink:href="#au" y="162"/>
 <use x="149.38" xlink:href="#aw" y="162"/>
 <use x="153.3" xlink:href="#aE" y="162.8"/>
 <use x="152.2" xlink:href="#an" y="170.5"/>
 <use x="192.6" xlink:href="#au" y="162"/>
 <use x="195.592" xlink:href="#Q" y="162"/>
 <use x="198.592" xlink:href="#Y" y="162"/>
 <use x="201.392" xlink:href="#aw" y="162"/>
 <use x="205.3" xlink:href="#aF" y="162.8"/>
 <use x="204.1" xlink:href="#an" y="170.5"/>
 <use x="301.1" xlink:href="#an" y="170.5"/>
 <use x="304.196" xlink:href="#O" y="170.5"/>
 <use x="305.796" xlink:href="#O" y="170.5"/>
 <use x="307.492" xlink:href="#O" y="170.5"/>
 <use x="309.092" xlink:href="#O" y="170.5"/>
 <use x="310.788" xlink:href="#O" y="170.5"/>
 <use x="312.388" xlink:href="#R" y="170.5"/>
 <use x="317.084" xlink:href="#ah" y="170.5"/>
 <use x="319.78" xlink:href="#O" y="170.5"/>
 <use x="365.1" xlink:href="#au" y="162"/>
 <use x="368.092" xlink:href="#Q" y="162"/>
 <use x="371.1" xlink:href="#aG" y="159.2"/>
 <use x="372.9952" xlink:href="#aH" y="159.2"/>
 <use x="364.5" xlink:href="#as" y="170.5"/>
 <use x="367.5" xlink:href="#as" y="170.5"/>
 <use x="370.5" xlink:href="#R" y="170.5"/>
 <use x="417.5" xlink:href="#ax" y="162"/>
 <use x="421.9" xlink:href="#an" y="162"/>
 <use x="425.1" xlink:href="#aG" y="159.2"/>
 <use x="426.9952" xlink:href="#aH" y="159.2"/>
 <use x="418.5" xlink:href="#as" y="170.5"/>
 <use x="421.596" xlink:href="#as" y="170.5"/>
 <use x="424.596" xlink:href="#R" y="170.5"/>
 <use x="460.5" xlink:href="#at" y="162"/>
 <use x="462.7" xlink:href="#V" y="162"/>
 <use x="465.596" xlink:href="#S" y="162"/>
 <use x="467.388" xlink:href="#Q" y="162"/>
 <use x="470.484" xlink:href="#aa" y="162"/>
 <use x="473.58" xlink:href="#ao" y="162"/>
 <use x="476.876" xlink:href="#aa" y="162"/>
 <use x="478.276" xlink:href="#ay" y="162"/>
 <use x="481.468" xlink:href="#W" y="162"/>
 <use x="469" xlink:href="#au" y="170.5"/>
 <use x="471.992" xlink:href="#Q" y="170.5"/>
 <use x="474.888" xlink:href="#au" y="170.5"/>
 <use x="477.88" xlink:href="#az" y="170.5"/>
 <use x="481.3" xlink:href="#aE" y="171.3"/>
 <use x="528.1" xlink:href="#ax" y="162"/>
 <use x="532.596" xlink:href="#al" y="162"/>
 <use x="533.996" xlink:href="#am" y="162"/>
 <use x="528" xlink:href="#aA" y="170.5"/>
 <use x="530.792" xlink:href="#L" y="170.5"/>
 <use x="534.088" xlink:href="#au" y="170.5"/>
 <use x="580.7" xlink:href="#ax" y="162"/>
 <use x="585.196" xlink:href="#Q" y="162"/>
 <use x="588.196" xlink:href="#aB" y="162"/>
 <use x="582.3" xlink:href="#aA" y="170.5"/>
 <use x="585.092" xlink:href="#L" y="170.5"/>
 <use x="588.388" xlink:href="#au" y="170.5"/>
 <use x="91" xlink:href="#au" y="185.2"/>
 <use x="93.992" xlink:href="#Q" y="185.2"/>
 <use x="96.888" xlink:href="#au" y="185.2"/>
 <use x="99.88" xlink:href="#aa" y="185.2"/>
 <use x="101.4" xlink:href="#aG" y="186"/>
 <use x="100.3" xlink:href="#an" y="193.7"/>
 <use x="135.3" xlink:href="#au" y="185.2"/>
 <use x="138.292" xlink:href="#Q" y="185.2"/>
 <use x="141.292" xlink:href="#ac" y="185.2"/>
 <use x="143.484" xlink:href="#aw" y="185.2"/>
 <use x="147.284" xlink:href="#av" y="185.2"/>
 <use x="151.076" xlink:href="#ae" y="185.2"/>
 <use x="153.3" xlink:href="#aG" y="186"/>
 <use x="152.2" xlink:href="#an" y="193.7"/>
 <use x="191.1" xlink:href="#ax" y="185.2"/>
 <use x="195.596" xlink:href="#an" y="185.2"/>
 <use x="198.692" xlink:href="#Y" y="185.2"/>
 <use x="201.492" xlink:href="#aw" y="185.2"/>
 <use x="205.3" xlink:href="#aF" y="186"/>
 <use x="204.1" xlink:href="#an" y="193.7"/>
 <use x="301.1" xlink:href="#an" y="193.7"/>
 <use x="304.196" xlink:href="#O" y="193.7"/>
 <use x="305.796" xlink:href="#O" y="193.7"/>
 <use x="307.492" xlink:href="#O" y="193.7"/>
 <use x="309.092" xlink:href="#O" y="193.7"/>
 <use x="310.788" xlink:href="#O" y="193.7"/>
 <use x="312.388" xlink:href="#R" y="193.7"/>
 <use x="317.084" xlink:href="#ah" y="193.7"/>
 <use x="319.78" xlink:href="#O" y="193.7"/>
 <use x="363.8" xlink:href="#Y" y="185.2"/>
 <use x="366.6" xlink:href="#aw" y="185.2"/>
 <use x="370.4" xlink:href="#aF" y="186"/>
 <use x="372.3" xlink:href="#aG" y="182.4"/>
 <use x="374.1952" xlink:href="#aI" y="182.4"/>
 <use x="364.5" xlink:href="#as" y="193.7"/>
 <use x="367.5" xlink:href="#as" y="193.7"/>
 <use x="370.5" xlink:href="#R" y="193.7"/>
 <use x="423.8" xlink:href="#au" y="185.2"/>
 <use x="426.792" xlink:href="#aa" y="185.2"/>
 <use x="428.2" xlink:href="#aI" y="182.4"/>
 <use x="418.5" xlink:href="#as" y="193.7"/>
 <use x="421.596" xlink:href="#as" y="193.7"/>
 <use x="424.596" xlink:href="#R" y="193.7"/>
 <use x="474" xlink:href="#P" y="185.2"/>
 <use x="477.792" xlink:href="#Q" y="185.2"/>
 <use x="480.9" xlink:href="#aH" y="182.4"/>
 <use x="472.4" xlink:href="#as" y="193.7"/>
 <use x="475.496" xlink:href="#as" y="193.7"/>
 <use x="478.496" xlink:href="#R" y="193.7"/>
 <use x="515.9" xlink:href="#aC" y="185.2"/>
 <use x="519.196" xlink:href="#M" y="185.2"/>
 <use x="522.092" xlink:href="#ad" y="185.2"/>
 <use x="524.284" xlink:href="#W" y="185.2"/>
 <use x="525.98" xlink:href="#O" y="185.2"/>
 <use x="527.58" xlink:href="#ao" y="185.2"/>
 <use x="530.876" xlink:href="#aa" y="185.2"/>
 <use x="532.276" xlink:href="#ay" y="185.2"/>
 <use x="535.468" xlink:href="#W" y="185.2"/>
 <use x="523" xlink:href="#au" y="193.7"/>
 <use x="525.992" xlink:href="#Q" y="193.7"/>
 <use x="528.992" xlink:href="#au" y="193.7"/>
 <use x="531.984" xlink:href="#az" y="193.7"/>
 <use x="535.2" xlink:href="#aE" y="194.5"/>
 <use x="571.1" xlink:href="#Y" y="185.2"/>
 <use x="573.9" xlink:href="#aw" y="185.2"/>
 <use x="577.8" xlink:href="#aF" y="186"/>
 <use x="579.7" xlink:href="#aG" y="182.4"/>
 <use x="581.5952" xlink:href="#aI" y="182.4"/>
 <use x="582.7" xlink:href="#aD" y="185.2"/>
 <use x="585.9" xlink:href="#au" y="185.2"/>
 <use x="588.892" xlink:href="#aa" y="185.2"/>
 <use x="590.3" xlink:href="#aI" y="182.4"/>
 <use x="578.8" xlink:href="#aC" y="193.7"/>
 <use x="582.096" xlink:href="#Q" y="193.7"/>
 <use x="585.096" xlink:href="#S" y="193.7"/>
 <use x="586.888" xlink:href="#al" y="193.7"/>
 <use x="588.288" xlink:href="#V" y="193.7"/>
 <g fill="none" stroke="#000" stroke-linejoin="round" stroke-miterlimit="10" transform="matrix(1 0 0 -1 0 792)">
  <path d="m53 582.800781h424" stroke-width="2"/>
  <path d="m53 566.101562h424" stroke-width="2"/>
  <g stroke-width=".75">
   <path d="m53 543.300781h424"/>
   <path d="m53 521.101562h424"/>
   <path d="m53 499h424"/>
   <path d="m53 476.800781h424"/>
   <path d="m53 454.699219h424"/>
   <path d="m53 432.5h424"/>
   <path d="m53 410.398438h424"/>
   <path d="m53 388.199219h424"/>
  </g>
  <path d="m53 365.5h424" stroke-width="2"/>
  <path d="m54 583.800781v-219.300781" stroke-width="2"/>
  <g stroke-width=".75">
   <path d="m229.5 583.800781v-219.300781"/>
   <path d="m279.101562 583.800781v-219.300781"/>
   <path d="m342 583.800781v-219.300781"/>
   <path d="m436.5 583.800781v-219.300781"/>
  </g>
  <path d="m476 583.800781v-219.300781" stroke-width="2"/>
 </g>
 <use x="56.9" xlink:href="#q" y="221.1"/>
 <use x="62.094" xlink:href="#i" y="221.1"/>
 <use x="65.895" xlink:href="#r" y="221.1"/>
 <use x="69.885" xlink:href="#s" y="221.1"/>
 <use x="73.483" xlink:href="#k" y="221.1"/>
 <use x="74.176" xlink:href="#k" y="221.1"/>
 <use x="74.778" xlink:href="#k" y="221.1"/>
 <use x="75.471" xlink:href="#t" y="221.1"/>
 <use x="79.566" xlink:href="#u" y="221.1"/>
 <use x="83.36" xlink:href="#u" y="221.1"/>
 <use x="87.154" xlink:href="#o" y="221.1"/>
 <use x="88.848" xlink:href="#j" y="221.1"/>
 <use x="92.544" xlink:href="#o" y="221.1"/>
 <use x="94.238" xlink:href="#g" y="221.1"/>
 <use x="98.13" xlink:href="#e" y="221.1"/>
 <use x="102.12" xlink:href="#r" y="221.1"/>
 <use x="105.914" xlink:href="#k" y="221.1"/>
 <use x="106.516" xlink:href="#v" y="221.1"/>
 <use x="109.015" xlink:href="#w" y="221.1"/>
 <use x="112.809" xlink:href="#c" y="221.1"/>
 <use x="116.701" xlink:href="#i" y="221.1"/>
 <use x="120.894" xlink:href="#o" y="221.1"/>
 <use x="122.686" xlink:href="#e" y="221.1"/>
 <use x="126.781" xlink:href="#r" y="221.1"/>
 <use x="130.484" xlink:href="#x" y="221.1"/>
 <use x="232.3" xlink:href="#aJ" y="220"/>
 <use x="237.596" xlink:href="#aK" y="220"/>
 <use x="241.892" xlink:href="#aL" y="220"/>
 <use x="243.684" xlink:href="#aK" y="220"/>
 <use x="247.98" xlink:href="#aM" y="220"/>
 <use x="253.076" xlink:href="#aN" y="220"/>
 <use x="259.372" xlink:href="#aO" y="220"/>
 <use x="262.468" xlink:href="#aP" y="220"/>
 <use x="255.4" xlink:href="#be" y="220"/>
 <use x="282" xlink:href="#aQ" y="220"/>
 <use x="288.8" xlink:href="#aR" y="220"/>
 <use x="293.296" xlink:href="#aS" y="220"/>
 <use x="296.392" xlink:href="#aS" y="220"/>
 <use x="301.784" xlink:href="#aN" y="220"/>
 <use x="304.08" xlink:href="#aT" y="220"/>
 <use x="307.776" xlink:href="#aU" y="220"/>
 <use x="312.272" xlink:href="#aP" y="220"/>
 <use x="344.8" xlink:href="#aQ" y="220"/>
 <use x="351.6" xlink:href="#aR" y="220"/>
 <use x="356" xlink:href="#aL" y="220"/>
 <use x="357.792" xlink:href="#aV" y="220"/>
 <use x="359.688" xlink:href="#aS" y="220"/>
 <use x="362.784" xlink:href="#aV" y="220"/>
 <use x="364.68" xlink:href="#aW" y="220"/>
 <use x="368.576" xlink:href="#aM" y="220"/>
 <use x="439.3" xlink:href="#aQ" y="220"/>
 <use x="446.1" xlink:href="#aX" y="220"/>
 <use x="448.1" xlink:href="#aL" y="220"/>
 <use x="449.892" xlink:href="#aL" y="220"/>
 <use x="453.98" xlink:href="#aN" y="220"/>
 <use x="456.276" xlink:href="#aY" y="220"/>
 <use x="462.468" xlink:href="#aY" y="220"/>
 <use x="468.564" xlink:href="#aP" y="220"/>
 <g fill="none" stroke="#000" stroke-linejoin="round" stroke-miterlimit="10" transform="matrix(1 0 0 -1 0 792)">
  <path d="m53 355.5h424" stroke-width="2"/>
  <path d="m53 338.800781h424" stroke-width="2"/>
  <g stroke-width=".75">
   <path d="m53 316h424"/>
   <path d="m53 293.800781h424"/>
   <path d="m53 271.699219h424"/>
   <path d="m53 249.5h424"/>
   <path d="m53 227.398438h424"/>
   <path d="m53 205.199219h424"/>
   <path d="m53 183.101562h424"/>
   <path d="m53 160.898438h424"/>
  </g>
  <path d="m53 138.199219h424" stroke-width="2"/>
  <path d="m54 356.5v-219.300781" stroke-width="2"/>
  <g stroke-width=".75">
   <path d="m274.5 356.5v-219.300781"/>
   <path d="m337.5 356.5v-219.300781"/>
   <path d="m382.5 356.5v-219.300781"/>
   <path d="m432.699219 356.5v-219.300781"/>
  </g>
  <path d="m476 356.5v-219.300781" stroke-width="2"/>
 </g>
 <use x="56.9" xlink:href="#a" y="448.4"/>
 <use x="60.89" xlink:href="#y" y="448.4"/>
 <use x="64.684" xlink:href="#d" y="448.4"/>
 <use x="66.476" xlink:href="#z" y="448.4"/>
 <use x="69.675" xlink:href="#k" y="448.4"/>
 <use x="70.277" xlink:href="#k" y="448.4"/>
 <use x="70.97" xlink:href="#t" y="448.4"/>
 <use x="75.163" xlink:href="#u" y="448.4"/>
 <use x="78.859" xlink:href="#u" y="448.4"/>
 <use x="82.653" xlink:href="#o" y="448.4"/>
 <use x="84.347" xlink:href="#j" y="448.4"/>
 <use x="88.141" xlink:href="#o" y="448.4"/>
 <use x="89.835" xlink:href="#g" y="448.4"/>
 <use x="93.629" xlink:href="#e" y="448.4"/>
 <use x="97.619" xlink:href="#r" y="448.4"/>
 <use x="101.413" xlink:href="#k" y="448.4"/>
 <use x="102.015" xlink:href="#k" y="448.4"/>
 <use x="102.708" xlink:href="#k" y="448.4"/>
 <use x="103.31" xlink:href="#v" y="448.4"/>
 <use x="105.809" xlink:href="#A" y="448.4"/>
 <use x="109.701" xlink:href="#g" y="448.4"/>
 <use x="113.495" xlink:href="#B" y="448.4"/>
 <use x="116.995" xlink:href="#r" y="448.4"/>
 <use x="120.789" xlink:href="#C" y="448.4"/>
 <use x="122.385" xlink:href="#k" y="448.4"/>
 <use x="123.078" xlink:href="#k" y="448.4"/>
 <use x="123.68" xlink:href="#D" y="448.4"/>
 <use x="127.572" xlink:href="#B" y="448.4"/>
 <use x="131.366" xlink:href="#o" y="448.4"/>
 <use x="133.06" xlink:href="#E" y="448.4"/>
 <use x="136.854" xlink:href="#b" y="448.4"/>
 <use x="140.053" xlink:href="#r" y="448.4"/>
 <use x="143.847" xlink:href="#k" y="448.4"/>
 <use x="144.54" xlink:href="#C" y="448.4"/>
 <use x="146.136" xlink:href="#k" y="448.4"/>
 <use x="146.738" xlink:href="#k" y="448.4"/>
 <use x="147.431" xlink:href="#b" y="448.4"/>
 <use x="150.728" xlink:href="#j" y="448.4"/>
 <use x="154.319" xlink:href="#E" y="448.4"/>
 <use x="157.917" xlink:href="#F" y="448.4"/>
 <use x="159.513" xlink:href="#x" y="448.4"/>
 <use x="277.4" xlink:href="#aZ" y="447.3"/>
 <use x="281.2" xlink:href="#aK" y="447.3"/>
 <use x="285.496" xlink:href="#aM" y="447.3"/>
 <use x="288.392" xlink:href="#aY" y="447.3"/>
 <use x="340.4" xlink:href="#a0" y="447.3"/>
 <use x="344.096" xlink:href="#aX" y="447.3"/>
 <use x="346.096" xlink:href="#aY" y="447.3"/>
 <use x="352.192" xlink:href="#aW" y="447.3"/>
 <use x="385.4" xlink:href="#aQ" y="447.3"/>
 <use x="392.2" xlink:href="#aR" y="447.3"/>
 <use x="396.696" xlink:href="#aS" y="447.3"/>
 <use x="399.792" xlink:href="#aS" y="447.3"/>
 <use x="402.888" xlink:href="#a1" y="447.3"/>
 <use x="405.184" xlink:href="#aN" y="447.3"/>
 <use x="407.48" xlink:href="#aU" y="447.3"/>
 <use x="411.976" xlink:href="#aP" y="447.3"/>
 <use x="435.6" xlink:href="#a2" y="447.3"/>
 <use x="441.2" xlink:href="#a3" y="447.3"/>
 <use x="443.496" xlink:href="#a2" y="447.3"/>
 <use x="449.192" xlink:href="#a3" y="447.3"/>
 <use x="451.488" xlink:href="#a1" y="447.3"/>
 <use x="453.784" xlink:href="#aN" y="447.3"/>
 <use x="456.08" xlink:href="#a4" y="447.3"/>
 <use x="461.776" xlink:href="#aP" y="447.3"/>
 <g fill="none" stroke="#000" stroke-linejoin="round" stroke-miterlimit="10" stroke-width="2" transform="matrix(1 0 0 -1 0 792)">
  <path d="m482 582.800781h113"/>
  <path d="m482 566.101562h113"/>
  <path d="m482 138.398438h113"/>
  <path d="m483 583.800781v-446.402343"/>
  <path d="m594 583.800781v-446.402343"/>
 </g>
 <use x="485.9" xlink:href="#q" y="221.1"/>
 <use x="491.094" xlink:href="#o" y="221.1"/>
 <use x="492.886" xlink:href="#r" y="221.1"/>
 <use x="496.778" xlink:href="#E" y="221.1"/>
 <use x="500.474" xlink:href="#b" y="221.1"/>
 <use x="503.771" xlink:href="#p" y="221.1"/>
 <use x="506.97" xlink:href="#p" y="221.1"/>
 <use x="510.169" xlink:href="#i" y="221.1"/>
 <use x="514.362" xlink:href="#e" y="221.1"/>
 <use x="518.457" xlink:href="#b" y="221.1"/>
 <use x="521.754" xlink:href="#g" y="221.1"/>
 <use x="525.548" xlink:href="#G" y="221.1"/>
 <use x="529.342" xlink:href="#r" y="221.1"/>
 <g fill="none" stroke="#000" stroke-linejoin="round" stroke-miterlimit="10" transform="matrix(1 0 0 -1 0 792)">
  <path d="m53 128.199219h542" stroke-width="2"/>
  <path d="m53 111.5h542" stroke-width="2"/>
  <path d="m53 90.5h542" stroke-width=".75"/>
  <path d="m53 68.898438h542" stroke-width=".75"/>
  <path d="m53 46.699219h542" stroke-width="2"/>
  <path d="m54 129.199219v-83.5" stroke-width="2"/>
  <path d="m296.699219 129.199219v-83.5" stroke-width=".75"/>
  <path d="m510.800781 129.199219v-83.5" stroke-width=".75"/>
  <path d="m594 129.199219v-83.5" stroke-width="2"/>
 </g>
 <use x="56.9" xlink:href="#H" y="675.7"/>
 <use x="61.191" xlink:href="#b" y="675.7"/>
 <use x="64.39" xlink:href="#i" y="675.7"/>
 <use x="68.289" xlink:href="#r" y="675.7"/>
 <use x="72.083" xlink:href="#j" y="675.7"/>
 <use x="75.674" xlink:href="#k" y="675.7"/>
 <use x="76.367" xlink:href="#I" y="675.7"/>
 <use x="80.364" xlink:href="#k" y="675.7"/>
 <use x="80.966" xlink:href="#J" y="675.7"/>
 <use x="84.263" xlink:href="#b" y="675.7"/>
 <use x="87.56" xlink:href="#c" y="675.7"/>
 <use x="91.55" xlink:href="#m" y="675.7"/>
 <use x="96.744" xlink:href="#b" y="675.7"/>
 <use x="100.041" xlink:href="#e" y="675.7"/>
 <use x="104.031" xlink:href="#j" y="675.7"/>
 <use x="107.825" xlink:href="#o" y="675.7"/>
 <use x="109.519" xlink:href="#e" y="675.7"/>
 <use x="113.614" xlink:href="#K" y="675.7"/>
 <use x="117.212" xlink:href="#k" y="675.7"/>
 <use x="117.814" xlink:href="#t" y="675.7"/>
 <use x="121.811" xlink:href="#K" y="675.7"/>
 <use x="125.703" xlink:href="#b" y="675.7"/>
 <use x="129" xlink:href="#e" y="675.7"/>
 <use x="132.99" xlink:href="#j" y="675.7"/>
 <use x="136.49" xlink:href="#r" y="675.7"/>
 <use x="299.6" xlink:href="#a5" y="674.6"/>
 <use x="303.592" xlink:href="#aM" y="674.6"/>
 <use x="306.392" xlink:href="#aK" y="674.6"/>
 <use x="310.688" xlink:href="#a6" y="674.6"/>
 <use x="315.088" xlink:href="#aR" y="674.6"/>
 <use x="319.584" xlink:href="#aU" y="674.6"/>
 <use x="323.984" xlink:href="#aR" y="674.6"/>
 <use x="328.48" xlink:href="#aV" y="674.6"/>
 <use x="330.376" xlink:href="#aX" y="674.6"/>
 <use x="332.376" xlink:href="#aK" y="674.6"/>
 <use x="336.672" xlink:href="#a7" y="674.6"/>
 <use x="340.968" xlink:href="#a1" y="674.6"/>
 <use x="343.264" xlink:href="#a8" y="674.6"/>
 <use x="347.664" xlink:href="#a1" y="674.6"/>
 <use x="349.96" xlink:href="#a9" y="674.6"/>
 <use x="354.256" xlink:href="#aK" y="674.6"/>
 <use x="358.552" xlink:href="#ba" y="674.6"/>
 <use x="362.648" xlink:href="#aM" y="674.6"/>
 <use x="365.448" xlink:href="#bb" y="674.6"/>
 <use x="368.944" xlink:href="#aW" y="674.6"/>
 <use x="513.6" xlink:href="#a5" y="674.6"/>
 <use x="517.592" xlink:href="#aX" y="674.6"/>
 <use x="519.592" xlink:href="#aV" y="674.6"/>
 <use x="521.488" xlink:href="#bb" y="674.6"/>
 <use x="524.984" xlink:href="#bc" y="674.6"/>
 <use x="529.176" xlink:href="#a1" y="674.6"/>
 <use x="531.472" xlink:href="#bd" y="674.6"/>
 <use x="536.568" xlink:href="#aK" y="674.6"/>
 <use x="540.864" xlink:href="#aL" y="674.6"/>
 <use x="542.656" xlink:href="#a3" y="674.6"/>
 <use x="544.952" xlink:href="#a1" y="674.6"/>
 <use x="547.344" xlink:href="#aN" y="674.6"/>
 <use x="549.64" xlink:href="#aY" y="674.6"/>
 <use x="555.736" xlink:href="#aO" y="674.6"/>
 <use x="558.832" xlink:href="#aP" y="674.6"/>
</svg>
