<svg height="792pt" viewBox="0 0 612 792" width="612pt" xmlns="http://www.w3.org/2000/svg" xmlns:xlink="http://www.w3.org/1999/xlink">
 <symbol id="a" overflow="visible">
  <path d="m.328125 0v-6.234375h1.40625c.363281 0 .695313.101563 1 .296875.25.167969.429687.421875.546875.765625.0625.1875.09375.40625.09375.65625 0 .429687-.117188.765625-.34375 1.015625-.09375.105469-.203125.183594-.328125.234375.207031.085937.382813.246094.53125.484375.101563.15625.175781.359375.21875.609375.019531.125.03125.273437.03125.4375 0 .398437-.074219.730469-.21875 1-.117187.21875-.277344.390625-.484375.515625-.242188.1484375-.480469.21875-.71875.21875zm1.015625-.921875h.390625c.3125 0 .53125-.164063.65625-.5.039063-.113281.0625-.242187.0625-.390625 0-.34375-.070313-.59375-.203125-.75-.117188-.144531-.289062-.21875-.515625-.21875h-.390625zm0-2.765625h.390625c.289063 0 .484375-.140625.578125-.421875.039062-.113281.0625-.25.0625-.40625 0-.25-.0625-.441406-.1875-.578125-.117188-.125-.265625-.1875-.453125-.1875h-.390625zm0 0"/>
 </symbol>
 <symbol id="b" overflow="visible">
  <path d="m.328125 0v-6.234375h2.671875v.9375h-1.734375v1.703125h1.265625v.953125h-1.265625v1.703125h1.734375v.9375zm0 0"/>
 </symbol>
 <symbol id="c" overflow="visible">
  <path d="m1.796875-6.234375c.53125 0 .914063.148437 1.15625.4375.21875.25.328125.601563.328125 1.046875v.90625c0 .449219-.167969.824219-.5 1.125l.6875 2.71875h-1.015625l-.5625-2.34375c-.03125 0-.0625 0-.09375 0h-.53125v2.34375h-.9375v-6.234375zm.5625 1.5c0-.351563-.179687-.53125-.53125-.53125h-.5625v1.984375h.5625c.144531 0 .269531-.050781.375-.15625.101563-.101562.15625-.226562.15625-.375zm0 0"/>
 </symbol>
 <symbol id="d" overflow="visible"/>
 <symbol id="e" overflow="visible">
  <path d="m1.265625 0h-.9375v-6.234375h.9375zm0 0"/>
 </symbol>
 <symbol id="f" overflow="visible">
  <path d="m1.375-6.234375 1.25 4.1875v-4.1875h.9375v6.234375h-1l-1.296875-3.984375v3.984375h-.9375v-6.234375zm0 0"/>
 </symbol>
 <symbol id="g" overflow="visible">
  <path d="m1.265625 0h-.9375v-6.234375h2.671875v.9375h-1.734375v1.703125h1.265625v.953125h-1.265625zm0 0"/>
 </symbol>
 <symbol id="h" overflow="visible">
  <path d="m1.8125-6.3125c.414062 0 .765625.148438 1.046875.4375.289063.292969.4375.648438.4375 1.0625v3.390625c0 .417969-.148437.773437-.4375 1.0625-.292969.2929688-.640625.4375-1.046875.4375-.417969 0-.773438-.1445312-1.0625-.4375-.28125-.289063-.421875-.644531-.421875-1.0625v-3.390625c0-.414062.144531-.769531.4375-1.0625.289063-.289062.640625-.4375 1.046875-.4375zm.515625 1.46875c0-.144531-.054687-.269531-.15625-.375-.105469-.101562-.234375-.15625-.390625-.15625-.148438 0-.273438.054688-.375.15625-.105469.105469-.15625.230469-.15625.375v3.421875c0 .148437.050781.273437.15625.375.101562.105469.226562.15625.375.15625.15625 0 .285156-.050781.390625-.15625.101563-.101563.15625-.226563.15625-.375zm0 0"/>
 </symbol>
 <symbol id="i" overflow="visible">
  <path d="m1.265625 0h-.9375v-6.234375h2.671875v.9375h-1.734375v1.703125h1.265625v.953125h-1.265625zm0 0"/>
 </symbol>
 <symbol id="j" overflow="visible">
  <path d="m1.265625 0h-.9375v-6.234375h1.34375l.875 4.46875.84375-4.46875h1.296875v6.234375h-.9375v-3.921875l-.828125 3.921875h-.75l-.90625-3.90625zm0 0"/>
 </symbol>
 <symbol id="k" overflow="visible">
  <path d="m1.328125-5.296875h-1v-.9375h2.921875v.9375h-.984375v5.296875h-.9375zm0 0"/>
 </symbol>
 <symbol id="l" overflow="visible">
  <path d="m1.53125-1.4375-.234375 1.4375h-.96875l1.046875-6.234375h1.296875l1.046875 6.234375h-.984375l-.21875-1.4375zm.484375-3.359375-.34375 2.453125h.703125zm0 0"/>
 </symbol>
 <symbol id="m" overflow="visible">
  <path d="m1.265625 0h-.9375v-6.234375h.9375zm0 0"/>
 </symbol>
 <symbol id="n" overflow="visible">
  <path d="m2.890625 0h-2.5625v-6.234375h.9375v5.296875h1.625zm0 0"/>
 </symbol>
 <symbol id="o" overflow="visible">
  <path d="m.328125 0v-6.234375h2.671875v.9375h-1.734375v1.703125h1.265625v.953125h-1.265625v1.703125h1.734375v.9375zm0 0"/>
 </symbol>
 <symbol id="p" overflow="visible">
  <path d="m3.78125 0h-1l-.71875-1.984375-.734375 1.984375h-1l1.21875-3.125-1.21875-3.109375h1.03125l.703125 1.921875.6875-1.921875h1.03125l-1.21875 3.109375zm0 0"/>
 </symbol>
 <symbol id="q" overflow="visible">
  <path d="m1.8125.078125c-.417969 0-.773438-.1445312-1.0625-.4375-.28125-.289063-.421875-.640625-.421875-1.046875v-3.40625c0-.40625.144531-.753906.4375-1.046875.289063-.289063.640625-.4375 1.046875-.4375.414062 0 .765625.148437 1.046875.4375.289063.292969.4375.640625.4375 1.046875v.71875h-.96875v-.734375c0-.144531-.054687-.269531-.15625-.375-.105469-.113281-.234375-.171875-.390625-.171875-.148438 0-.273438.058594-.375.171875-.105469.105469-.15625.230469-.15625.375v3.40625c0 .15625.050781.289063.15625.390625.101562.105469.226562.15625.375.15625.15625 0 .285156-.050781.390625-.15625.101563-.101562.15625-.234375.15625-.390625v-.859375h.96875v.875c0 .417969-.148437.773438-.4375 1.0625-.292969.28125-.640625.421875-1.046875.421875zm0 0"/>
 </symbol>
 <symbol id="r" overflow="visible">
  <path d="m2.921875-6.625h.765625l-2.59375 6.8125h-.765625zm0 0"/>
 </symbol>
 <symbol id="s" overflow="visible">
  <path d="m1.8125.078125c-.417969 0-.773438-.1445312-1.0625-.4375-.28125-.289063-.421875-.640625-.421875-1.046875v-3.40625c0-.40625.144531-.753906.4375-1.046875.289063-.289063.640625-.4375 1.046875-.4375.414062 0 .765625.148437 1.046875.4375.289063.292969.4375.640625.4375 1.046875v.71875h-.96875v-.734375c0-.144531-.054687-.269531-.15625-.375-.105469-.113281-.234375-.171875-.390625-.171875-.148438 0-.273438.058594-.375.171875-.105469.105469-.15625.230469-.15625.375v3.40625c0 .15625.050781.289063.15625.390625.101562.105469.226562.15625.375.15625.15625 0 .285156-.050781.390625-.15625.101563-.101562.15625-.234375.15625-.390625v-1.21875h-.53125v-.9375h1.5v2.171875c0 .417969-.148437.773438-.4375 1.0625-.292969.28125-.640625.421875-1.046875.421875zm0 0"/>
 </symbol>
 <symbol id="t" overflow="visible">
  <path d="m1.4375 0-1.109375-6.234375h.984375l.78125 4.859375.78125-4.859375h.984375l-1.125 6.234375zm0 0"/>
 </symbol>
 <symbol id="u" overflow="visible">
  <path d="m1.578125-2.609375-1.25-3.625h1.03125l.6875 2.234375.703125-2.234375h1.03125l-1.265625 3.625v2.609375h-.9375zm0 0"/>
 </symbol>
 <symbol id="v" overflow="visible">
  <path d="m.484375-6.03125h.96875c.394531 0 .691406.070312.890625.203125.207031.136719.34375.304687.40625.5.0625.1875.101562.417969.125.6875v.28125c0 .34375-.058594.625-.171875.84375-.105469.210937-.296875.355469-.578125.4375v.015625c.5625.167969.84375.605469.84375 1.3125 0 .074219-.007812.148438-.015625.21875v.15625c-.023437.917969-.511719 1.375-1.46875 1.375h-1zm.765625.671875v1.984375c.21875 0 .390625-.035156.515625-.109375.125-.082031.207031-.195313.25-.34375.050781-.15625.078125-.347656.078125-.578125 0-.320312-.0625-.5625-.1875-.71875-.117188-.15625-.277344-.234375-.484375-.234375zm0 2.625v2.046875c.3125 0 .53125-.0625.65625-.1875s.191406-.320312.203125-.59375v-.28125c0-.351562-.070313-.601562-.203125-.75-.125-.15625-.320312-.234375-.578125-.234375zm0 0"/>
 </symbol>
 <symbol id="w" overflow="visible">
  <path d="m.984375-1.875c0 .855469.160156 1.28125.484375 1.28125.132812 0 .242188-.0625.328125-.1875.09375-.125.140625-.316406.140625-.578125h.703125c0 .355469-.058594.636719-.171875.84375-.117188.210937-.261719.359375-.4375.453125-.167969.0820312-.359375.125-.578125.125-.242187 0-.449219-.05859375-.625-.171875-.167969-.125-.304687-.304687-.40625-.546875-.105469-.238281-.167969-.539062-.1875-.90625 0-.1875-.007813-.335938-.015625-.453125.019531-1.394531.421875-2.09375 1.203125-2.09375.34375 0 .601563.117187.78125.34375.1875.21875.304687.492187.359375.8125.0625.324219.09375.683594.09375 1.078125zm.015625-.53125h.890625c0-.675781-.152344-1.015625-.453125-1.015625-.136719 0-.246094.074219-.328125.21875-.074219.136719-.109375.402344-.109375.796875zm0 0"/>
 </symbol>
 <symbol id="x" overflow="visible">
  <path d="m.359375 0v-4.046875h.75l-.015625.5h.03125c.175781-.375.460938-.5625.859375-.5625v.75c-.335937 0-.5625.070313-.6875.203125-.125.136719-.1875.339844-.1875.609375v2.546875zm0 0"/>
 </symbol>
 <symbol id="y" overflow="visible"/>
 <symbol id="z" overflow="visible">
  <path d="m.484375 0v-6.03125h.765625l1.40625 4.578125.03125-.015625c-.023438-.320312-.046875-.65625-.078125-1-.023437-.351562-.042969-.65625-.0625-.90625-.023437-.25-.039063-.582031-.046875-1-.011719-.425781-.015625-.976562-.015625-1.65625h.8125v6.03125h-.75l-1.40625-4.65625-.015625.015625c.113281 1.230469.171875 2.351563.171875 3.359375 0 .167969-.007813.382812-.015625.640625v.640625zm0 0"/>
 </symbol>
 <symbol id="A" overflow="visible">
  <path d="m1.078125-3.046875c-.042969.179687-.074219.539063-.09375 1.078125.019531.480469.050781.796875.09375.953125.070313.261719.207031.402344.40625.421875.113281-.007812.210937-.070312.296875-.1875.082031-.113281.132812-.257812.15625-.4375.019531-.488281.03125-.769531.03125-.84375 0-.269531-.023438-.554688-.0625-.859375-.023438-.164063-.074219-.289063-.15625-.375-.074219-.082031-.164062-.125-.265625-.125-.1875 0-.324219.125-.40625.375zm.84375 2.53125c-.0625.1875-.164063.335937-.296875.4375-.125.09375-.265625.140625-.421875.140625-.1875 0-.359375-.06640625-.515625-.203125-.15625-.144531-.265625-.335937-.328125-.578125-.074219-.28125-.121094-.71875-.140625-1.3125.019531-.625.078125-1.085938.171875-1.390625.082031-.238281.191406-.410156.328125-.515625.132812-.113281.285156-.171875.453125-.171875.175781 0 .335937.054687.484375.15625.144531.105469.234375.226563.265625.359375h.015625l.015625-.453125h.75v4.046875h-.765625v-.515625zm0 0"/>
 </symbol>
 <symbol id="B" overflow="visible">
  <path d="m.34375 0v-4.046875h.765625v.5h.015625c.164062-.375.429688-.5625.796875-.5625.175781.011719.328125.0625.453125.15625.132812.09375.222656.230469.265625.40625h.015625c.101562-.21875.226562-.363281.375-.4375.144531-.082031.328125-.125.546875-.125.53125.03125.796875.34375.796875.9375v3.171875h-.75v-2.84375c0-.238281-.039062-.394531-.109375-.46875-.074219-.082031-.171875-.125-.296875-.125-.179688 0-.304688.054688-.375.15625-.074219.105469-.109375.273438-.109375.5v2.78125h-.75v-2.734375c0-.25-.027344-.425781-.078125-.53125-.054688-.101563-.164062-.160156-.328125-.171875-.179687 0-.304687.0625-.375.1875-.074219.125-.109375.359375-.109375.703125v2.546875zm0 0"/>
 </symbol>
 <symbol id="C" overflow="visible">
  <path d="m.5-5.1875h.75v1.140625h.40625v.59375h-.40625v3.453125h-.75v-3.453125h-.40625v-.59375h.40625zm0 0"/>
 </symbol>
 <symbol id="D" overflow="visible">
  <path d="m2.03125-.796875v.71875c-.199219.09375-.402344.140625-.609375.140625-.46875 0-.789063-.195312-.953125-.59375-.15625-.394531-.242188-.867188-.25-1.421875.007812-.375.039062-.710937.09375-1.015625.050781-.300781.164062-.5625.34375-.78125.1875-.226562.453125-.34375.796875-.34375.21875 0 .410156.042969.578125.125v.765625h-.015625c-.074219-.125-.203125-.1875-.390625-.1875-.199219 0-.34375.078125-.4375.234375-.085938.15625-.136719.320312-.15625.484375-.023438.15625-.039062.382813-.046875.671875.007813.386719.050781.710938.125.96875.082031.25.253906.386719.515625.40625.15625-.019531.289062-.078125.40625-.171875zm0 0"/>
 </symbol>
 <symbol id="E" overflow="visible">
  <path d="m.359375 0v-6.640625h.75v3.0625h.015625c.164062-.34375.4375-.515625.8125-.515625h.21875c.257812.042969.425781.179688.5.40625.070312.230469.109375.527344.109375.890625v2.796875h-.75v-2.828125c0-.226563-.042969-.382813-.125-.46875-.074219-.082031-.179687-.128906-.3125-.140625-.3125 0-.46875.242188-.46875.71875v2.71875zm0 0"/>
 </symbol>
 <symbol id="F" overflow="visible">
  <path d="m.25-2.4375c.03125-.570312.148438-.992188.359375-1.265625.21875-.269531.507813-.40625.875-.40625.394531 0 .707031.148437.9375.4375.238281.292969.359375.824219.359375 1.59375 0 .03125-.007812.078125-.015625.140625v.15625c-.03125 1.230469-.449219 1.84375-1.25 1.84375-.28125 0-.523437-.06640625-.71875-.203125-.1875-.132813-.335937-.347656-.4375-.640625-.09375-.300781-.140625-.679688-.140625-1.140625.019531-.226563.03125-.398437.03125-.515625zm.75.421875c0 .492187.03125.84375.09375 1.0625.070312.21875.207031.335937.40625.34375.019531-.007813.039062-.015625.0625-.015625.175781-.019531.296875-.144531.359375-.375.0625-.238281.09375-.582031.09375-1.03125 0-.09375-.007813-.21875-.015625-.375 0-.164062-.015625-.320312-.046875-.46875-.023437-.15625-.070313-.285156-.140625-.390625-.074219-.101563-.179688-.15625-.3125-.15625-.210938 0-.34375.125-.40625.375-.0625.242187-.101562.558594-.109375.953125.007813.023438.015625.046875.015625.078125zm0 0"/>
 </symbol>
 <symbol id="G" overflow="visible">
  <path d="m.34375-.421875c0-.125.046875-.234375.140625-.328125s.207031-.140625.34375-.140625c.125 0 .234375.046875.328125.140625s.140625.203125.140625.328125c0 .136719-.046875.25-.140625.34375-.085938.09375-.1875.140625-.3125.140625-.148438 0-.265625-.046875-.359375-.140625s-.140625-.207031-.140625-.34375zm0 0"/>
 </symbol>
 <symbol id="H" overflow="visible">
  <path d="m.359375-5.109375c.050781-.664063.335937-1 .859375-1 .320312.011719.539062.148437.65625.40625.113281.25.171875.621094.171875 1.109375 0 .40625-.074219.734375-.21875.984375-.136719.25-.367187.375-.6875.375-.292969-.03125-.5-.160156-.625-.390625-.117187-.226562-.179687-.539062-.1875-.9375.007813-.0625.015625-.148438.015625-.265625.007812-.125.015625-.21875.015625-.28125zm.5.53125c.019531.5625.125.84375.3125.84375.113281 0 .195313-.054687.25-.171875.050781-.125.078125-.335938.078125-.640625v-.34375c-.011719-.238281-.039062-.414063-.078125-.53125-.03125-.125-.105469-.191406-.21875-.203125-.136719 0-.230469.085938-.28125.25-.042969.167969-.0625.433594-.0625.796875zm1.515625 2.890625c.070312-.738281.347656-1.109375.828125-1.109375.34375 0 .570313.125.6875.375.125.25.1875.609375.1875 1.078125 0 .511719-.078125.875-.234375 1.09375-.148438.2109375-.375.3164062-.6875.328125-.242188 0-.433594-.1171875-.578125-.359375-.136719-.25-.210937-.601562-.21875-1.0625.007813-.082031.015625-.195312.015625-.34375zm.53125.265625c0 .074219-.007812.132813-.015625.171875.019531.5625.128906.84375.328125.84375.101562 0 .179688-.0625.234375-.1875.0625-.132812.09375-.375.09375-.71875 0-.019531 0-.054688 0-.109375 0-.0625 0-.109375 0-.140625-.011719-.226562-.042969-.410156-.09375-.546875-.042969-.132813-.125-.203125-.25-.203125-.117187.011719-.195313.085938-.234375.21875-.03125.125-.054688.351562-.0625.671875zm-2.453125 1.421875 3-6.03125h.5l-2.984375 6.03125zm0 0"/>
 </symbol>
 <symbol id="I" overflow="visible">
  <path d="m.484375-6.03125h1.125c.90625 0 1.457031.511719 1.65625 1.53125.09375.523438.140625 1.074219.140625 1.65625 0 .449219-.03125.859375-.09375 1.234375-.0625.367187-.167969.667969-.3125.90625-.125.210937-.289062.367187-.484375.46875-.199219.105469-.40625.171875-.625.203125-.210937.0234375-.453125.03125-.734375.03125h-.671875zm.8125.671875-.015625 4.671875c.351562 0 .628906-.082031.828125-.25.207031-.175781.335937-.429688.390625-.765625.039062-.320313.0625-.707031.0625-1.15625 0-.8125-.054688-1.382813-.15625-1.71875-.167969-.519531-.539062-.78125-1.109375-.78125zm0 0"/>
 </symbol>
 <symbol id="J" overflow="visible">
  <path d="m.34375-1.015625c.28125.199219.539062.308594.78125.328125.226562-.007812.398438-.09375.515625-.25.125-.164062.1875-.398438.1875-.703125-.023437-.238281-.101563-.445313-.234375-.625-.125-.1875-.320312-.398437-.578125-.640625-.261719-.25-.460937-.46875-.59375-.65625-.136719-.195312-.21875-.425781-.25-.6875-.011719-.070312-.015625-.179688-.015625-.328125 0-.476563.117188-.851563.359375-1.125.25-.269531.566406-.40625.953125-.40625.300781 0 .59375.070313.875.203125v.796875c-.199219-.164063-.421875-.25-.671875-.25-.210937 0-.382813.078125-.515625.234375-.136719.148438-.203125.355469-.203125.625 0 .179688.054687.339844.171875.484375.113281.148437.3125.371094.59375.671875.289062.304688.515625.574219.671875.8125.15625.242188.238281.511719.25.8125 0 .417969-.070313.761719-.203125 1.03125-.136719.273438-.3125.46875-.53125.59375-.21875.1132812-.453125.171875-.703125.171875-.355469 0-.640625-.09375-.859375-.28125zm0 0"/>
 </symbol>
 <symbol id="K" overflow="visible">
  <path d="m.484375 0v-6.03125h1.09375c.488281 0 .847656.125 1.078125.375.226562.25.347656.648438.359375 1.1875 0 .460938-.070313.824219-.203125 1.09375-.125.261719-.304688.445312-.53125.546875-.230469.105469-.507812.164063-.828125.171875-.042969-.007812-.101563-.015625-.171875-.015625v2.671875zm.796875-3.34375c.300781 0 .523438-.066406.671875-.203125.144531-.144531.21875-.390625.21875-.734375 0-.375-.070313-.644531-.203125-.8125-.136719-.175781-.367188-.265625-.6875-.265625zm0 0"/>
 </symbol>
 <symbol id="L" overflow="visible">
  <path d="m1.90625-3.1875h1.46875v.765625c0 .492187-.039062.902344-.109375 1.234375-.0625.324219-.15625.578125-.28125.765625-.117187.179687-.261719.308594-.4375.390625-.167969.0703125-.367187.109375-.59375.109375-.324219 0-.59375-.0625-.8125-.1875-.210937-.132813-.371094-.328125-.484375-.578125-.117188-.257812-.199219-.570312-.25-.9375-.042969-.375-.0625-.820312-.0625-1.34375v-.34375c0-.53125.03125-.972656.09375-1.328125.0625-.363281.15625-.648437.28125-.859375.125-.21875.285156-.375.484375-.46875.207031-.09375.457031-.140625.75-.140625.238281 0 .445313.042969.625.125.175781.085937.328125.214844.453125.390625.125.179688.226562.414062.3125.703125l-.765625.3125c-.03125-.25-.117187-.441406-.25-.578125-.136719-.144531-.289063-.21875-.453125-.21875-.125 0-.242188.046875-.34375.140625-.09375.085937-.167969.210937-.21875.375-.074219.292969-.121094.855469-.140625 1.6875.019531.835937.066406 1.433594.140625 1.796875.039062.199219.085938.351562.140625.453125.0625.09375.125.15625.1875.1875.070313.03125.164063.054687.28125.0625.4375 0 .65625-.457031.65625-1.375v-.4375h-.671875zm0 0"/>
 </symbol>
 <symbol id="M" overflow="visible">
  <path d="m.109375-4.046875h.875l.578125 1.390625c.132812-.445312.304688-.910156.515625-1.390625h.78125l-.90625 1.90625 1.109375 2.140625h-.890625c-.117187-.25-.210937-.445312-.28125-.59375-.074219-.15625-.136719-.289062-.1875-.40625-.042969-.113281-.085937-.222656-.125-.328125-.03125-.113281-.058594-.21875-.078125-.3125h-.015625c0 .105469-.023437.226563-.0625.359375-.042969.136719-.09375.273438-.15625.40625-.054687.136719-.125.304688-.21875.5-.085937.1875-.136719.3125-.15625.375h-.78125l1.015625-2.140625zm0 0"/>
 </symbol>
 <symbol id="N" overflow="visible">
  <path d="m.515625-6.03125h1.25c.394531 0 .785156.054688 1.171875.15625.394531.09375.757812.257812 1.09375.484375.332031.230469.597656.539063.796875.921875.207031.375.316406.835938.328125 1.375 0 .40625-.0625.796875-.1875 1.171875-.125.367187-.324219.695313-.59375.984375-.273438.292969-.621094.523438-1.046875.6875-.429687.1679688-.921875.25-1.484375.25h-1.328125zm.75.6875v4.65625h.453125c.570312 0 1.054688-.097656 1.453125-.296875.40625-.195313.707031-.472656.90625-.828125.207031-.351562.3125-.757812.3125-1.21875 0-.363281-.0625-.6875-.1875-.96875-.125-.289062-.308594-.535156-.546875-.734375-.230469-.195313-.515625-.347656-.859375-.453125-.34375-.101562-.730469-.15625-1.15625-.15625zm0 0"/>
 </symbol>
 <symbol id="O" overflow="visible">
  <path d="m3.296875-3.75h.71875v3.75h-.71875v-.609375c-.34375.492187-.777344.734375-1.296875.734375-.273438 0-.515625-.046875-.734375-.140625-.21875-.101563-.414063-.242187-.578125-.421875-.15625-.1875-.277344-.40625-.359375-.65625-.085937-.25-.125-.515625-.125-.796875 0-.40625.082031-.753906.25-1.046875.164063-.300781.382813-.53125.65625-.6875.28125-.15625.578125-.234375.890625-.234375.132812 0 .28125.027344.4375.078125.164062.054688.320312.136719.46875.25.15625.117188.285156.261719.390625.4375zm.03125 1.84375c0-.34375-.105469-.644531-.3125-.90625-.210937-.257812-.507813-.394531-.890625-.40625-.1875 0-.375.054688-.5625.15625-.1875.105469-.34375.257812-.46875.453125-.117188.199219-.171875.4375-.171875.71875 0 .273437.050781.515625.15625.734375.113281.210938.257813.371094.4375.484375.1875.117187.375.171875.5625.171875.363281-.007812.660156-.140625.890625-.390625.238281-.25.359375-.585937.359375-1.015625zm0 0"/>
 </symbol>
 <symbol id="P" overflow="visible">
  <path d="m.59375-3.75v-1.4375h.71875v1.4375h.71875v.671875h-.71875v3.078125h-.71875v-3.078125h-.390625v-.671875zm0 0"/>
 </symbol>
 <symbol id="Q" overflow="visible">
  <path d="m3.171875-1.25.609375.359375c-.15625.261719-.371094.496094-.640625.703125-.273437.2070312-.648437.3125-1.125.3125-.28125-.011719-.539063-.0625-.765625-.15625-.21875-.101562-.40625-.25-.5625-.4375s-.277344-.410156-.359375-.671875c-.085937-.257813-.125-.550781-.125-.875.007813-.257813.054687-.5.140625-.71875.082031-.21875.203125-.410156.359375-.578125.15625-.175781.34375-.3125.5625-.40625.226563-.09375.476563-.140625.75-.140625.40625 0 .738281.09375 1 .28125.269531.1875.460937.429687.578125.71875.125.28125.1875.574219.1875.875 0 .105469-.007812.183594-.015625.234375h-2.828125c0 .355469.101562.652344.3125.890625.21875.230469.5.351563.84375.359375.21875 0 .421875-.066406.609375-.203125.1875-.132813.34375-.316406.46875-.546875zm-.109375-1.046875c-.042969-.28125-.152344-.503906-.328125-.671875-.179687-.175781-.402344-.265625-.671875-.265625-.242188 0-.46875.074219-.6875.21875-.210938.148437-.34375.386719-.40625.71875zm0 0"/>
 </symbol>
 <symbol id="R" overflow="visible"/>
 <symbol id="S" overflow="visible">
  <path d="m1.296875-6.46875.578125.4375c-.21875.4375-.386719.96875-.5 1.59375-.117188.625-.179688 1.28125-.1875 1.96875.007812.65625.066406 1.292969.171875 1.90625.113281.6132812.285156 1.171875.515625 1.671875l-.578125.4375c-.179687-.335937-.328125-.71875-.453125-1.15625-.125-.4257812-.226562-.878906-.296875-1.359375-.0625-.476562-.101563-.972656-.109375-1.484375.007812-.75.082031-1.46875.21875-2.15625.144531-.695313.359375-1.316406.640625-1.859375zm0 0"/>
 </symbol>
 <symbol id="T" overflow="visible">
  <path d="m3.59375-6.953125.5625.265625-3.328125 7.703125-.578125-.265625zm0 0"/>
 </symbol>
 <symbol id="U" overflow="visible">
  <path d="m3.40625-1.53125 2.078125-4.765625 1.234375 6.296875h-.78125l-.703125-4.015625-1.828125 4.15625-1.8125-4.171875-.71875 4.03125h-.765625l1.234375-6.296875zm0 0"/>
 </symbol>
 <symbol id="V" overflow="visible">
  <path d="m1.046875 1.546875-.59375-.4375c.101563-.21875.195313-.46875.28125-.75.09375-.28125.164063-.570313.21875-.875.0625-.300781.101563-.613281.125-.9375.03125-.332031.046875-.664063.046875-1 0-1.394531-.226562-2.59375-.671875-3.59375l.578125-.4375c.175781.335937.328125.71875.453125 1.15625.125.429687.21875.890625.28125 1.390625.070313.492188.109375.992188.109375 1.5 0 .46875-.03125.945312-.09375 1.421875-.0625.46875-.15625.921875-.28125 1.359375s-.277344.835938-.453125 1.203125zm0 0"/>
 </symbol>
 <symbol id="W" overflow="visible">
  <path d="m1.453125-5.34375h-1.4375v-.6875h3.625v.6875h-1.4375v5.34375h-.75zm0 0"/>
 </symbol>
 <symbol id="X" overflow="visible">
  <path d="m1.1875-3.75v.46875h.015625c.03125-.0625.09375-.132812.1875-.21875.09375-.09375.207031-.175781.34375-.25.144531-.070312.300781-.109375.46875-.109375.476563.023437.835937.246094 1.078125.671875.113281-.1875.265625-.34375.453125-.46875.195313-.132812.425781-.203125.6875-.203125.425781 0 .738281.140625.9375.421875.207031.273438.3125.652344.3125 1.140625v2.296875h-.71875v-2.140625c0-.382813-.058594-.660156-.171875-.828125-.105469-.164062-.289062-.25-.546875-.25-.261719 0-.460937.105469-.59375.3125-.136719.210938-.203125.5-.203125.875v2.03125h-.71875v-2c0-.375-.054688-.671875-.15625-.890625-.09375-.21875-.292969-.328125-.59375-.328125-.523438.023438-.78125.4375-.78125 1.25v1.96875h-.71875v-3.75zm0 0"/>
 </symbol>
 <symbol id="Y" overflow="visible">
  <path d="m1.15625-3.75v.625h.03125c.0625-.113281.15625-.222656.28125-.328125.125-.113281.269531-.207031.4375-.28125.175781-.070313.363281-.113281.5625-.125.3125 0 .601562.085937.875.25.269531.15625.484375.386719.640625.6875.164063.304687.25.648437.25 1.03125 0 .34375-.070313.671875-.203125.984375-.136719.304688-.335938.554688-.59375.75-.261719.1875-.570312.28125-.921875.28125-.585937 0-1.039063-.242188-1.359375-.734375v2.75h-.71875v-5.890625zm2.375 1.875c0-.40625-.121094-.726562-.359375-.96875-.230469-.25-.523437-.375-.875-.375-.199219 0-.386719.054688-.5625.15625-.179687.105469-.324219.257812-.4375.453125-.117187.199219-.171875.4375-.171875.71875 0 .386719.101562.714844.3125.984375.21875.261719.515625.398438.890625.40625h.015625c.007812-.007812.015625-.015625.015625-.015625.238281 0 .445313-.0625.625-.1875.175781-.125.304687-.285156.390625-.484375.09375-.207031.144531-.4375.15625-.6875zm0 0"/>
 </symbol>
 <symbol id="Z" overflow="visible">
  <path d="m1.15625-.796875c.132812 0 .242188.046875.328125.140625.09375.085938.140625.195312.140625.328125 0 .125-.046875.234375-.140625.328125-.085937.0820312-.195313.125-.328125.125-.125 0-.234375-.0429688-.328125-.125-.085937-.09375-.125-.203125-.125-.328125 0-.132813.039063-.242187.125-.328125.09375-.09375.203125-.140625.328125-.140625zm0 0"/>
 </symbol>
 <symbol id="aa" overflow="visible">
  <path d="m4.96875-1.1875v.890625c-.492188.28125-1.015625.421875-1.578125.421875-.417969 0-.820313-.078125-1.203125-.234375-.375-.164063-.714844-.394531-1.015625-.6875-.292969-.289063-.523437-.632813-.6875-1.03125-.167969-.394531-.25-.816406-.25-1.265625.039063-.726562.242187-1.320312.609375-1.78125.363281-.457031.78125-.785156 1.25-.984375.476562-.195313.914062-.296875 1.3125-.296875.332031 0 .617188.03125.859375.09375.238281.0625.472656.164062.703125.296875v.875c-.46875-.394531-1.007812-.59375-1.609375-.59375-.324219 0-.632813.070313-.921875.203125-.28125.125-.53125.304688-.75.53125-.21875.230469-.390625.492188-.515625.78125-.125.28125-.1875.574219-.1875.875 0 .367188.0625.703125.1875 1.015625.125.304687.296875.570313.515625.796875.226562.230469.484375.40625.765625.53125.289063.125.59375.1875.90625.1875.582031 0 1.117187-.207031 1.609375-.625zm0 0"/>
 </symbol>
 <symbol id="ab" overflow="visible">
  <path d="m.515625-6.03125h.75v2.421875h2.875v-2.421875h.75v6.03125h-.75v-2.90625h-2.875v2.90625h-.75zm0 0"/>
 </symbol>
 <symbol id="ac" overflow="visible">
  <path d="m3.6875-3.046875h2.390625v.265625c0 .429688-.074219.824219-.21875 1.1875-.148437.355469-.355469.664062-.625.921875-.261719.261719-.5625.464844-.90625.609375-.34375.1328125-.703125.203125-1.078125.203125-.09375 0-.167969-.007813-.21875-.015625-.492188-.0429688-.917969-.1640625-1.28125-.375-.367188-.21875-.667969-.484375-.90625-.796875-.230469-.320313-.402344-.65625-.515625-1-.117187-.351563-.171875-.6875-.171875-1 .050781-.570313.1875-1.054687.40625-1.453125.21875-.40625.484375-.726562.796875-.96875.3125-.25.628906-.425781.953125-.53125.332031-.101562.632812-.15625.90625-.15625.476562 0 .921875.078125 1.328125.234375.414063.15625.820313.464844 1.21875.921875l-.546875.515625c-.21875-.289063-.480469-.519531-.78125-.6875-.304688-.175781-.695312-.273437-1.171875-.296875-.367187 0-.730469.101562-1.09375.296875-.367187.199219-.667969.480469-.90625.84375-.242187.367187-.359375.777344-.359375 1.234375.007812.011719.015625.027344.015625.046875.007813.46875.125.898437.34375 1.28125.226563.375.515625.667969.859375.875.351562.210937.703125.320313 1.046875.328125.34375 0 .671875-.078125.984375-.234375.320312-.15625.582031-.367187.78125-.640625.195312-.28125.304688-.585938.328125-.921875h-1.578125zm0 0"/>
 </symbol>
 <symbol id="ad" overflow="visible">
  <path d="m1.265625-3.75v.640625c.113281-.25.257813-.4375.4375-.5625.1875-.125.382813-.1875.59375-.1875.238281 0 .441406.058594.609375.171875l-.328125.671875c-.125-.09375-.289063-.140625-.484375-.140625-.304688 0-.515625.125-.640625.375s-.1875.542969-.1875.875v1.90625h-.71875v-3.75zm0 0"/>
 </symbol>
 <symbol id="ae" overflow="visible">
  <path d="m2.859375-3.75h.8125l-1.890625 3.875-1.890625-3.875h.8125l1.078125 2.34375zm0 0"/>
 </symbol>
 <symbol id="af" overflow="visible">
  <path d="m1.015625-5.96875c.132813 0 .25.054688.34375.15625.101563.105469.15625.226562.15625.359375-.011719.136719-.070313.25-.171875.34375-.09375.09375-.210938.140625-.34375.140625-.148438 0-.265625-.050781-.359375-.15625-.085937-.101562-.125-.222656-.125-.359375.007813-.125.0625-.234375.15625-.328125.09375-.101562.207031-.15625.34375-.15625zm-.359375 2.21875h.71875v3.75h-.71875zm0 0"/>
 </symbol>
 <symbol id="ag" overflow="visible">
  <path d="m1.609375-.640625-1.71875-3.109375h.84375l1.265625 2.390625 1.171875-2.390625h.8125l-3.03125 5.890625h-.8125zm0 0"/>
 </symbol>
 <symbol id="ah" overflow="visible">
  <path d="m3.265625-4.890625c-.230469-.382813-.558594-.578125-.984375-.578125-.1875 0-.359375.042969-.515625.125-.15625.085938-.277344.195312-.359375.328125-.085938.125-.125.25-.125.375 0 .34375.195312.609375.59375.796875.175781.074219.398438.167969.671875.28125.28125.105469.546875.246094.796875.421875.257812.179687.441406.386719.546875.625.101563.261719.15625.523437.15625.78125 0 .261719-.054687.5-.15625.71875-.09375.21875-.230469.417969-.40625.59375-.179687.167969-.382813.296875-.609375.390625-.230469.09375-.476562.144531-.734375.15625-.3125 0-.605469-.0703125-.875-.203125-.273437-.132813-.5-.332031-.6875-.59375-.179687-.257813-.28125-.554687-.3125-.890625l.75-.15625c.007813.25.070313.464844.1875.640625.113281.167969.257813.292969.4375.375.175781.085937.359375.125.546875.125.269531 0 .507812-.085937.71875-.265625.207031-.175781.332031-.421875.375-.734375.007812-.101563.015625-.171875.015625-.203125 0-.3125-.109375-.550781-.328125-.71875-.210938-.164062-.507812-.320312-.890625-.46875-.335937-.144531-.605469-.28125-.8125-.40625-.210937-.125-.386719-.289062-.53125-.5-.136719-.207031-.203125-.46875-.203125-.78125 0-.175781.035156-.351562.109375-.53125.082031-.175781.203125-.335938.359375-.484375.15625-.15625.34375-.273437.5625-.359375.226562-.09375.476562-.140625.75-.140625.332031 0 .628906.078125.890625.234375.257813.15625.476563.386719.65625.6875zm0 0"/>
 </symbol>
 <symbol id="ai" overflow="visible">
  <path d="m.5-6.328125 4.53125 4.765625v-4.46875h.765625v6.28125l-4.546875-4.75v4.5h-.75zm0 0"/>
 </symbol>
 <symbol id="aj" overflow="visible">
  <path d="m2.15625-3.171875c-.230469 0-.445312.0625-.640625.1875-.199219.117187-.355469.277344-.46875.484375-.117187.199219-.171875.414062-.171875.640625 0 .230469.054688.449219.171875.65625.113281.199219.269531.355469.46875.46875.195313.117187.410156.171875.640625.171875.226562 0 .441406-.054688.640625-.171875.195313-.113281.351563-.269531.46875-.46875.113281-.207031.171875-.425781.171875-.65625 0-.226563-.058594-.441406-.171875-.640625-.117187-.207031-.273437-.367188-.46875-.484375-.199219-.125-.414063-.1875-.640625-.1875zm0-.6875c.363281 0 .695312.089844 1 .265625.3125.179688.554688.421875.734375.734375.175781.304687.265625.636719.265625 1 0 .355469-.089844.6875-.265625 1-.179687.304687-.421875.542969-.734375.71875-.304688.1757812-.636719.265625-1 .265625-.355469 0-.6875-.0898438-1-.265625-.304688-.175781-.546875-.414063-.734375-.71875-.179687-.3125-.265625-.644531-.265625-1 0-.363281.085938-.695313.265625-1 .1875-.3125.429687-.554687.734375-.734375.3125-.175781.644531-.265625 1-.265625zm0 0"/>
 </symbol>
 <symbol id="ak" overflow="visible">
  <path d="m2-2.890625c-.105469-.21875-.265625-.328125-.484375-.328125-.117187 0-.210937.039062-.28125.109375-.074219.074219-.109375.167969-.109375.28125.007812.148437.125.277344.34375.390625.21875.105469.425781.203125.625.296875.207031.09375.382812.226563.53125.390625.15625.15625.238281.382812.25.671875 0 .199219-.058594.390625-.171875.578125-.105469.1875-.257813.339844-.453125.453125-.1875.1132812-.390625.171875-.609375.171875-.375 0-.679687-.0859375-.90625-.25-.21875-.164062-.371094-.359375-.453125-.578125l.625-.296875c.0625.148438.15625.265625.28125.359375.125.085937.253906.132813.390625.140625.132813-.007812.253906-.050781.359375-.125.101562-.082031.171875-.191406.203125-.328125 0-.101563-.027344-.195313-.078125-.28125-.054688-.082031-.121094-.15625-.203125-.21875-.085937-.0625-.179687-.117187-.28125-.171875-.105469-.050781-.199219-.097656-.28125-.140625-.304687-.15625-.523437-.3125-.65625-.46875-.125-.164063-.1875-.347656-.1875-.546875.007813-.175781.054687-.347656.140625-.515625.09375-.164063.222656-.300781.390625-.40625.164063-.101563.359375-.15625.578125-.15625.445312 0 .789062.21875 1.03125.65625zm0 0"/>
 </symbol>
 <symbol id="al" overflow="visible">
  <path d="m2.8125-6.296875 2.890625 6.296875h-.8125l-.6875-1.515625h-2.765625l-.6875 1.515625h-.8125zm0 1.65625-1.0625 2.4375h2.140625zm0 0"/>
 </symbol>
 <symbol id="am" overflow="visible">
  <path d="m3.25-1.03125v.921875c-.304688.1445312-.640625.21875-1.015625.21875-.367187 0-.703125-.0859375-1.015625-.25-.3125-.164063-.5625-.394531-.75-.6875-.179688-.289063-.265625-.625-.265625-1s.085937-.710937.265625-1.015625c.1875-.3125.4375-.554688.75-.734375.3125-.175781.648438-.265625 1.015625-.265625.382813 0 .722656.078125 1.015625.234375v.9375c-.28125-.34375-.652344-.515625-1.109375-.515625-.367187.023438-.65625.164062-.875.421875-.21875.261719-.335937.546875-.34375.859375 0 .230469.046875.449219.140625.65625.09375.199219.234375.367188.421875.5.195313.125.425781.195312.6875.203125.195313 0 .375-.03125.53125-.09375.164063-.0625.347656-.191406.546875-.390625zm0 0"/>
 </symbol>
 <symbol id="an" overflow="visible">
  <path d="m1.3125-.953125.625.25-1.0625 2.140625-.4375-.1875zm0 0"/>
 </symbol>
 <symbol id="ao" overflow="visible">
  <path d="m.5-3.75h.71875v.53125c.144531-.21875.304688-.378906.484375-.484375.1875-.101563.410156-.15625.671875-.15625.46875 0 .800781.136719 1 .40625.207031.273437.3125.671875.3125 1.203125v2.25h-.71875v-2.265625c0-.363281-.070312-.613281-.203125-.75-.125-.132813-.335937-.203125-.625-.203125-.324219.011719-.558594.117188-.703125.3125-.148438.1875-.21875.476562-.21875.859375v2.046875h-.71875zm0 0"/>
 </symbol>
 <symbol id="ap" overflow="visible">
  <path d="m.640625-3.078125h-.328125v-.671875h.328125v-1.859375c0-.519531.125-.90625.375-1.15625.082031-.082031.195313-.148437.34375-.203125.144531-.050781.300781-.078125.46875-.078125.195313 0 .375.03125.53125.09375v.734375c-.1875-.101562-.355469-.15625-.5-.15625-.335937 0-.5.304688-.5.90625v1.71875h1v.671875h-1v3.078125h-.71875zm0 0"/>
 </symbol>
 <symbol id="aq" overflow="visible">
  <path d="m3.296875-6.953125h.71875v6.953125h-.71875v-.609375c-.179687.273437-.386719.464844-.625.578125-.230469.1015625-.449219.15625-.65625.15625-.304687 0-.574219-.0585938-.8125-.171875-.230469-.125-.417969-.285156-.5625-.484375-.148437-.195312-.257813-.410156-.328125-.640625-.074219-.226563-.109375-.453125-.109375-.671875 0-.425781.082031-.789062.25-1.09375.175781-.3125.398437-.539062.671875-.6875.269531-.15625.554688-.234375.859375-.234375.238281 0 .484375.070313.734375.203125.257812.136719.453125.324219.578125.5625zm.03125 5.09375c0-.257813-.054687-.492187-.15625-.703125-.09375-.207031-.234375-.367188-.421875-.484375-.1875-.113281-.40625-.171875-.65625-.171875-.25.011719-.46875.085938-.65625.21875-.179688.136719-.308594.308594-.390625.515625-.085937.210937-.125.421875-.125.640625 0 .179688.035156.371094.109375.578125.070312.199219.191406.375.359375.53125.175781.148437.40625.21875.6875.21875s.515625-.0625.703125-.1875c.1875-.132813.320312-.300781.40625-.5.09375-.207031.140625-.425781.140625-.65625zm0 0"/>
 </symbol>
 <symbol id="ar" overflow="visible">
  <path d="m.4375 0v-6.953125h.71875v3.859375c.320312-.488281.753906-.742188 1.296875-.765625.289063 0 .570313.074219.84375.21875.269531.148437.492187.367187.671875.65625.175781.292969.269531.640625.28125 1.046875 0 .367188-.058594.683594-.171875.953125-.105469.261719-.246094.476563-.421875.640625-.179688.15625-.371094.2734375-.578125.34375-.199219.0820312-.386719.125-.5625.125-.355469 0-.625-.0625-.8125-.1875-.179687-.125-.359375-.304688-.546875-.546875v.609375zm3.09375-1.90625c0-.21875-.046875-.425781-.140625-.625-.09375-.195312-.234375-.359375-.421875-.484375-.179688-.125-.398438-.191406-.65625-.203125-.210938 0-.40625.058594-.59375.171875-.179688.105469-.324219.257813-.4375.453125-.105469.199219-.15625.433594-.15625.703125 0 .199219.035156.402344.109375.609375.082031.210938.210937.390625.390625.546875.1875.148437.421875.21875.703125.21875.21875 0 .414063-.050781.59375-.15625.1875-.101563.332031-.257813.4375-.46875.113281-.207031.171875-.460937.171875-.765625zm0 0"/>
 </symbol>
 <symbol id="as" overflow="visible">
  <path d="m3.28125-3.078125v-.671875h.71875v3.75c0 .59375-.09375 1.046875-.28125 1.359375-.1875.320313-.414062.53125-.671875.625-.261719.101563-.542969.15625-.84375.15625-.367187 0-.6875-.074219-.96875-.21875-.273437-.136719-.484375-.335937-.640625-.59375-.148438-.25-.21875-.542969-.21875-.875h.71875c0 .257813.078125.5.234375.71875s.46875.328125.9375.328125c.332031 0 .582031-.105469.75-.3125.175781-.210938.265625-.515625.265625-.921875v-.875c-.054688.085937-.109375.167969-.171875.25-.054687.074219-.125.152344-.21875.234375-.085937.0742188-.203125.12890625-.359375.171875-.15625.0507812-.351562.078125-.578125.078125-.335937 0-.636719-.0859375-.90625-.25-.261719-.175781-.46875-.421875-.625-.734375-.148437-.320313-.21875-.6875-.21875-1.09375 0-.21875.035156-.4375.109375-.65625.070312-.226563.179688-.4375.328125-.625.15625-.1875.34375-.332031.5625-.4375.21875-.113281.460937-.175781.734375-.1875.257812 0 .503906.0625.734375.1875.238281.125.441406.324219.609375.59375zm.046875 1.171875c0-.289062-.0625-.535156-.1875-.734375-.125-.195313-.28125-.34375-.46875-.4375-.179687-.09375-.355469-.140625-.53125-.140625-.25 0-.46875.0625-.65625.1875-.179687.117188-.3125.273438-.40625.46875-.09375.199219-.148437.414062-.15625.640625 0 .242187.039063.46875.125.6875.09375.210937.226563.382813.40625.515625.175781.136719.390625.203125.640625.203125.238281 0 .453125-.054687.640625-.171875.1875-.113281.332031-.273438.4375-.484375.101563-.207031.15625-.453125.15625-.734375zm0 0"/>
 </symbol>
 <symbol id="at" overflow="visible">
  <path d="m2.921875-3.75h.71875v2.15625c0 .3125-.054687.605469-.15625.875-.105469.261719-.277344.480469-.515625.65625-.230469.164062-.527344.25-.890625.25-.292969 0-.5625-.070312-.8125-.203125-.242187-.144531-.433594-.347656-.578125-.609375-.148438-.257812-.21875-.5625-.21875-.90625v-2.21875h.71875v2.125c0 .28125.070312.542969.21875.78125.144531.230469.367188.34375.671875.34375.289063 0 .503906-.097656.640625-.296875.132812-.207031.203125-.484375.203125-.828125zm0 0"/>
 </symbol>
 <symbol id="au" overflow="visible">
  <path d="m.53125-6.953125h.71875v6.953125h-.71875zm0 0"/>
 </symbol>
 <symbol id="av" overflow="visible">
  <path d="m2-5.4375c-.210938 0-.386719.074219-.53125.21875-.136719.148438-.203125.324219-.203125.53125 0 .210938.066406.386719.203125.53125.144531.136719.320312.203125.53125.203125.207031 0 .382812-.066406.53125-.203125.144531-.144531.21875-.320312.21875-.53125 0-.207031-.074219-.382812-.21875-.53125-.148438-.144531-.324219-.21875-.53125-.21875zm0-.5c.164062 0 .328125.03125.484375.09375s.285156.15625.390625.28125c.125.117188.210938.246094.265625.390625.0625.148437.09375.308594.09375.484375 0 .34375-.121094.636719-.359375.875-.242188.242188-.53125.359375-.875.359375-.355469 0-.652344-.113281-.890625-.34375-.230469-.238281-.34375-.535156-.34375-.890625 0-.351562.117187-.648438.359375-.890625.238281-.238281.53125-.359375.875-.359375zm0 0"/>
 </symbol>
 <rect fill="#fff" height="100%" width="100%"/>
 <g fill="none" stroke="#000" stroke-linejoin="round" stroke-miterlimit="10" transform="matrix(1 0 0 -1 0 792)">
  <g stroke-width="2">
   <path d="m53 755h542"/>
   <path d="m53 738.199219h542"/>
   <path d="m53 713.699219h542"/>
   <path d="m54 756v-43.300781"/>
  </g>
  <path d="m508.300781 739.199219v-26.5" stroke-width=".75"/>
  <path d="m594 756v-43.300781" stroke-width="2"/>
 </g>
 <use x="56.9" xlink:href="#a" y="49"/>
 <use x="60.89" xlink:href="#b" y="49"/>
 <use x="64.187" xlink:href="#b" y="49"/>
 <use x="67.484" xlink:href="#c" y="49"/>
 <use x="71.278" xlink:href="#d" y="49"/>
 <use x="73.266" xlink:href="#e" y="49"/>
 <use x="74.96" xlink:href="#f" y="49"/>
 <use x="79.055" xlink:href="#g" y="49"/>
 <use x="82.352" xlink:href="#h" y="49"/>
 <use x="478.3" xlink:href="#v" y="64.3"/>
 <use x="481.596" xlink:href="#w" y="64.3"/>
 <use x="484.492" xlink:href="#w" y="64.3"/>
 <use x="487.388" xlink:href="#x" y="64.3"/>
 <use x="489.58" xlink:href="#y" y="64.3"/>
 <use x="491.276" xlink:href="#z" y="64.3"/>
 <use x="495.068" xlink:href="#A" y="64.3"/>
 <use x="498.068" xlink:href="#B" y="64.3"/>
 <use x="502.764" xlink:href="#w" y="64.3"/>
 <use x="577.9" xlink:href="#v" y="64.3"/>
 <use x="581.292" xlink:href="#A" y="64.3"/>
 <use x="584.292" xlink:href="#C" y="64.3"/>
 <use x="586.084" xlink:href="#D" y="64.3"/>
 <use x="588.284" xlink:href="#E" y="64.3"/>
 <use x="583" xlink:href="#z" y="72.8"/>
 <use x="586.792" xlink:href="#F" y="72.8"/>
 <use x="589.792" xlink:href="#G" y="72.8"/>
 <g fill="none" stroke="#000" stroke-linejoin="round" stroke-miterlimit="10" transform="matrix(1 0 0 -1 0 792)">
  <g stroke-width="2">
   <path d="m53 703.800781h542"/>
   <path d="m53 687h542"/>
   <path d="m53 670.300781h542"/>
  </g>
  <g stroke-width=".75">
   <path d="m53 647.5h542"/>
   <path d="m53 625.300781h542"/>
   <path d="m53 603.199219h542"/>
   <path d="m53 581h542"/>
   <path d="m53 558.898438h542"/>
   <path d="m53 536.699219h542"/>
   <path d="m53 514.601562h542"/>
   <path d="m53 492.398438h542"/>
   <path d="m53 470.300781h542"/>
   <path d="m53 448.101562h542"/>
   <path d="m53 426h542"/>
   <path d="m53 403.800781h542"/>
   <path d="m53 381.699219h542"/>
   <path d="m53 359.5h542"/>
   <path d="m53 337.398438h542"/>
   <path d="m53 315.199219h542"/>
   <path d="m53 293.101562h542"/>
   <path d="m53 270.898438h542"/>
   <path d="m53 248.800781h542"/>
   <path d="m53 226.601562h542"/>
   <path d="m53 204.5h542"/>
   <path d="m53 182.300781h542"/>
   <path d="m53 160.199219h542"/>
   <path d="m53 138h542"/>
  </g>
  <path d="m53 115.300781h542" stroke-width="2"/>
  <path d="m54 704.800781v-590.5" stroke-width="2"/>
  <g stroke-width=".75">
   <path d="m116.898438 688v-573.699219"/>
   <path d="m161.898438 688v-573.699219"/>
   <path d="m215.800781 688v-573.699219"/>
   <path d="m265.601562 688v-573.699219"/>
  </g>
  <path d="m594 704.800781v-590.5" stroke-width="2"/>
 </g>
 <use x="56.9" xlink:href="#i" y="100.2"/>
 <use x="60.197" xlink:href="#b" y="100.2"/>
 <use x="63.494" xlink:href="#c" y="100.2"/>
 <use x="67.484" xlink:href="#j" y="100.2"/>
 <use x="72.678" xlink:href="#b" y="100.2"/>
 <use x="75.975" xlink:href="#f" y="100.2"/>
 <use x="79.965" xlink:href="#k" y="100.2"/>
 <use x="82.765" xlink:href="#l" y="100.2"/>
 <use x="86.062" xlink:href="#k" y="100.2"/>
 <use x="89.856" xlink:href="#m" y="100.2"/>
 <use x="91.55" xlink:href="#h" y="100.2"/>
 <use x="95.344" xlink:href="#f" y="100.2"/>
 <use x="56.9" xlink:href="#N" y="115.8"/>
 <use x="62.196" xlink:href="#O" y="115.8"/>
 <use x="66.692" xlink:href="#P" y="115.8"/>
 <use x="68.588" xlink:href="#Q" y="115.8"/>
 <use x="72.484" xlink:href="#R" y="115.8"/>
 <use x="74.78" xlink:href="#S" y="115.8"/>
 <use x="77.076" xlink:href="#N" y="115.8"/>
 <use x="82.372" xlink:href="#N" y="115.8"/>
 <use x="87.668" xlink:href="#T" y="115.8"/>
 <use x="92.068" xlink:href="#U" y="115.8"/>
 <use x="98.964" xlink:href="#U" y="115.8"/>
 <use x="105.764" xlink:href="#V" y="115.8"/>
 <use x="119.8" xlink:href="#W" y="115.8"/>
 <use x="123.4" xlink:href="#Q" y="115.8"/>
 <use x="127.296" xlink:href="#X" y="115.8"/>
 <use x="133.392" xlink:href="#Y" y="115.8"/>
 <use x="137.888" xlink:href="#Z" y="115.8"/>
 <use x="140.184" xlink:href="#R" y="115.8"/>
 <use x="142.576" xlink:href="#S" y="115.8"/>
 <use x="148.872" xlink:href="#aa" y="115.8"/>
 <use x="154.168" xlink:href="#V" y="115.8"/>
 <use x="144.9" xlink:href="#av" y="115.8"/>
 <use x="164.8" xlink:href="#Y" y="115.8"/>
 <use x="169.2" xlink:href="#ab" y="115.8"/>
 <use x="218.6" xlink:href="#ac" y="115.8"/>
 <use x="224.8" xlink:href="#ad" y="115.8"/>
 <use x="227.6" xlink:href="#O" y="115.8"/>
 <use x="232.096" xlink:href="#ae" y="115.8"/>
 <use x="235.688" xlink:href="#af" y="115.8"/>
 <use x="237.688" xlink:href="#P" y="115.8"/>
 <use x="239.584" xlink:href="#ag" y="115.8"/>
 <use x="243.48" xlink:href="#R" y="115.8"/>
 <use x="245.776" xlink:href="#S" y="115.8"/>
 <use x="248.072" xlink:href="#ah" y="115.8"/>
 <use x="252.464" xlink:href="#ac" y="115.8"/>
 <use x="258.664" xlink:href="#V" y="115.8"/>
 <use x="268.4" xlink:href="#ai" y="115.8"/>
 <use x="274.696" xlink:href="#aj" y="115.8"/>
 <use x="278.992" xlink:href="#P" y="115.8"/>
 <use x="280.888" xlink:href="#Q" y="115.8"/>
 <use x="284.784" xlink:href="#ak" y="115.8"/>
 <use x="287.88" xlink:href="#R" y="115.8"/>
 <use x="290.272" xlink:href="#S" y="115.8"/>
 <use x="292.568" xlink:href="#al" y="115.8"/>
 <use x="298.168" xlink:href="#am" y="115.8"/>
 <use x="301.664" xlink:href="#P" y="115.8"/>
 <use x="303.56" xlink:href="#af" y="115.8"/>
 <use x="305.56" xlink:href="#ae" y="115.8"/>
 <use x="309.152" xlink:href="#af" y="115.8"/>
 <use x="311.248" xlink:href="#P" y="115.8"/>
 <use x="313.144" xlink:href="#ag" y="115.8"/>
 <use x="317.04" xlink:href="#an" y="115.8"/>
 <use x="319.336" xlink:href="#R" y="115.8"/>
 <use x="321.632" xlink:href="#W" y="115.8"/>
 <use x="325.232" xlink:href="#ad" y="115.8"/>
 <use x="328.032" xlink:href="#O" y="115.8"/>
 <use x="332.528" xlink:href="#ao" y="115.8"/>
 <use x="336.72" xlink:href="#ak" y="115.8"/>
 <use x="339.816" xlink:href="#ap" y="115.8"/>
 <use x="342.008" xlink:href="#Q" y="115.8"/>
 <use x="345.904" xlink:href="#ad" y="115.8"/>
 <use x="348.704" xlink:href="#ak" y="115.8"/>
 <use x="351.8" xlink:href="#an" y="115.8"/>
 <use x="354.096" xlink:href="#R" y="115.8"/>
 <use x="356.392" xlink:href="#al" y="115.8"/>
 <use x="361.992" xlink:href="#aq" y="115.8"/>
 <use x="366.488" xlink:href="#aq" y="115.8"/>
 <use x="370.984" xlink:href="#af" y="115.8"/>
 <use x="372.984" xlink:href="#P" y="115.8"/>
 <use x="374.88" xlink:href="#af" y="115.8"/>
 <use x="376.88" xlink:href="#aj" y="115.8"/>
 <use x="381.176" xlink:href="#ao" y="115.8"/>
 <use x="385.368" xlink:href="#ak" y="115.8"/>
 <use x="388.464" xlink:href="#an" y="115.8"/>
 <use x="390.856" xlink:href="#R" y="115.8"/>
 <use x="393.152" xlink:href="#aa" y="115.8"/>
 <use x="398.352" xlink:href="#O" y="115.8"/>
 <use x="402.848" xlink:href="#ad" y="115.8"/>
 <use x="405.648" xlink:href="#ar" y="115.8"/>
 <use x="410.144" xlink:href="#aj" y="115.8"/>
 <use x="414.44" xlink:href="#ao" y="115.8"/>
 <use x="418.632" xlink:href="#O" y="115.8"/>
 <use x="423.128" xlink:href="#P" y="115.8"/>
 <use x="425.024" xlink:href="#af" y="115.8"/>
 <use x="427.024" xlink:href="#aj" y="115.8"/>
 <use x="431.32" xlink:href="#ao" y="115.8"/>
 <use x="435.512" xlink:href="#an" y="115.8"/>
 <use x="437.808" xlink:href="#R" y="115.8"/>
 <use x="440.104" xlink:href="#Q" y="115.8"/>
 <use x="444" xlink:href="#P" y="115.8"/>
 <use x="445.896" xlink:href="#am" y="115.8"/>
 <use x="449.488" xlink:href="#Z" y="115.8"/>
 <use x="451.784" xlink:href="#V" y="115.8"/>
 <g fill="none" stroke="#000" stroke-linejoin="round" stroke-miterlimit="10" transform="matrix(1 0 0 -1 0 792)">
  <path d="m53 105.300781h542" stroke-width="2"/>
  <path d="m53 88.601562h542" stroke-width="2"/>
  <g stroke-width=".75">
   <path d="m53 64.699219h.5"/>
   <path d="m54.5 64.699219h.5"/>
   <path d="m56 64.699219h.5"/>
   <path d="m57.5 64.699219h.5"/>
   <path d="m59 64.699219h.5"/>
   <path d="m60.5 64.699219h.5"/>
   <path d="m62 64.699219h.5"/>
   <path d="m63.5 64.699219h.5"/>
   <path d="m65 64.699219h.5"/>
   <path d="m66.5 64.699219h.5"/>
   <path d="m68 64.699219h.5"/>
   <path d="m69.5 64.699219h.5"/>
   <path d="m71 64.699219h.5"/>
   <path d="m72.5 64.699219h.5"/>
   <path d="m74 64.699219h.5"/>
   <path d="m75.5 64.699219h.5"/>
   <path d="m77 64.699219h.5"/>
   <path d="m78.5 64.699219h.5"/>
   <path d="m80 64.699219h.5"/>
   <path d="m81.5 64.699219h.5"/>
   <path d="m83 64.699219h.5"/>
   <path d="m84.5 64.699219h.5"/>
   <path d="m86 64.699219h.5"/>
   <path d="m87.5 64.699219h.5"/>
   <path d="m89 64.699219h.5"/>
   <path d="m90.5 64.699219h.5"/>
   <path d="m92 64.699219h.5"/>
   <path d="m93.5 64.699219h.5"/>
   <path d="m95 64.699219h.5"/>
   <path d="m96.5 64.699219h.5"/>
   <path d="m98 64.699219h.5"/>
   <path d="m99.5 64.699219h.5"/>
   <path d="m101 64.699219h.5"/>
   <path d="m102.5 64.699219h.5"/>
   <path d="m104 64.699219h.5"/>
   <path d="m105.5 64.699219h.5"/>
   <path d="m107 64.699219h.5"/>
   <path d="m108.5 64.699219h.5"/>
   <path d="m110 64.699219h.5"/>
   <path d="m111.5 64.699219h.5"/>
   <path d="m113 64.699219h.5"/>
   <path d="m114.5 64.699219h.5"/>
   <path d="m116 64.699219h.5"/>
   <path d="m117.5 64.699219h.5"/>
   <path d="m119 64.699219h.5"/>
   <path d="m120.5 64.699219h.5"/>
   <path d="m122 64.699219h.5"/>
   <path d="m123.5 64.699219h.5"/>
   <path d="m125 64.699219h.5"/>
   <path d="m126.5 64.699219h.5"/>
   <path d="m128 64.699219h.5"/>
   <path d="m129.5 64.699219h.5"/>
   <path d="m131 64.699219h.5"/>
   <path d="m132.5 64.699219h.5"/>
   <path d="m134 64.699219h.5"/>
   <path d="m135.5 64.699219h.5"/>
   <path d="m137 64.699219h.5"/>
   <path d="m138.5 64.699219h.5"/>
   <path d="m140 64.699219h.5"/>
   <path d="m141.5 64.699219h.5"/>
   <path d="m143 64.699219h.5"/>
   <path d="m144.5 64.699219h.5"/>
   <path d="m146 64.699219h.5"/>
   <path d="m147.5 64.699219h.5"/>
   <path d="m149 64.699219h.5"/>
   <path d="m150.5 64.699219h.5"/>
   <path d="m152 64.699219h.5"/>
   <path d="m153.5 64.699219h.5"/>
   <path d="m155 64.699219h.5"/>
   <path d="m156.5 64.699219h.5"/>
   <path d="m158 64.699219h.5"/>
   <path d="m159.5 64.699219h.5"/>
   <path d="m161 64.699219h.5"/>
   <path d="m162.5 64.699219h.5"/>
   <path d="m164 64.699219h.5"/>
   <path d="m165.5 64.699219h.5"/>
   <path d="m167 64.699219h.5"/>
   <path d="m168.5 64.699219h.5"/>
   <path d="m170 64.699219h.5"/>
   <path d="m171.5 64.699219h.5"/>
   <path d="m173 64.699219h.5"/>
   <path d="m174.5 64.699219h.5"/>
   <path d="m176 64.699219h.5"/>
   <path d="m177.5 64.699219h.5"/>
   <path d="m179 64.699219h.5"/>
   <path d="m180.5 64.699219h.5"/>
   <path d="m182 64.699219h.5"/>
   <path d="m183.5 64.699219h.5"/>
   <path d="m185 64.699219h.5"/>
   <path d="m186.5 64.699219h.5"/>
   <path d="m188 64.699219h.5"/>
   <path d="m189.5 64.699219h.5"/>
   <path d="m191 64.699219h.5"/>
   <path d="m192.5 64.699219h.5"/>
   <path d="m194 64.699219h.5"/>
   <path d="m195.5 64.699219h.5"/>
   <path d="m197 64.699219h.5"/>
   <path d="m198.5 64.699219h.5"/>
   <path d="m200 64.699219h.5"/>
   <path d="m201.5 64.699219h.5"/>
   <path d="m203 64.699219h.5"/>
   <path d="m204.5 64.699219h.5"/>
   <path d="m206 64.699219h.5"/>
   <path d="m207.5 64.699219h.5"/>
   <path d="m209 64.699219h.5"/>
   <path d="m210.5 64.699219h.5"/>
   <path d="m212 64.699219h.5"/>
   <path d="m213.5 64.699219h.5"/>
   <path d="m215 64.699219h.5"/>
   <path d="m216.5 64.699219h.5"/>
   <path d="m218 64.699219h.5"/>
   <path d="m219.5 64.699219h.5"/>
   <path d="m221 64.699219h.5"/>
   <path d="m222.5 64.699219h.5"/>
   <path d="m224 64.699219h.5"/>
   <path d="m225.5 64.699219h.5"/>
   <path d="m227 64.699219h.5"/>
   <path d="m228.5 64.699219h.5"/>
   <path d="m230 64.699219h.5"/>
   <path d="m231.5 64.699219h.5"/>
   <path d="m233 64.699219h.5"/>
   <path d="m234.5 64.699219h.5"/>
   <path d="m236 64.699219h.5"/>
   <path d="m237.5 64.699219h.5"/>
   <path d="m239 64.699219h.5"/>
   <path d="m240.5 64.699219h.5"/>
   <path d="m242 64.699219h.5"/>
   <path d="m243.5 64.699219h.5"/>
   <path d="m245 64.699219h.5"/>
   <path d="m246.5 64.699219h.5"/>
   <path d="m248 64.699219h.5"/>
   <path d="m249.5 64.699219h.5"/>
   <path d="m251 64.699219h.5"/>
   <path d="m252.5 64.699219h.5"/>
   <path d="m254 64.699219h.5"/>
   <path d="m255.5 64.699219h.5"/>
   <path d="m257 64.699219h.5"/>
   <path d="m258.5 64.699219h.5"/>
   <path d="m260 64.699219h.5"/>
   <path d="m261.5 64.699219h.5"/>
   <path d="m263 64.699219h.5"/>
   <path d="m264.5 64.699219h.5"/>
   <path d="m266 64.699219h.5"/>
   <path d="m267.5 64.699219h.5"/>
   <path d="m269 64.699219h.5"/>
   <path d="m270.5 64.699219h.5"/>
   <path d="m272 64.699219h.5"/>
   <path d="m273.5 64.699219h.5"/>
   <path d="m275 64.699219h.5"/>
   <path d="m276.5 64.699219h.5"/>
   <path d="m278 64.699219h.5"/>
   <path d="m279.5 64.699219h.5"/>
   <path d="m281 64.699219h.5"/>
   <path d="m282.5 64.699219h.5"/>
   <path d="m284 64.699219h.5"/>
   <path d="m285.5 64.699219h.5"/>
   <path d="m287 64.699219h.5"/>
   <path d="m288.5 64.699219h.5"/>
   <path d="m290 64.699219h.5"/>
   <path d="m291.5 64.699219h.5"/>
   <path d="m293 64.699219h.5"/>
   <path d="m294.5 64.699219h.5"/>
   <path d="m296 64.699219h.5"/>
   <path d="m297.5 64.699219h.5"/>
   <path d="m299 64.699219h.5"/>
   <path d="m300.5 64.699219h.5"/>
   <path d="m302 64.699219h.5"/>
   <path d="m303.5 64.699219h.5"/>
   <path d="m305 64.699219h.5"/>
   <path d="m306.5 64.699219h.5"/>
   <path d="m308 64.699219h.5"/>
   <path d="m309.5 64.699219h.5"/>
   <path d="m311 64.699219h.5"/>
   <path d="m312.5 64.699219h.5"/>
   <path d="m314 64.699219h.5"/>
   <path d="m315.5 64.699219h.5"/>
   <path d="m317 64.699219h.5"/>
   <path d="m318.5 64.699219h.5"/>
   <path d="m320 64.699219h.5"/>
   <path d="m321.5 64.699219h.5"/>
   <path d="m323 64.699219h.5"/>
   <path d="m324.5 64.699219h.5"/>
   <path d="m326 64.699219h.5"/>
   <path d="m327.5 64.699219h.5"/>
   <path d="m329 64.699219h.5"/>
   <path d="m330.5 64.699219h.5"/>
   <path d="m332 64.699219h.5"/>
   <path d="m333.5 64.699219h.5"/>
   <path d="m335 64.699219h.5"/>
   <path d="m336.5 64.699219h.5"/>
   <path d="m338 64.699219h.5"/>
   <path d="m339.5 64.699219h.5"/>
   <path d="m341 64.699219h.5"/>
   <path d="m342.5 64.699219h.5"/>
   <path d="m344 64.699219h.5"/>
   <path d="m345.5 64.699219h.5"/>
   <path d="m347 64.699219h.5"/>
   <path d="m348.5 64.699219h.5"/>
   <path d="m350 64.699219h.5"/>
   <path d="m351.5 64.699219h.5"/>
   <path d="m353 64.699219h.5"/>
   <path d="m354.5 64.699219h.5"/>
   <path d="m356 64.699219h.5"/>
   <path d="m357.5 64.699219h.5"/>
   <path d="m359 64.699219h.5"/>
   <path d="m360.5 64.699219h.5"/>
   <path d="m362 64.699219h.5"/>
   <path d="m363.5 64.699219h.5"/>
   <path d="m365 64.699219h.5"/>
   <path d="m366.5 64.699219h.5"/>
   <path d="m368 64.699219h.5"/>
   <path d="m369.5 64.699219h.5"/>
   <path d="m371 64.699219h.5"/>
   <path d="m372.5 64.699219h.5"/>
   <path d="m374 64.699219h.5"/>
   <path d="m375.5 64.699219h.5"/>
   <path d="m377 64.699219h.5"/>
   <path d="m378.5 64.699219h.5"/>
   <path d="m380 64.699219h.5"/>
   <path d="m381.5 64.699219h.5"/>
   <path d="m383 64.699219h.5"/>
   <path d="m384.5 64.699219h.5"/>
   <path d="m386 64.699219h.5"/>
   <path d="m387.5 64.699219h.5"/>
   <path d="m389 64.699219h.5"/>
   <path d="m390.5 64.699219h.5"/>
   <path d="m392 64.699219h.5"/>
   <path d="m393.5 64.699219h.5"/>
   <path d="m395 64.699219h.5"/>
   <path d="m396.5 64.699219h.5"/>
   <path d="m398 64.699219h.5"/>
   <path d="m399.5 64.699219h.5"/>
   <path d="m401 64.699219h.5"/>
   <path d="m402.5 64.699219h.5"/>
   <path d="m404 64.699219h.5"/>
   <path d="m405.5 64.699219h.5"/>
   <path d="m407 64.699219h.5"/>
   <path d="m408.5 64.699219h.5"/>
   <path d="m410 64.699219h.5"/>
   <path d="m411.5 64.699219h.5"/>
   <path d="m413 64.699219h.5"/>
   <path d="m414.5 64.699219h.5"/>
   <path d="m416 64.699219h.5"/>
   <path d="m417.5 64.699219h.5"/>
   <path d="m419 64.699219h.5"/>
   <path d="m420.5 64.699219h.5"/>
   <path d="m422 64.699219h.5"/>
   <path d="m423.5 64.699219h.5"/>
   <path d="m425 64.699219h.5"/>
   <path d="m426.5 64.699219h.5"/>
   <path d="m428 64.699219h.5"/>
   <path d="m429.5 64.699219h.5"/>
   <path d="m431 64.699219h.5"/>
   <path d="m432.5 64.699219h.5"/>
   <path d="m434 64.699219h.5"/>
   <path d="m435.5 64.699219h.5"/>
   <path d="m437 64.699219h.5"/>
   <path d="m438.5 64.699219h.5"/>
   <path d="m440 64.699219h.5"/>
   <path d="m441.5 64.699219h.5"/>
   <path d="m443 64.699219h.5"/>
   <path d="m444.5 64.699219h.5"/>
   <path d="m446 64.699219h.5"/>
   <path d="m447.5 64.699219h.5"/>
   <path d="m449 64.699219h.5"/>
   <path d="m450.5 64.699219h.5"/>
   <path d="m452 64.699219h.5"/>
   <path d="m453.5 64.699219h.5"/>
   <path d="m455 64.699219h.5"/>
   <path d="m456.5 64.699219h.5"/>
   <path d="m458 64.699219h.5"/>
   <path d="m459.5 64.699219h.5"/>
   <path d="m461 64.699219h.5"/>
   <path d="m462.5 64.699219h.5"/>
   <path d="m464 64.699219h.5"/>
   <path d="m465.5 64.699219h.5"/>
   <path d="m467 64.699219h.5"/>
   <path d="m468.5 64.699219h.5"/>
   <path d="m470 64.699219h.5"/>
   <path d="m471.5 64.699219h.5"/>
   <path d="m473 64.699219h.5"/>
   <path d="m474.5 64.699219h.5"/>
   <path d="m476 64.699219h.5"/>
   <path d="m477.5 64.699219h.5"/>
   <path d="m479 64.699219h.5"/>
   <path d="m480.5 64.699219h.5"/>
   <path d="m482 64.699219h.5"/>
   <path d="m483.5 64.699219h.5"/>
   <path d="m485 64.699219h.5"/>
   <path d="m486.5 64.699219h.5"/>
   <path d="m488 64.699219h.5"/>
   <path d="m489.5 64.699219h.5"/>
   <path d="m491 64.699219h.5"/>
   <path d="m492.5 64.699219h.5"/>
   <path d="m494 64.699219h.5"/>
   <path d="m495.5 64.699219h.5"/>
   <path d="m497 64.699219h.5"/>
   <path d="m498.5 64.699219h.5"/>
   <path d="m500 64.699219h.5"/>
   <path d="m501.5 64.699219h.5"/>
   <path d="m503 64.699219h.5"/>
   <path d="m504.5 64.699219h.5"/>
   <path d="m506 64.699219h.5"/>
   <path d="m507.5 64.699219h.5"/>
   <path d="m509 64.699219h.5"/>
   <path d="m510.5 64.699219h.5"/>
   <path d="m512 64.699219h.5"/>
   <path d="m513.5 64.699219h.5"/>
   <path d="m515 64.699219h.5"/>
   <path d="m516.5 64.699219h.5"/>
   <path d="m518 64.699219h.5"/>
   <path d="m519.5 64.699219h.5"/>
   <path d="m521 64.699219h.5"/>
   <path d="m522.5 64.699219h.5"/>
   <path d="m524 64.699219h.5"/>
   <path d="m525.5 64.699219h.5"/>
   <path d="m527 64.699219h.5"/>
   <path d="m528.5 64.699219h.5"/>
   <path d="m530 64.699219h.5"/>
   <path d="m531.5 64.699219h.5"/>
   <path d="m533 64.699219h.5"/>
   <path d="m534.5 64.699219h.5"/>
   <path d="m536 64.699219h.5"/>
   <path d="m537.5 64.699219h.5"/>
   <path d="m539 64.699219h.5"/>
   <path d="m540.5 64.699219h.5"/>
   <path d="m542 64.699219h.5"/>
   <path d="m543.5 64.699219h.5"/>
   <path d="m545 64.699219h.5"/>
   <path d="m546.5 64.699219h.5"/>
   <path d="m548 64.699219h.5"/>
   <path d="m549.5 64.699219h.5"/>
   <path d="m551 64.699219h.5"/>
   <path d="m552.5 64.699219h.5"/>
   <path d="m554 64.699219h.5"/>
   <path d="m555.5 64.699219h.5"/>
   <path d="m557 64.699219h.5"/>
   <path d="m558.5 64.699219h.5"/>
   <path d="m560 64.699219h.5"/>
   <path d="m561.5 64.699219h.5"/>
   <path d="m563 64.699219h.5"/>
   <path d="m564.5 64.699219h.5"/>
   <path d="m566 64.699219h.5"/>
   <path d="m567.5 64.699219h.5"/>
   <path d="m569 64.699219h.5"/>
   <path d="m570.5 64.699219h.5"/>
   <path d="m572 64.699219h.5"/>
   <path d="m573.5 64.699219h.5"/>
   <path d="m575 64.699219h.5"/>
   <path d="m576.5 64.699219h.5"/>
   <path d="m578 64.699219h.5"/>
   <path d="m579.5 64.699219h.5"/>
   <path d="m581 64.699219h.5"/>
   <path d="m582.5 64.699219h.5"/>
   <path d="m584 64.699219h.5"/>
   <path d="m585.5 64.699219h.5"/>
   <path d="m587 64.699219h.5"/>
   <path d="m588.5 64.699219h.5"/>
   <path d="m590 64.699219h.5"/>
   <path d="m591.5 64.699219h.5"/>
   <path d="m593 64.699219h.5"/>
   <path d="m594.5 64.699219h.5"/>
  </g>
  <g stroke-width="2">
   <path d="m53 40.800781h542"/>
   <path d="m54 106.300781v-66.5"/>
   <path d="m89.898438 89.601562v-49.800781"/>
  </g>
  <g stroke-width=".75">
   <path d="m215.898438 89.601562v-49.800781"/>
   <path d="m341.898438 89.601562v-49.800781"/>
   <path d="m467.898438 89.601562v-49.800781"/>
  </g>
  <path d="m594 106.300781v-66.5" stroke-width="2"/>
 </g>
 <use x="56.9" xlink:href="#i" y="698.6"/>
 <use x="60.197" xlink:href="#m" y="698.6"/>
 <use x="61.891" xlink:href="#f" y="698.6"/>
 <use x="65.986" xlink:href="#l" y="698.6"/>
 <use x="70.179" xlink:href="#n" y="698.6"/>
 <use x="73.378" xlink:href="#d" y="698.6"/>
 <use x="74.071" xlink:href="#d" y="698.6"/>
 <use x="74.673" xlink:href="#o" y="698.6"/>
 <use x="77.97" xlink:href="#p" y="698.6"/>
 <use x="82.072" xlink:href="#k" y="698.6"/>
 <use x="85.768" xlink:href="#c" y="698.6"/>
 <use x="89.66" xlink:href="#l" y="698.6"/>
 <use x="93.755" xlink:href="#q" y="698.6"/>
 <use x="97.353" xlink:href="#k" y="698.6"/>
 <use x="100.944" xlink:href="#d" y="698.6"/>
 <use x="101.546" xlink:href="#r" y="698.6"/>
 <use x="105.641" xlink:href="#d" y="698.6"/>
 <use x="106.243" xlink:href="#s" y="698.6"/>
 <use x="110.037" xlink:href="#c" y="698.6"/>
 <use x="113.929" xlink:href="#l" y="698.6"/>
 <use x="117.128" xlink:href="#t" y="698.6"/>
 <use x="121.419" xlink:href="#m" y="698.6"/>
 <use x="123.211" xlink:href="#k" y="698.6"/>
 <use x="126.711" xlink:href="#u" y="698.6"/>
 <use x="61.5" xlink:href="#W" y="718.1"/>
 <use x="65.1" xlink:href="#O" y="718.1"/>
 <use x="69.596" xlink:href="#ad" y="718.1"/>
 <use x="72.396" xlink:href="#as" y="718.1"/>
 <use x="76.796" xlink:href="#Q" y="718.1"/>
 <use x="80.692" xlink:href="#P" y="718.1"/>
 <use x="202.3" xlink:href="#H" y="722.4"/>
 <use x="206.7" xlink:href="#I" y="722.4"/>
 <use x="210.396" xlink:href="#J" y="722.4"/>
 <use x="336.2" xlink:href="#K" y="722.4"/>
 <use x="332.2" xlink:href="#av" y="722.4"/>
 <use x="458.7" xlink:href="#J" y="722.4"/>
 <use x="461.5" xlink:href="#L" y="722.4"/>
 <use x="584.9" xlink:href="#v" y="722.4"/>
 <use x="588.196" xlink:href="#M" y="722.4"/>
 <use x="580.9" xlink:href="#av" y="722.4"/>
 <use x="61.4" xlink:href="#al" y="741.3"/>
 <use x="67" xlink:href="#am" y="741.3"/>
 <use x="70.496" xlink:href="#P" y="741.3"/>
 <use x="72.392" xlink:href="#at" y="741.3"/>
 <use x="76.488" xlink:href="#O" y="741.3"/>
 <use x="80.984" xlink:href="#au" y="741.3"/>
 <use x="202.3" xlink:href="#H" y="745.7"/>
 <use x="206.7" xlink:href="#I" y="745.7"/>
 <use x="210.396" xlink:href="#J" y="745.7"/>
 <use x="336.2" xlink:href="#K" y="745.7"/>
 <use x="332.2" xlink:href="#av" y="745.7"/>
 <use x="458.7" xlink:href="#J" y="745.7"/>
 <use x="461.5" xlink:href="#L" y="745.7"/>
 <use x="584.9" xlink:href="#v" y="745.7"/>
 <use x="588.196" xlink:href="#M" y="745.7"/>
 <use x="580.9" xlink:href="#av" y="745.7"/>
</svg>
