<svg height="792pt" viewBox="0 0 612 792" width="612pt" xmlns="http://www.w3.org/2000/svg" xmlns:xlink="http://www.w3.org/1999/xlink">
 <symbol id="a" overflow="visible">
  <path d="m3.078125-36.1875h4.5c2.21875 0 4.257813.234375 6.125.703125 1.875.460937 3.46875 1.351563 4.78125 2.671875 1.320313 1.3125 2.070313 3.132812 2.25 5.453125 0 4.054687-1.375 6.742187-4.125 8.0625 1.289063.117187 2.507813.601563 3.65625 1.453125 1.15625.855469 2.082031 1.984375 2.78125 3.390625.695313 1.398437 1.046875 2.933594 1.046875 4.609375 0 2.085938-.558594 3.871094-1.671875 5.359375-1.105469 1.480469-2.621094 2.601563-4.546875 3.359375-1.929688.75-4.078125 1.125-6.453125 1.125h-8.34375zm4.5 4.03125v12h2.0625c4.582031 0 6.875-2 6.875-6 0-1.570312-.429687-2.960938-1.28125-4.171875-.84375-1.21875-2.773437-1.828125-5.78125-1.828125zm0 15.546875v12.578125h3.65625c5.3125 0 8.09375-1.96875 8.34375-5.90625 0-2.332031-.839844-4.023438-2.515625-5.078125-1.667969-1.0625-3.6875-1.59375-6.0625-1.59375zm0 0"/>
 </symbol>
 <symbol id="b" overflow="visible">
  <path d="m7.578125-22.515625v3.84375c.6875-1.507813 1.578125-2.628906 2.671875-3.359375 1.09375-.738281 2.269531-1.109375 3.53125-1.109375 1.425781 0 2.640625.339844 3.640625 1.015625l-1.96875 4.03125c-.730469-.582031-1.6875-.875-2.875-.875-1.8125 0-3.101563.75-3.859375 2.25-.761719 1.5-1.140625 3.265625-1.140625 5.296875v11.421875h-4.3125v-22.515625zm0 0"/>
 </symbol>
 <symbol id="c" overflow="visible">
  <path d="m19.015625-7.484375 3.6875 2.15625c-.9375 1.542969-2.226563 2.949219-3.859375 4.21875-1.636719 1.257813-3.886719 1.890625-6.75 1.890625-1.667969-.0625-3.171875-.398438-4.515625-1s-2.496094-1.460938-3.453125-2.578125c-.949219-1.113281-1.671875-2.460937-2.171875-4.046875-.5-1.582031-.75-3.332031-.75-5.25.082031-1.550781.375-2.988281.875-4.3125.507813-1.332031 1.222656-2.5 2.140625-3.5.925781-1.007812 2.054688-1.800781 3.390625-2.375 1.332031-.570312 2.828125-.859375 4.484375-.859375 2.457031 0 4.484375.570313 6.078125 1.703125 1.59375 1.136719 2.738281 2.5625 3.4375 4.28125.695313 1.71875 1.046875 3.484375 1.046875 5.296875 0 .605469-.015625 1.054687-.046875 1.34375h-17c0 2.117187.632813 3.886719 1.90625 5.3125 1.28125 1.429687 2.96875 2.152344 5.0625 2.171875 1.28125 0 2.492187-.398438 3.640625-1.203125 1.144531-.800781 2.078125-1.882813 2.796875-3.25zm-.625-6.296875c-.242187-1.675781-.890625-3.03125-1.953125-4.0625s-2.414062-1.546875-4.046875-1.546875c-1.449219 0-2.824219.433594-4.125 1.296875-1.292969.855469-2.109375 2.292969-2.453125 4.3125zm0 0"/>
 </symbol>
 <symbol id="d" overflow="visible">
  <path d="m-.78125-22.515625h4.90625l6.578125 14.359375 6.53125-15.546875 6.671875 15.546875 6.484375-14.359375h4.9375l-11.421875 23.296875-6.671875-15.046875-6.53125 15.046875zm0 0"/>
 </symbol>
 <symbol id="e" overflow="visible">
  <path d="m9.640625-3.84375-10.3125-18.671875h5.09375l7.578125 14.359375 7.015625-14.359375h4.890625l-18.203125 35.390625h-4.828125zm0 0"/>
 </symbol>
 <symbol id="f" overflow="visible"/>
 <symbol id="g" overflow="visible">
  <path d="m3.453125-36.1875h4.515625v32.0625h11v4.125h-15.515625zm0 0"/>
 </symbol>
 <symbol id="h" overflow="visible">
  <path d="m12.96875-19.015625c-1.40625 0-2.703125.355469-3.890625 1.0625-1.179687.710937-2.117187 1.671875-2.8125 2.890625-.6875 1.210938-1.03125 2.515625-1.03125 3.921875 0 1.398437.34375 2.695313 1.03125 3.890625.695313 1.1875 1.640625 2.136719 2.828125 2.84375 1.195312.699219 2.488281 1.046875 3.875 1.046875 1.351562 0 2.617188-.347656 3.796875-1.046875 1.1875-.707031 2.128906-1.65625 2.828125-2.84375.695312-1.195312 1.046875-2.492188 1.046875-3.890625 0-1.40625-.351563-2.710937-1.046875-3.921875-.699219-1.21875-1.636719-2.179688-2.8125-2.890625-1.167969-.707031-2.4375-1.0625-3.8125-1.0625zm0-4.125c2.164062 0 4.164062.539063 6 1.609375 1.84375 1.074219 3.300781 2.53125 4.375 4.375 1.082031 1.84375 1.625 3.851562 1.625 6.015625 0 2.125-.542969 4.105469-1.625 5.9375-1.074219 1.835937-2.53125 3.292969-4.375 4.375-1.84375 1.070313-3.84375 1.609375-6 1.609375-2.148438 0-4.148438-.542969-6-1.625-1.84375-1.082031-3.308594-2.535156-4.390625-4.359375-1.074219-1.820313-1.609375-3.800781-1.609375-5.9375 0-2.175781.535156-4.179687 1.609375-6.015625 1.082031-1.84375 2.546875-3.300781 4.390625-4.375 1.84375-1.070312 3.84375-1.609375 6-1.609375zm0 0"/>
 </symbol>
 <symbol id="i" overflow="visible">
  <path d="m19.671875-18.484375v-4.03125h4.328125v22.515625c0 3.582031-.5625 6.328125-1.6875 8.234375-1.117188 1.90625-2.460938 3.15625-4.03125 3.75-1.574219.59375-3.265625.890625-5.078125.890625-2.199219 0-4.125-.429688-5.78125-1.28125-1.648437-.84375-2.917969-2.039062-3.8125-3.578125-.898437-1.542969-1.34375-3.304687-1.34375-5.28125h4.3125c0 1.539063.460937 2.972656 1.390625 4.296875.925781 1.332031 2.796875 2 5.609375 2 1.988281 0 3.5-.632812 4.53125-1.890625 1.039063-1.261719 1.5625-3.117187 1.5625-5.5625v-5.21875c-.3125.46875-.636719.953125-.96875 1.453125-.324219.492188-.75.960938-1.28125 1.40625-.53125.4375-1.273437.8046875-2.21875 1.109375-.9375.300781-2.105469.453125-3.5.453125-2.023437 0-3.828125-.515625-5.421875-1.546875s-2.839844-2.5-3.734375-4.40625c-.898437-1.90625-1.34375-4.082031-1.34375-6.53125 0-1.34375.222656-2.675781.671875-4 .457031-1.332031 1.128906-2.5625 2.015625-3.6875.894531-1.125 2-2.019531 3.3125-2.6875 1.3125-.675781 2.78125-1.03125 4.40625-1.0625 1.550781 0 3.039063.382813 4.46875 1.140625 1.425781.75 2.625 1.921875 3.59375 3.515625zm.296875 7.0625c-.03125-1.757813-.417969-3.226563-1.15625-4.40625-.730469-1.1875-1.636719-2.0625-2.71875-2.625-1.085938-.5625-2.15625-.84375-3.21875-.84375-1.53125 0-2.851562.367187-3.953125 1.09375-1.09375.71875-1.929687 1.671875-2.5 2.859375-.5625 1.179688-.867187 2.453125-.90625 3.828125 0 1.460937.265625 2.828125.796875 4.109375.53125 1.273438 1.320312 2.304688 2.375 3.09375 1.050781.792969 2.347656 1.203125 3.890625 1.234375 1.414063 0 2.6875-.335937 3.8125-1.015625 1.125-.6875 2-1.65625 2.625-2.90625.632813-1.257812.953125-2.734375.953125-4.421875zm0 0"/>
 </symbol>
 <symbol id="j" overflow="visible">
  <path d="m1.328125-5.296875h-1v-.9375h2.921875v.9375h-.984375v5.296875h-.9375zm0 0"/>
 </symbol>
 <symbol id="k" overflow="visible">
  <path d="m1.265625-2.640625v2.640625h-.9375v-6.234375h.9375v2.65625h1.125v-2.65625h.9375v6.234375h-.9375v-2.640625zm0 0"/>
 </symbol>
 <symbol id="l" overflow="visible">
  <path d="m1.265625 0h-.9375v-6.234375h.9375zm0 0"/>
 </symbol>
 <symbol id="m" overflow="visible">
  <path d="m3.4375-1.546875c0 .429687-.117188.796875-.34375 1.109375-.15625.210938-.371094.3554688-.640625.4375-.15625.0507812-.335937.078125-.53125.078125-.367187 0-.667969-.09375-.90625-.28125-.210937-.144531-.371094-.34375-.484375-.59375-.117188-.257813-.183594-.554687-.203125-.890625l.890625-.0625c.039062.355469.132812.617188.28125.78125.113281.125.242188.183594.390625.171875.207031-.007813.375-.109375.5-.296875.0625-.101562.09375-.242188.09375-.421875 0-.257813-.121094-.515625-.359375-.765625-.1875-.175781-.464844-.441406-.828125-.796875-.3125-.300781-.539063-.566406-.671875-.796875-.136719-.269531-.203125-.5625-.203125-.875 0-.570312.191406-1.003906.578125-1.296875.226562-.175781.519531-.265625.875-.265625.332031 0 .617188.078125.859375.234375.175781.117187.320313.277344.4375.484375.113281.210938.1875.449219.21875.71875l-.90625.15625c-.023437-.25-.09375-.445312-.21875-.59375-.085937-.101562-.210937-.15625-.375-.15625-.167969 0-.296875.078125-.390625.234375-.074219.125-.109375.277344-.109375.453125 0 .292969.125.585938.375.875.09375.117188.226563.246094.40625.390625.21875.1875.363281.320313.4375.390625.226563.230469.40625.460938.53125.6875.0625.105469.113281.203125.15625.296875.082031.21875.128906.417969.140625.59375zm0 0"/>
 </symbol>
 <symbol id="n" overflow="visible"/>
 <symbol id="o" overflow="visible">
  <path d="m.328125 0v-6.234375h1.40625c.363281 0 .695313.101563 1 .296875.25.167969.429687.421875.546875.765625.0625.1875.09375.40625.09375.65625 0 .429687-.117188.765625-.34375 1.015625-.09375.105469-.203125.183594-.328125.234375.207031.085937.382813.246094.53125.484375.101563.15625.175781.359375.21875.609375.019531.125.03125.273437.03125.4375 0 .398437-.074219.730469-.21875 1-.117187.21875-.277344.390625-.484375.515625-.242188.1484375-.480469.21875-.71875.21875zm1.015625-.921875h.390625c.3125 0 .53125-.164063.65625-.5.039063-.113281.0625-.242187.0625-.390625 0-.34375-.070313-.59375-.203125-.75-.117188-.144531-.289062-.21875-.515625-.21875h-.390625zm0-2.765625h.390625c.289063 0 .484375-.140625.578125-.421875.039062-.113281.0625-.25.0625-.40625 0-.25-.0625-.441406-.1875-.578125-.117188-.125-.265625-.1875-.453125-.1875h-.390625zm0 0"/>
 </symbol>
 <symbol id="p" overflow="visible">
  <path d="m1.796875-6.234375c.53125 0 .914063.148437 1.15625.4375.21875.25.328125.601563.328125 1.046875v.90625c0 .449219-.167969.824219-.5 1.125l.6875 2.71875h-1.015625l-.5625-2.34375c-.03125 0-.0625 0-.09375 0h-.53125v2.34375h-.9375v-6.234375zm.5625 1.5c0-.351563-.179687-.53125-.53125-.53125h-.5625v1.984375h.5625c.144531 0 .269531-.050781.375-.15625.101563-.101562.15625-.226562.15625-.375zm0 0"/>
 </symbol>
 <symbol id="q" overflow="visible">
  <path d="m.328125 0v-6.234375h2.671875v.9375h-1.734375v1.703125h1.265625v.953125h-1.265625v1.703125h1.734375v.9375zm0 0"/>
 </symbol>
 <symbol id="r" overflow="visible">
  <path d="m4.1875-6.234375h.984375l-.96875 6.234375h-.90625l-.53125-3.40625-.5 3.40625h-.90625l-1.03125-6.234375h.984375l.484375 3.34375.453125-3.34375h.984375l.5 3.34375zm0 0"/>
 </symbol>
 <symbol id="s" overflow="visible">
  <path d="m2.890625 0h-2.5625v-6.234375h.9375v5.296875h1.625zm0 0"/>
 </symbol>
 <symbol id="t" overflow="visible">
  <path d="m1.8125-6.3125c.414062 0 .765625.148438 1.046875.4375.289063.292969.4375.648438.4375 1.0625v3.390625c0 .417969-.148437.773437-.4375 1.0625-.292969.2929688-.640625.4375-1.046875.4375-.417969 0-.773438-.1445312-1.0625-.4375-.28125-.289063-.421875-.644531-.421875-1.0625v-3.390625c0-.414062.144531-.769531.4375-1.0625.289063-.289062.640625-.4375 1.046875-.4375zm.515625 1.46875c0-.144531-.054687-.269531-.15625-.375-.105469-.101562-.234375-.15625-.390625-.15625-.148438 0-.273438.054688-.375.15625-.105469.105469-.15625.230469-.15625.375v3.421875c0 .148437.050781.273437.15625.375.101562.105469.226562.15625.375.15625.15625 0 .285156-.050781.390625-.15625.101563-.101563.15625-.226563.15625-.375zm0 0"/>
 </symbol>
 <symbol id="u" overflow="visible">
  <path d="m1.8125.078125c-.417969 0-.773438-.1445312-1.0625-.4375-.28125-.289063-.421875-.640625-.421875-1.046875v-3.40625c0-.40625.144531-.753906.4375-1.046875.289063-.289063.640625-.4375 1.046875-.4375.414062 0 .765625.148437 1.046875.4375.289063.292969.4375.640625.4375 1.046875v.71875h-.96875v-.734375c0-.144531-.054687-.269531-.15625-.375-.105469-.113281-.234375-.171875-.390625-.171875-.148438 0-.273438.058594-.375.171875-.105469.105469-.15625.230469-.15625.375v3.40625c0 .15625.050781.289063.15625.390625.101562.105469.226562.15625.375.15625.15625 0 .285156-.050781.390625-.15625.101563-.101562.15625-.234375.15625-.390625v-1.21875h-.53125v-.9375h1.5v2.171875c0 .417969-.148437.773438-.4375 1.0625-.292969.28125-.640625.421875-1.046875.421875zm0 0"/>
 </symbol>
 <symbol id="v" overflow="visible">
  <path d="m2.890625 0h-2.5625v-6.234375h.9375v5.296875h1.625zm0 0"/>
 </symbol>
 <symbol id="w" overflow="visible">
  <path d="m1.375-6.234375 1.25 4.1875v-4.1875h.9375v6.234375h-1l-1.296875-3.984375v3.984375h-.9375v-6.234375zm0 0"/>
 </symbol>
 <symbol id="x" overflow="visible">
  <path d="m.328125-.9375h.9375v.9375h-.9375zm0-2.640625h.9375v.9375h-.9375zm0 0"/>
 </symbol>
 <symbol id="y" overflow="visible">
  <path d="m.734375 0v-9.046875h1.140625l2.109375 6.859375.046875-.015625c-.03125-.488281-.070312-.992187-.109375-1.515625-.042969-.519531-.078125-.96875-.109375-1.34375-.023438-.375-.042969-.875-.0625-1.5-.011719-.632812-.015625-1.460938-.015625-2.484375h1.21875v9.046875h-1.140625l-2.09375-6.984375-.03125.015625c.175781 1.84375.265625 3.527344.265625 5.046875 0 .261719-.007813.585937-.015625.96875-.011719.386719-.015625.703125-.015625.953125zm0 0"/>
 </symbol>
 <symbol id="z" overflow="visible">
  <path d="m1.625-4.578125c-.074219.273437-.121094.8125-.140625 1.625.019531.71875.066406 1.195313.140625 1.421875.113281.398438.316406.609375.609375.640625.164063-.007813.3125-.097656.4375-.265625.132813-.175781.210937-.398438.234375-.671875.03125-.726563.046875-1.148437.046875-1.265625 0-.40625-.03125-.832031-.09375-1.28125-.03125-.25-.109375-.4375-.234375-.5625-.117188-.132812-.246094-.203125-.390625-.203125-.292969 0-.496094.1875-.609375.5625zm1.25 3.8125c-.09375.28125-.242188.496094-.4375.640625-.1875.1445312-.402344.21875-.640625.21875-.28125 0-.539063-.1015625-.765625-.3125-.230469-.207031-.390625-.492188-.484375-.859375-.117187-.425781-.1875-1.082031-.21875-1.96875.019531-.925781.109375-1.625.265625-2.09375.113281-.351563.273438-.613281.484375-.78125.207031-.164063.429687-.25.671875-.25.257812 0 .5.085937.71875.25.226562.15625.363281.335937.40625.53125h.03125l.015625-.6875h1.140625v6.078125h-1.15625v-.765625zm0 0"/>
 </symbol>
 <symbol id="A" overflow="visible">
  <path d="m.515625 0v-6.078125h1.15625v.765625h.015625c.25-.570312.644531-.859375 1.1875-.859375.269531.011719.503906.09375.703125.25.195313.148437.328125.351563.390625.609375h.015625c.144531-.332031.328125-.554688.546875-.671875.226562-.125.503906-.1875.828125-.1875.800781.042969 1.203125.515625 1.203125 1.421875v4.75h-1.125v-4.265625c0-.351563-.054688-.585937-.15625-.703125-.105469-.125-.257812-.1875-.453125-.1875-.261719 0-.449219.078125-.5625.234375-.105469.15625-.15625.40625-.15625.75v4.171875h-1.125v-4.109375c0-.375-.042969-.640625-.125-.796875-.085937-.15625-.25-.238281-.5-.25-.261719 0-.449219.09375-.5625.28125-.105469.179688-.15625.53125-.15625 1.0625v3.8125zm0 0"/>
 </symbol>
 <symbol id="B" overflow="visible">
  <path d="m1.484375-2.8125c0 1.28125.238281 1.921875.71875 1.921875.207031 0 .375-.09375.5-.28125.132813-.1875.203125-.476563.203125-.875h1.0625c-.011719.53125-.105469.960937-.28125 1.28125-.167969.3125-.382812.53125-.640625.65625-.261719.125-.546875.1914062-.859375.203125-.367188 0-.679688-.08984375-.9375-.265625-.261719-.175781-.46875-.445313-.625-.8125-.15625-.363281-.25-.816406-.28125-1.359375 0-.28125-.007812-.507812-.015625-.6875.03125-2.09375.632813-3.140625 1.8125-3.140625.507813.011719.898437.1875 1.171875.53125.28125.335937.460938.742187.546875 1.21875.082031.480469.125 1.015625.125 1.609375zm.015625-.796875h1.328125c0-1.019531-.226563-1.53125-.671875-1.53125-.210938 0-.371094.109375-.484375.328125-.117187.210938-.171875.609375-.171875 1.203125zm0 0"/>
 </symbol>
 <symbol id="C" overflow="visible">
  <path d="m.734375-9.046875h3.234375v1.03125h-2.046875v2.859375h1.828125v1.03125h-1.828125v3.0625h2.046875v1.0625h-3.234375zm0 0"/>
 </symbol>
 <symbol id="D" overflow="visible">
  <path d="m1.640625-6.078125v6.078125h-1.125v-6.078125zm-1.3125-1.8125c0-.195313.070313-.375.21875-.53125.15625-.15625.332031-.234375.53125-.234375.207031 0 .382813.078125.53125.234375.144531.15625.21875.335937.21875.53125 0 .210937-.070313.386719-.203125.53125-.136719.136719-.304688.203125-.5.203125-.230469 0-.421875-.070312-.578125-.21875-.148437-.144531-.21875-.316406-.21875-.515625zm0 0"/>
 </symbol>
 <symbol id="E" overflow="visible">
  <path d="m1.640625-9.96875v9.96875h-1.125v-9.96875zm0 0"/>
 </symbol>
 <symbol id="F" overflow="visible">
  <path d="m.515625-1.53125c.425781.3125.816406.480469 1.171875.5.34375-.007812.601562-.132812.78125-.375.1875-.25.28125-.601562.28125-1.0625-.042969-.351562-.164062-.664062-.359375-.9375-.199219-.269531-.492187-.585938-.875-.953125-.386719-.375-.683594-.707031-.890625-1-.199219-.289063-.324219-.628906-.375-1.015625-.011719-.113281-.015625-.273438-.015625-.484375 0-.71875.179687-1.28125.546875-1.6875.363281-.414063.835938-.625 1.421875-.625.457031 0 .894531.105469 1.3125.3125v1.1875c-.292969-.25-.625-.375-1-.375-.324219 0-.589844.117187-.796875.34375-.199219.230469-.296875.546875-.296875.953125 0 .261719.082031.5.25.71875.175781.21875.484375.558594.921875 1.015625.4375.449219.765625.855469.984375 1.21875.226563.367187.359375.773437.390625 1.21875 0 .625-.105469 1.140625-.3125 1.546875-.210938.40625-.476562.703125-.796875.890625-.324219.1757812-.679687.265625-1.0625.265625-.523437 0-.949219-.140625-1.28125-.421875zm0 0"/>
 </symbol>
 <symbol id="G" overflow="visible">
  <path d="m.75-7.78125h1.125v1.703125h.609375v.890625h-.609375v5.1875h-1.125v-5.1875h-.609375v-.890625h.609375zm0 0"/>
 </symbol>
 <symbol id="H" overflow="visible">
  <path d="m.546875 0v-6.078125h1.125l-.03125.765625h.046875c.257812-.570312.691406-.859375 1.296875-.859375v1.125c-.511719 0-.859375.105469-1.046875.3125-.179688.199219-.265625.507813-.265625.921875v3.8125zm0 0"/>
 </symbol>
 <symbol id="I" overflow="visible">
  <path d="m1.578125-4.421875c-.054687.210937-.09375.6875-.125 1.4375.03125.710937.0625 1.140625.09375 1.296875.050781.261719.132813.460938.25.59375.125.125.257813.195312.40625.203125.164063-.007813.3125-.085937.4375-.234375.125-.15625.195313-.363281.21875-.625.039063-.71875.0625-1.226562.0625-1.53125 0-.5-.023437-.875-.0625-1.125-.042969-.238281-.125-.421875-.25-.546875-.125-.132813-.261719-.203125-.40625-.203125-.136719 0-.265625.0625-.390625.1875-.117188.125-.195312.308594-.234375.546875zm1.296875 3.65625c-.054688.25-.195312.460937-.421875.625-.21875.15625-.464844.234375-.734375.234375-.40625 0-.714844-.1875-.921875-.5625-.304687-.539062-.46875-1.378906-.5-2.515625.019531-.644531.085937-1.257813.203125-1.84375.09375-.4375.257812-.769531.5-1 .238281-.226563.503906-.34375.796875-.34375.238281 0 .457031.074219.65625.21875.195313.136719.335937.324219.421875.5625h.03125v-4.578125h1.125v9.96875h-1.125v-.765625zm0 0"/>
 </symbol>
 <symbol id="J" overflow="visible">
  <path d="m4.25-8.90625v1.109375c-.25-.164063-.527344-.25-.828125-.25-.273437 0-.523437.089844-.75.265625-.21875.167969-.398437.402344-.53125.703125-.09375.1875-.183594.542969-.265625 1.0625-.074219.511719-.117188 1.046875-.125 1.609375.007812.605469.050781 1.136719.125 1.59375.070312.460938.234375.875.484375 1.25.257813.367188.644531.558594 1.15625.578125.300781-.03125.546875-.101563.734375-.21875v1.0625c-.273438.1757812-.609375.265625-1.015625.265625-.375 0-.746094-.0898438-1.109375-.265625-.367188-.175781-.648438-.398437-.84375-.671875-.25-.375-.445312-.882812-.578125-1.53125-.125-.644531-.195313-1.347656-.203125-2.109375.007812-.632813.0625-1.242187.15625-1.828125.09375-.582031.21875-1.0625.375-1.4375.195312-.445312.484375-.800781.859375-1.0625.375-.257812.785156-.390625 1.234375-.390625.375 0 .75.089844 1.125.265625zm0 0"/>
 </symbol>
 <symbol id="K" overflow="visible">
  <path d="m.375-3.65625c.050781-.851562.234375-1.484375.546875-1.890625.320313-.414063.757813-.625 1.3125-.625.59375 0 1.0625.21875 1.40625.65625s.515625 1.234375.515625 2.390625v.234375.21875c-.054688 1.84375-.683594 2.765625-1.890625 2.765625-.429687 0-.78125-.1015625-1.0625-.3125-.28125-.207031-.496094-.53125-.640625-.96875-.148438-.4375-.226562-1-.234375-1.6875.03125-.351562.046875-.613281.046875-.78125zm1.125.625c0 .730469.050781 1.265625.15625 1.609375.101562.335937.300781.507813.59375.515625.03125-.019531.0625-.03125.09375-.03125.257812-.03125.4375-.222656.53125-.578125.101562-.351563.15625-.863281.15625-1.53125-.011719-.132813-.023438-.320313-.03125-.5625 0-.238281-.023438-.472656-.0625-.703125-.042969-.238281-.121094-.4375-.234375-.59375-.105469-.15625-.257813-.234375-.453125-.234375-.3125 0-.515625.183594-.609375.546875-.09375.367188-.148437.851562-.15625 1.453125.007813.03125.015625.070313.015625.109375zm0 0"/>
 </symbol>
 <symbol id="L" overflow="visible">
  <path d="m2.34375-5.140625c-.230469 0-.398438.109375-.5.328125-.105469.210938-.167969.429688-.1875.65625-.023438.230469-.042969.585938-.0625 1.0625 0 .710938.046875 1.25.140625 1.625.101563.375.296875.5625.578125.5625.300781 0 .5-.164062.59375-.5.09375-.34375.140625-.84375.140625-1.5 0-.488281-.015625-.890625-.046875-1.203125s-.101562-.554687-.203125-.734375c-.105469-.1875-.257813-.285156-.453125-.296875zm-1.828125 7.625v-8.53125h1.125v.78125h.03125c.082031-.289063.222656-.515625.421875-.671875.195312-.15625.421875-.234375.671875-.234375.269531 0 .519531.105469.75.3125.238281.199219.394531.480469.46875.84375.144531.617187.21875 1.289063.21875 2.015625 0 .8125-.074219 1.484375-.21875 2.015625-.09375.355469-.257813.625-.484375.8125-.21875.17578125-.46875.265625-.75.265625-.242188 0-.464844-.0742188-.671875-.21875-.210937-.144531-.34375-.332031-.40625-.5625h-.03125v3.171875zm0 0"/>
 </symbol>
 <symbol id="M" overflow="visible">
  <path d="m.609375-7.546875h.984375v6.671875h1.703125v.875h-2.6875zm0 0"/>
 </symbol>
 <symbol id="N" overflow="visible">
  <path d="m1.375-5.0625v5.0625h-.9375v-5.0625zm-1.109375-1.515625c0-.164063.0625-.3125.1875-.4375s.273437-.1875.453125-.1875c.164062 0 .304688.0625.421875.1875.125.125.1875.273437.1875.4375 0 .179687-.058594.328125-.171875.453125-.105469.117188-.242188.171875-.40625.171875-.199219 0-.359375-.0625-.484375-.1875s-.1875-.269531-.1875-.4375zm0 0"/>
 </symbol>
 <symbol id="O" overflow="visible">
  <path d="m2.546875-1v.90625c-.261719.1132812-.515625.171875-.765625.171875-.585938 0-.980469-.242187-1.1875-.734375-.199219-.488281-.308594-1.082031-.328125-1.78125.007813-.46875.050781-.890625.125-1.265625.070313-.382813.21875-.71875.4375-1 .226563-.28125.554687-.421875.984375-.421875.269531 0 .515625.054688.734375.15625v.96875h-.03125c-.085937-.15625-.246094-.234375-.484375-.234375-.242188 0-.417969.101563-.53125.296875-.117188.1875-.1875.386719-.21875.59375-.023438.199219-.039062.480469-.046875.84375.007813.480469.0625.882812.15625 1.203125.09375.3125.304687.484375.640625.515625.195312-.019531.367188-.09375.515625-.21875zm0 0"/>
 </symbol>
 <symbol id="P" overflow="visible">
  <path d="m1.234375-2.34375c0 1.074219.203125 1.609375.609375 1.609375.164062 0 .300781-.078125.40625-.234375.113281-.164062.171875-.410156.171875-.734375h.875c0 .449219-.074219.804687-.21875 1.0625-.148437.261719-.328125.445313-.546875.546875-.210938.1015625-.449219.1601562-.71875.171875-.292969 0-.546875-.07421875-.765625-.21875-.21875-.144531-.398437-.367187-.53125-.671875-.125-.3125-.199219-.691406-.21875-1.140625 0-.226563-.011719-.414063-.03125-.5625.03125-1.75.535156-2.625 1.515625-2.625.425781.011719.753906.15625.984375.4375.226563.273437.378906.609375.453125 1.015625.070312.398438.109375.84375.109375 1.34375zm.015625-.671875h1.109375c0-.84375-.1875-1.265625-.5625-1.265625-.179687 0-.3125.089844-.40625.265625-.09375.179687-.140625.511719-.140625 1zm0 0"/>
 </symbol>
 <symbol id="Q" overflow="visible">
  <path d="m3.453125-3.6875v3.6875h-.9375v-3.546875c0-.5-.183594-.75-.546875-.75-.21875.011719-.371094.089844-.453125.234375-.085937.148438-.125.414062-.125.796875v3.265625h-.9375v-5.0625h.9375v.59375h.015625c.21875-.445312.550781-.671875 1-.671875.375 0 .640625.121094.796875.359375.164063.230469.25.59375.25 1.09375zm0 0"/>
 </symbol>
 <symbol id="R" overflow="visible">
  <path d="m.3125-1.0625c.207031.199219.46875.308594.78125.328125.363281-.03125.570312-.207031.625-.53125 0-.226563-.0625-.410156-.1875-.546875-.117188-.144531-.304688-.316406-.5625-.515625-.25-.207031-.445312-.398437-.578125-.578125-.136719-.1875-.214844-.425781-.234375-.71875 0-.332031.0625-.613281.1875-.84375.125-.226562.289062-.394531.5-.5.207031-.113281.429688-.171875.671875-.171875.3125 0 .585937.074219.828125.21875v.90625c-.1875-.175781-.4375-.265625-.75-.265625-.148438 0-.273438.039062-.375.109375-.105469.0625-.171875.15625-.203125.28125-.011719.0625-.015625.117187-.015625.15625 0 .15625.046875.28125.140625.375s.28125.25.5625.46875c.28125.210937.488281.417969.625.625.144531.210937.226563.46875.25.78125 0 .492187-.140625.875-.421875 1.15625-.273438.2734375-.605469.40625-1 .40625-.304688 0-.585938-.078125-.84375-.234375zm0 0"/>
 </symbol>
 <symbol id="S" overflow="visible">
  <path d="m.4375-.46875c0-.1875.050781-.335938.15625-.453125.113281-.113281.253906-.175781.421875-.1875.175781 0 .320313.0625.4375.1875.113281.117187.171875.25.171875.40625 0 .167969-.0625.308594-.1875.421875-.125.1132812-.265625.171875-.421875.171875-.148437 0-.28125-.0546875-.40625-.15625-.117187-.101563-.171875-.234375-.171875-.390625zm0-4.015625c0-.1875.050781-.335937.15625-.453125.113281-.125.253906-.1875.421875-.1875.15625 0 .296875.070312.421875.203125.125.125.1875.261719.1875.40625 0 .179687-.054688.308594-.15625.390625-.09375.074219-.234375.136719-.421875.1875-.167969-.007812-.3125-.0625-.4375-.15625-.117187-.101562-.171875-.234375-.171875-.390625zm0 0"/>
 </symbol>
 <symbol id="T" overflow="visible">
  <path d="m3.546875-7.421875v.921875c-.210937-.132812-.445313-.203125-.703125-.203125-.21875 0-.421875.074219-.609375.21875-.1875.136719-.339844.328125-.453125.578125-.074219.15625-.148438.453125-.21875.890625-.0625.429687-.101562.875-.109375 1.34375.019531.5.054687.945313.109375 1.328125.0625.386719.195312.734375.40625 1.046875.21875.304687.539062.460937.96875.46875.238281-.019531.441406-.078125.609375-.171875v.875c-.230469.1445312-.511719.21875-.84375.21875-.324219 0-.636719-.0703125-.9375-.203125-.304687-.144531-.539063-.335937-.703125-.578125-.210938-.300781-.371094-.722656-.484375-1.265625-.105469-.539063-.164063-1.128906-.171875-1.765625.007812-.519531.050781-1.023438.125-1.515625.082031-.488281.191406-.890625.328125-1.203125.164063-.375.40625-.664062.71875-.875.3125-.21875.648437-.328125 1.015625-.328125.320312 0 .640625.074219.953125.21875zm0 0"/>
 </symbol>
 <symbol id="U" overflow="visible">
  <path d="m.609375-7.546875h1.203125c.488281 0 .859375.089844 1.109375.265625.257813.167969.429687.371094.515625.609375.082031.242187.132812.53125.15625.875v.34375c0 .429687-.070312.777344-.203125 1.046875-.136719.273438-.382813.460938-.734375.5625v.015625c.707031.21875 1.0625.765625 1.0625 1.640625 0 .09375-.007812.1875-.015625.28125-.011719.09375-.015625.15625-.015625.1875-.03125 1.148438-.640625 1.71875-1.828125 1.71875h-1.25zm.953125.84375v2.484375c.28125 0 .5-.046875.65625-.140625.15625-.101563.257812-.25.3125-.4375.0625-.1875.09375-.425781.09375-.71875 0-.394531-.078125-.691406-.234375-.890625-.148437-.195312-.351563-.296875-.609375-.296875zm0 3.28125v2.5625c.394531 0 .664062-.078125.8125-.234375.15625-.15625.242188-.40625.265625-.75v-.34375c0-.4375-.085937-.75-.25-.9375-.15625-.195312-.402344-.296875-.734375-.296875zm0 0"/>
 </symbol>
 <symbol id="V" overflow="visible">
  <path d="m1.5 0v-3.234375l-1.484375-4.3125h1.078125l.9375 3.484375h.015625c.03125-.289062.085937-.625.171875-1 .082031-.375.191406-.816406.328125-1.328125.132813-.519531.226563-.90625.28125-1.15625h1.078125l-1.390625 4.28125v3.265625zm0 0"/>
 </symbol>
 <symbol id="W" overflow="visible">
  <path d="m.3125-2.96875h1.796875v.765625h-1.796875zm0 0"/>
 </symbol>
 <symbol id="X" overflow="visible">
  <path d="m.4375-1.265625c.351562.25.675781.386719.96875.40625.28125-.007813.5-.113281.65625-.3125.15625-.207031.234375-.5.234375-.875-.03125-.300781-.132813-.5625-.296875-.78125-.167969-.226563-.414062-.5-.734375-.8125-.324219-.3125-.574219-.585937-.75-.828125-.167969-.238281-.273437-.519531-.3125-.84375-.011719-.09375-.015625-.226562-.015625-.40625 0-.59375.148438-1.0625.453125-1.40625.3125-.34375.710937-.515625 1.203125-.515625.375 0 .738281.089844 1.09375.265625v.984375c-.25-.207031-.53125-.3125-.84375-.3125-.273438 0-.492188.09375-.65625.28125-.167969.1875-.25.453125-.25.796875 0 .21875.066406.421875.203125.609375.144531.179687.398437.460937.765625.84375.363281.375.640625.714844.828125 1.015625.195313.304688.300781.636719.3125 1 0 .523438-.085937.953125-.25 1.296875-.167969.34375-.390625.589844-.671875.734375-.273438.1445312-.5625.21875-.875.21875-.4375 0-.792969-.1132812-1.0625-.34375zm0 0"/>
 </symbol>
 <symbol id="Y" overflow="visible">
  <path d="m1.6875-7.546875h.796875l1.609375 7.546875h-1l-.296875-1.453125h-1.484375l-.296875 1.453125h-.96875zm.96875 5.296875-.578125-3.84375h-.03125l-.59375 3.84375zm0 0"/>
 </symbol>
 <symbol id="Z" overflow="visible">
  <path d="m3.296875-7.546875v4.734375h.5v.734375h-.5v2.078125h-.984375v-2.078125h-2.015625v-.859375l2.015625-4.609375zm-.984375 4.734375v-3.203125h-.015625l-1.234375 3.203125zm0 0"/>
 </symbol>
 <symbol id="aa" overflow="visible">
  <path d="m.4375-.53125c0-.15625.054688-.289062.171875-.40625.113281-.113281.257813-.171875.4375-.171875.144531 0 .273437.058594.390625.171875.125.117188.1875.25.1875.40625 0 .167969-.058594.3125-.171875.4375-.117187.1132812-.25.171875-.40625.171875-.1875 0-.339844-.0585938-.453125-.171875-.105469-.125-.15625-.269531-.15625-.4375zm0 0"/>
 </symbol>
 <symbol id="ab" overflow="visible">
  <path d="m.375-3.953125c.007812-.65625.023438-1.15625.046875-1.5.03125-.34375.097656-.691406.203125-1.046875.101562-.363281.273438-.65625.515625-.875.25-.21875.585937-.328125 1.015625-.328125.3125 0 .578125.089844.796875.265625.21875.179688.382813.417969.5.71875.125.304688.210937.652344.265625 1.046875.050781.398437.078125.851563.078125 1.359375v.515625c-.023437.617187-.054687 1.136719-.09375 1.5625-.03125.429687-.109375.8125-.234375 1.15625-.117188.335937-.292969.601563-.53125.796875-.242188.1992188-.558594.296875-.953125.296875-.28125 0-.542969-.0976562-.78125-.296875-.242187-.195312-.445313-.554688-.609375-1.078125-.15625-.519531-.234375-1.226563-.234375-2.125 0-.050781 0-.117187 0-.203125.007813-.09375.015625-.179688.015625-.265625zm1.0625 1.984375c.050781.65625.265625 1.011719.640625 1.0625.488281 0 .734375-.90625.734375-2.71875 0-.257812-.007812-.53125-.015625-.8125-.011719-.28125-.027344-.546875-.046875-.796875-.011719-.25-.015625-.414063-.015625-.5-.023437-.300781-.089844-.554687-.203125-.765625-.105469-.207031-.25-.3125-.4375-.3125-.105469 0-.1875.015625-.25.046875-.3125.199219-.484375 1.105469-.515625 2.71875.019531.9375.054687 1.632813.109375 2.078125zm0 0"/>
 </symbol>
 <symbol id="ac" overflow="visible">
  <path d="m.453125 0v-8.296875h.9375v3.828125h.015625c.207031-.4375.546875-.65625 1.015625-.65625h.28125c.320313.054688.523437.226562.609375.515625.09375.292969.140625.664063.140625 1.109375v3.5h-.9375v-3.546875c0-.28125-.046875-.472656-.140625-.578125-.09375-.101562-.230469-.160156-.40625-.171875-.386719 0-.578125.296875-.578125.890625v3.40625zm0 0"/>
 </symbol>
 <symbol id="ad" overflow="visible">
  <path d="m.625-6.484375h.9375v1.421875h.515625v.75h-.515625v4.3125h-.9375v-4.3125h-.5v-.75h.5zm0 0"/>
 </symbol>
 <symbol id="ae" overflow="visible">
  <path d="m1.953125-4.28125c-.1875 0-.328125.089844-.421875.265625-.085938.179687-.136719.367187-.15625.5625-.023438.1875-.039062.480469-.046875.875 0 .59375.039063 1.046875.125 1.359375.082031.304688.242187.453125.484375.453125.25 0 .410156-.132813.484375-.40625.082031-.28125.125-.695313.125-1.25 0-.40625-.015625-.738281-.046875-1-.023438-.269531-.078125-.476563-.171875-.625-.085937-.144531-.210937-.222656-.375-.234375zm-1.515625 6.359375v-7.125h.9375v.65625h.015625c.070313-.238281.191406-.421875.359375-.546875.164062-.132812.347656-.203125.546875-.203125.226563 0 .4375.085937.625.25.195313.167969.332031.402344.40625.703125.113281.523438.171875 1.085938.171875 1.6875 0 .679688-.058594 1.234375-.171875 1.671875-.085937.304687-.21875.53125-.40625.6875-.1875.14453125-.398437.21875-.625.21875-.210937 0-.402344-.0585938-.578125-.171875-.167969-.125-.277344-.28125-.328125-.46875h-.015625v2.640625zm0 0"/>
 </symbol>
 <symbol id="af" overflow="visible">
  <path d="m3.609375-8.296875h.78125l-3.84375 9.34375h-.796875zm0 0"/>
 </symbol>
 <symbol id="ag" overflow="visible">
  <path d="m1.234375-2.546875c0 .574219.046875 1.015625.140625 1.328125.09375.304688.253906.464844.484375.484375.238281 0 .394531-.148437.46875-.453125.070313-.300781.109375-.753906.109375-1.359375 0-1.15625-.195312-1.734375-.578125-1.734375-.15625 0-.28125.058594-.375.171875-.085937.117187-.148437.296875-.1875.546875-.03125.242188-.054687.578125-.0625 1.015625zm1.1875 1.953125c-.136719.429688-.421875.65625-.859375.6875-.4375 0-.765625-.203125-.984375-.609375-.210937-.414063-.3125-1.09375-.3125-2.03125.007813-.695313.066406-1.234375.171875-1.609375.113281-.382812.257812-.640625.4375-.765625.175781-.132813.390625-.207031.640625-.21875.382813 0 .6875.234375.90625.703125l.015625-.03125v-.578125h.9375v5.046875c0 .5-.042969.898438-.125 1.203125-.074219.3125-.21875.546875-.4375.703125-.210938.164062-.511719.25-.90625.25-.523438-.023438-.914062-.152344-1.171875-.390625-.261719-.242187-.390625-.640625-.390625-1.203125h.921875c0 .5.203125.75.609375.75.375 0 .5625-.25.5625-.75v-1.15625zm0 0"/>
 </symbol>
 <symbol id="ah" overflow="visible">
  <path d="m.453125-5.0625h.9375l-.015625 3.5c0 .242188.035156.433594.109375.578125.082031.136719.238281.203125.46875.203125.238281 0 .390625-.066406.453125-.203125.070312-.144531.109375-.320313.109375-.53125v-3.546875h.96875l-.03125 3.515625c0 .449219-.09375.824219-.28125 1.125-.179687.304687-.527344.46875-1.046875.5-.59375 0-1.027344-.1289062-1.296875-.390625-.261719-.257812-.390625-.695312-.390625-1.3125zm0 0"/>
 </symbol>
 <symbol id="ai" overflow="visible">
  <path d="m1.40625-3.59375c-.023438.15625-.046875.546875-.078125 1.171875.019531.4375.039063.742187.0625.90625.03125.242187.097656.429687.203125.5625.101562.136719.21875.210937.34375.21875.164062-.007813.304688-.113281.421875-.3125.125-.207031.191406-.484375.203125-.828125v-.46875c0-.238281-.011719-.457031-.03125-.65625-.011719-.207031-.015625-.347656-.015625-.421875-.011719-.25-.074219-.457031-.1875-.625-.117187-.164063-.257813-.25-.421875-.25-.117188 0-.21875.0625-.3125.1875-.09375.117187-.15625.289063-.1875.515625zm-.96875 3.59375v-8.296875h.9375v3.8125h.015625c.0625-.195313.175781-.351563.34375-.46875.164063-.125.351563-.1875.5625-.1875.28125 0 .53125.121094.75.359375.21875.242188.351563.605469.40625 1.09375.039063.34375.0625.714844.0625 1.109375 0 .648437-.058594 1.203125-.171875 1.671875-.105469.34375-.25.601562-.4375.765625-.179688.15625-.375.234375-.59375.234375-.199219 0-.390625-.0703125-.578125-.203125-.179687-.144531-.292969-.320313-.34375-.53125h-.015625v.640625zm0 0"/>
 </symbol>
 <symbol id="aj" overflow="visible">
  <path d="m.3125-3.046875c.039062-.707031.191406-1.234375.453125-1.578125.269531-.34375.632813-.515625 1.09375-.515625.5 0 .890625.183594 1.171875.546875.289062.367188.4375 1.03125.4375 2 0 .03125-.007812.089844-.015625.171875v.1875c-.03125 1.542969-.554687 2.3125-1.5625 2.3125-.355469 0-.652344-.08203125-.890625-.25-.242188-.175781-.421875-.445313-.546875-.8125-.117187-.363281-.179687-.835937-.1875-1.421875.03125-.289062.046875-.503906.046875-.640625zm.9375.53125c0 .605469.039062 1.046875.125 1.328125.082031.273438.25.414062.5.421875.019531-.007813.046875-.015625.078125-.015625.21875-.03125.363281-.191406.4375-.484375.082031-.289063.125-.71875.125-1.28125 0-.113281-.007813-.269531-.015625-.46875 0-.195313-.023438-.390625-.0625-.578125-.03125-.195312-.09375-.359375-.1875-.484375-.085938-.132813-.210938-.203125-.375-.203125-.261719 0-.433594.15625-.515625.46875-.074219.304688-.117187.699219-.125 1.1875.007813.03125.015625.070312.015625.109375zm0 0"/>
 </symbol>
 <symbol id="ak" overflow="visible">
  <path d="m.4375 0v-5.0625h.953125v.625h.015625c.207031-.46875.539062-.703125 1-.703125.21875.011719.410156.078125.578125.203125.164063.125.269531.292969.3125.5h.03125c.113281-.269531.265625-.453125.453125-.546875.1875-.101563.414062-.15625.6875-.15625.664062.042969 1 .4375 1 1.1875v3.953125h-.9375v-3.546875c0-.300781-.046875-.5-.140625-.59375-.085937-.101563-.210937-.15625-.375-.15625-.210937 0-.359375.070313-.453125.203125-.09375.125-.140625.328125-.140625.609375v3.484375h-.9375v-3.421875c0-.3125-.039063-.53125-.109375-.65625-.0625-.132813-.199219-.207031-.40625-.21875-.21875 0-.375.078125-.46875.234375-.085938.15625-.125.449219-.125.875v3.1875zm0 0"/>
 </symbol>
 <symbol id="al" overflow="visible">
  <path d="m.265625-5.0625h2.9375l-1.6875 4.21875h1.609375v.84375h-2.984375l1.75-4.21875h-1.625zm0 0"/>
 </symbol>
 <symbol id="am" overflow="visible">
  <path d="m.453125 0v-5.0625h.9375l-.015625.625h.03125c.21875-.46875.578125-.703125 1.078125-.703125v.9375c-.429687 0-.71875.089844-.875.265625-.148437.167969-.21875.417969-.21875.75v3.1875zm0 0"/>
 </symbol>
 <symbol id="an" overflow="visible">
  <path d="m-.046875-5.0625h1c.007813.023438.070313.421875.1875 1.203125.113281.773437.195313 1.351563.25 1.734375.0625.375.097656.605469.109375.6875h.015625c.082031-.539062.128906-.867188.140625-.984375.019531-.113281.050781-.300781.09375-.5625.039062-.269531.085938-.550781.140625-.84375.0625-.300781.140625-.710937.234375-1.234375h.671875l.578125 3.625h.03125c.050781-.382812.09375-.695312.125-.9375.03125-.238281.0625-.488281.09375-.75.039062-.269531.085938-.546875.140625-.828125.050781-.289063.125-.660156.21875-1.109375h.921875l-1.1875 5.0625h-.65625c-.054688-.289062-.132812-.707031-.234375-1.25-.105469-.539062-.179687-.910156-.21875-1.109375-.03125-.207031-.0625-.414063-.09375-.625-.03125-.21875-.046875-.460937-.046875-.734375h-.03125c-.148438 1.292969-.339844 2.53125-.578125 3.71875h-.671875zm0 0"/>
 </symbol>
 <symbol id="ao" overflow="visible">
  <path d="m.046875-5.0625h1.046875l.75 3.546875h.015625l.84375-3.546875h.953125l-2.078125 7.140625h-.96875l.78125-2.484375zm0 0"/>
 </symbol>
 <symbol id="ap" overflow="visible">
  <path d="m1.375-8.296875v8.296875h-.9375v-8.296875zm0 0"/>
 </symbol>
 <rect fill="#fff" height="100%" width="100%"/>
 <use x="181.7" xlink:href="#a" y="237.1"/>
 <use x="207.332" xlink:href="#b" y="237.1"/>
 <use x="224.228" xlink:href="#c" y="237.1"/>
 <use x="247.652" xlink:href="#d" y="237.1"/>
 <use x="282.116" xlink:href="#c" y="237.1"/>
 <use x="305.54" xlink:href="#b" y="237.1"/>
 <use x="322.436" xlink:href="#e" y="237.1"/>
 <use x="345.62" xlink:href="#f" y="237.1"/>
 <use x="359.492" xlink:href="#g" y="237.1"/>
 <use x="377.972" xlink:href="#h" y="237.1"/>
 <use x="403.844" xlink:href="#i" y="237.1"/>
 <g fill="none" stroke="#000" stroke-miterlimit="10" transform="matrix(1 0 0 -1 0 792)">
  <path d="m184.777344 591.085938h4.5c2.21875 0 4.257812-.234376 6.125-.703126 1.875-.460937 3.46875-1.351562 4.78125-2.671874 1.320312-1.3125 2.070312-3.132813 2.25-5.453126 0-4.054687-1.375-6.742187-4.125-8.0625 1.289062-.117187 2.507812-.601562 3.65625-1.453124 1.15625-.855469 2.082031-1.984376 2.78125-3.390626.695312-1.398437 1.046875-2.933593 1.046875-4.609374 0-2.085938-.558594-3.871094-1.671875-5.359376-1.105469-1.480468-2.621094-2.601562-4.546875-3.359374-1.929688-.75-4.078125-1.125-6.453125-1.125h-8.34375zm4.5-4.03125v-12h2.0625c4.582031 0 6.875 2 6.875 6 0 1.570312-.429688 2.960937-1.28125 4.171874-.84375 1.21875-2.773438 1.828126-5.78125 1.828126zm0-15.546876v-12.578124h3.65625c5.3125 0 8.09375 1.96875 8.34375 5.90625 0 2.332031-.839844 4.023437-2.515625 5.078124-1.667969 1.0625-3.6875 1.59375-6.0625 1.59375zm25.632812 5.90625v-3.84375c.6875 1.507813 1.578125 2.628907 2.671875 3.359376 1.09375.738281 2.269531 1.109374 3.53125 1.109374 1.425781 0 2.640625-.339843 3.640625-1.015624l-1.96875-4.03125c-.730468.582031-1.6875.875-2.875.875-1.8125 0-3.101562-.75-3.859375-2.25-.761719-1.5-1.140625-3.265626-1.140625-5.296876v-11.421874h-4.3125v22.515624zm28.332032-15.03125 3.6875-2.15625c-.9375-1.542968-2.226563-2.949218-3.859376-4.21875-1.636718-1.257812-3.886718-1.890624-6.75-1.890624-1.667968.0625-3.171874.398437-4.515624 1-1.34375.601562-2.496094 1.460937-3.453126 2.578124-.949218 1.113282-1.671874 2.460938-2.171874 4.046876-.5 1.582031-.75 3.332031-.75 5.25.082031 1.550781.375 2.988281.875 4.3125.507812 1.332031 1.222656 2.5 2.140624 3.5.925782 1.007812 2.054688 1.800781 3.390626 2.375 1.332031.570312 2.828124.859374 4.484374.859374 2.457032 0 4.484376-.570312 6.078126-1.703124 1.59375-1.136719 2.738281-2.5625 3.4375-4.28125.695312-1.71875 1.046874-3.484376 1.046874-5.296876 0-.605468-.015624-1.054687-.046874-1.34375h-17c0-2.117187.632812-3.886718 1.90625-5.3125 1.28125-1.429687 2.96875-2.152343 5.0625-2.171874 1.28125 0 2.492187.398437 3.640624 1.203124 1.144532.800782 2.078126 1.882813 2.796876 3.25zm-.625 6.296876c-.242188 1.675781-.890626 3.03125-1.953126 4.0625s-2.414062 1.546874-4.046874 1.546874c-1.449219 0-2.824219-.433593-4.125-1.296874-1.292969-.855469-2.109376-2.292969-2.453126-4.3125zm4.253906 8.734374h4.90625l6.578125-14.359374 6.53125 15.546874 6.671875-15.546874 6.484375 14.359374h4.9375l-11.421875-23.296874-6.671875 15.046874-6.53125-15.046874zm54.261718-15.03125 3.6875-2.15625c-.9375-1.542968-2.226562-2.949218-3.859374-4.21875-1.636719-1.257812-3.886719-1.890624-6.75-1.890624-1.667969.0625-3.171876.398437-4.515626 1-1.34375.601562-2.496093 1.460937-3.453124 2.578124-.949219 1.113282-1.671876 2.460938-2.171876 4.046876-.5 1.582031-.75 3.332031-.75 5.25.082032 1.550781.375 2.988281.875 4.3125.507813 1.332031 1.222657 2.5 2.140626 3.5.925781 1.007812 2.054687 1.800781 3.390624 2.375 1.332032.570312 2.828126.859374 4.484376.859374 2.457031 0 4.484374-.570312 6.078124-1.703124 1.59375-1.136719 2.738282-2.5625 3.4375-4.28125.695313-1.71875 1.046876-3.484376 1.046876-5.296876 0-.605468-.015626-1.054687-.046876-1.34375h-17c0-2.117187.632813-3.886718 1.90625-5.3125 1.28125-1.429687 2.96875-2.152343 5.0625-2.171874 1.28125 0 2.492188.398437 3.640626 1.203124 1.144531.800782 2.078124 1.882813 2.796874 3.25zm-.625 6.296876c-.242187 1.675781-.890624 3.03125-1.953124 4.0625s-2.414063 1.546874-4.046876 1.546874c-1.449218 0-2.824218-.433593-4.125-1.296874-1.292968-.855469-2.109374-2.292969-2.453124-4.3125zm12.609376 8.734374v-3.84375c.6875 1.507813 1.578124 2.628907 2.671874 3.359376 1.09375.738281 2.269532 1.109374 3.53125 1.109374 1.425782 0 2.640626-.339843 3.640626-1.015624l-1.96875-4.03125c-.730469.582031-1.6875.875-2.875.875-1.8125 0-3.101563-.75-3.859376-2.25-.761718-1.5-1.140624-3.265626-1.140624-5.296876v-11.421874h-4.3125v22.515624zm18.960937-18.671874-10.3125 18.671874h5.09375l7.578125-14.359374 7.015625 14.359374h4.890625l-18.203125-35.390624h-4.828125zm30.867187 32.34375h4.515626v-32.0625h11v-4.125h-15.515626zm27.996094-17.171876c-1.40625 0-2.703125-.355468-3.890625-1.0625-1.179687-.710937-2.117187-1.671874-2.8125-2.890624-.6875-1.210938-1.03125-2.515626-1.03125-3.921876 0-1.398437.34375-2.695312 1.03125-3.890624.695313-1.1875 1.640625-2.136719 2.828125-2.84375 1.195313-.699219 2.488282-1.046876 3.875-1.046876 1.351563 0 2.617188.347657 3.796875 1.046876 1.1875.707031 2.128907 1.65625 2.828125 2.84375.695313 1.195312 1.046875 2.492187 1.046875 3.890624 0 1.40625-.351562 2.710938-1.046875 3.921876-.699218 1.21875-1.636718 2.179687-2.8125 2.890624-1.167968.707032-2.4375 1.0625-3.8125 1.0625zm0 4.125c2.164063 0 4.164063-.539062 6-1.609374 1.84375-1.074219 3.300782-2.53125 4.375-4.375 1.082032-1.84375 1.625-3.851563 1.625-6.015626 0-2.125-.542968-4.105468-1.625-5.9375-1.074218-1.835937-2.53125-3.292968-4.375-4.375-1.84375-1.070312-3.84375-1.609374-6-1.609374-2.148437 0-4.148437.542968-6 1.625-1.84375 1.082031-3.308594 2.535156-4.390625 4.359374-1.074219 1.820313-1.609375 3.800782-1.609375 5.9375 0 2.175782.535156 4.179688 1.609375 6.015626 1.082031 1.84375 2.546875 3.300781 4.390625 4.375 1.84375 1.070312 3.84375 1.609374 6 1.609374zm32.574219-4.65625v4.03125h4.328125v-22.515624c0-3.582032-.5625-6.328126-1.6875-8.234376-1.117188-1.90625-2.460938-3.15625-4.03125-3.75-1.574219-.59375-3.265625-.890624-5.078125-.890624-2.199219 0-4.125.429687-5.78125 1.28125-1.648437.84375-2.917969 2.039062-3.8125 3.578124-.898437 1.542969-1.34375 3.304688-1.34375 5.28125h4.3125c0-1.539062.460937-2.972656 1.390625-4.296874.925781-1.332032 2.796875-2 5.609375-2 1.988281 0 3.5.632812 4.53125 1.890624 1.039063 1.261719 1.5625 3.117188 1.5625 5.5625v5.21875c-.3125-.46875-.636719-.953124-.96875-1.453124-.324219-.492188-.75-.960938-1.28125-1.40625-.53125-.4375-1.273437-.804688-2.21875-1.109376-.9375-.300781-2.105469-.453124-3.5-.453124-2.023437 0-3.828125.515624-5.421875 1.546874s-2.839844 2.5-3.734375 4.40625c-.898437 1.90625-1.34375 4.082032-1.34375 6.53125 0 1.34375.222656 2.675782.671875 4 .457031 1.332032 1.128906 2.5625 2.015625 3.6875.894531 1.125 2 2.019532 3.3125 2.6875 1.3125.675782 2.78125 1.03125 4.40625 1.0625 1.550781 0 3.039063-.382812 4.46875-1.140624 1.425781-.75 2.625-1.921876 3.59375-3.515626zm.296875-7.0625c-.03125 1.757813-.417969 3.226563-1.15625 4.40625-.730469 1.1875-1.636719 2.0625-2.71875 2.625-1.085938.5625-2.15625.84375-3.21875.84375-1.53125 0-2.851562-.367187-3.953125-1.09375-1.09375-.71875-1.929687-1.671874-2.5-2.859374-.5625-1.179688-.867187-2.453126-.90625-3.828126 0-1.460937.265625-2.828124.796875-4.109374.53125-1.273438 1.320312-2.304688 2.375-3.09375 1.050781-.792969 2.347656-1.203126 3.890625-1.234376 1.414063 0 2.6875.335938 3.8125 1.015626 1.125.6875 2 1.65625 2.625 2.90625.632813 1.257812.953125 2.734374.953125 4.421874zm0 0" stroke-width="1.6"/>
  <g stroke-linejoin="round">
   <path d="m197 379.398438h218" stroke-width="2"/>
   <path d="m197 362.601562h218" stroke-width="2"/>
   <g stroke-width=".75">
    <path d="m197 330.199219h218"/>
    <path d="m197 298.5h218"/>
    <path d="m197 266.699219h218"/>
   </g>
   <path d="m197 234.398438h218" stroke-width="2"/>
   <path d="m198 380.398438v-147" stroke-width="2"/>
   <path d="m247.5 363.601562v-130.203124" stroke-width=".75"/>
   <path d="m414 380.398438v-147" stroke-width="2"/>
  </g>
 </g>
 <use x="200.9" xlink:href="#j" y="424.6"/>
 <use x="204.596" xlink:href="#k" y="424.6"/>
 <use x="208.39" xlink:href="#l" y="424.6"/>
 <use x="210.182" xlink:href="#m" y="424.6"/>
 <use x="213.885" xlink:href="#n" y="424.6"/>
 <use x="214.578" xlink:href="#n" y="424.6"/>
 <use x="215.18" xlink:href="#o" y="424.6"/>
 <use x="219.17" xlink:href="#p" y="424.6"/>
 <use x="223.16" xlink:href="#q" y="424.6"/>
 <use x="226.457" xlink:href="#r" y="424.6"/>
 <use x="231.952" xlink:href="#n" y="424.6"/>
 <use x="232.554" xlink:href="#n" y="424.6"/>
 <use x="233.247" xlink:href="#s" y="424.6"/>
 <use x="236.446" xlink:href="#t" y="424.6"/>
 <use x="240.24" xlink:href="#u" y="424.6"/>
 <use x="243.838" xlink:href="#n" y="424.6"/>
 <use x="244.44" xlink:href="#n" y="424.6"/>
 <use x="245.133" xlink:href="#o" y="424.6"/>
 <use x="249.123" xlink:href="#q" y="424.6"/>
 <use x="252.42" xlink:href="#v" y="424.6"/>
 <use x="255.619" xlink:href="#t" y="424.6"/>
 <use x="259.413" xlink:href="#w" y="424.6"/>
 <use x="263.403" xlink:href="#u" y="424.6"/>
 <use x="267.197" xlink:href="#m" y="424.6"/>
 <use x="270.9" xlink:href="#n" y="424.6"/>
 <use x="271.593" xlink:href="#n" y="424.6"/>
 <use x="272.195" xlink:href="#j" y="424.6"/>
 <use x="275.786" xlink:href="#t" y="424.6"/>
 <use x="279.384" xlink:href="#x" y="424.6"/>
 <use x="212.1" xlink:href="#y" y="449.6"/>
 <use x="217.704" xlink:href="#z" y="449.6"/>
 <use x="222.288" xlink:href="#A" y="449.6"/>
 <use x="229.38" xlink:href="#B" y="449.6"/>
 <use x="212.8" xlink:href="#C" y="481.3"/>
 <use x="216.988" xlink:href="#A" y="481.3"/>
 <use x="224.08" xlink:href="#z" y="481.3"/>
 <use x="228.58" xlink:href="#D" y="481.3"/>
 <use x="230.764" xlink:href="#E" y="481.3"/>
 <use x="209.7" xlink:href="#F" y="513.1"/>
 <use x="213.9" xlink:href="#G" y="513.1"/>
 <use x="216.588" xlink:href="#z" y="513.1"/>
 <use x="221.172" xlink:href="#H" y="513.1"/>
 <use x="224.376" xlink:href="#G" y="513.1"/>
 <use x="227.064" xlink:href="#B" y="513.1"/>
 <use x="231.36" xlink:href="#I" y="513.1"/>
 <use x="203.6" xlink:href="#J" y="544.8"/>
 <use x="208.004" xlink:href="#K" y="544.8"/>
 <use x="212.504" xlink:href="#A" y="544.8"/>
 <use x="219.596" xlink:href="#L" y="544.8"/>
 <use x="224.096" xlink:href="#E" y="544.8"/>
 <use x="226.28" xlink:href="#B" y="544.8"/>
 <use x="230.576" xlink:href="#G" y="544.8"/>
 <use x="233.264" xlink:href="#B" y="544.8"/>
 <use x="237.56" xlink:href="#I" y="544.8"/>
 <use x="273.6" xlink:href="#M" y="726"/>
 <use x="276.9" xlink:href="#N" y="726"/>
 <use x="278.69" xlink:href="#O" y="726"/>
 <use x="281.48" xlink:href="#P" y="726"/>
 <use x="285.08" xlink:href="#Q" y="726"/>
 <use x="288.97" xlink:href="#R" y="726"/>
 <use x="291.67" xlink:href="#P" y="726"/>
 <use x="295.27" xlink:href="#S" y="726"/>
 <use x="299.45" xlink:href="#T" y="726"/>
 <use x="303.05" xlink:href="#T" y="726"/>
 <use x="308.83" xlink:href="#U" y="726"/>
 <use x="312.93" xlink:href="#V" y="726"/>
 <use x="316.13" xlink:href="#W" y="726"/>
 <use x="318.62" xlink:href="#X" y="726"/>
 <use x="322.12" xlink:href="#Y" y="726"/>
 <use x="328.31" xlink:href="#Z" y="726"/>
 <use x="332.4" xlink:href="#aa" y="726"/>
 <use x="334.49" xlink:href="#ab" y="726"/>
 <use x="247.2" xlink:href="#ac" y="743"/>
 <use x="251.09" xlink:href="#ad" y="743"/>
 <use x="253.29" xlink:href="#ad" y="743"/>
 <use x="255.49" xlink:href="#ae" y="743"/>
 <use x="259.29" xlink:href="#R" y="743"/>
 <use x="261.99" xlink:href="#S" y="743"/>
 <use x="264.08" xlink:href="#af" y="743"/>
 <use x="268.17" xlink:href="#af" y="743"/>
 <use x="272.26" xlink:href="#ag" y="743"/>
 <use x="276.06" xlink:href="#N" y="743"/>
 <use x="277.85" xlink:href="#ad" y="743"/>
 <use x="280.05" xlink:href="#ac" y="743"/>
 <use x="283.94" xlink:href="#ah" y="743"/>
 <use x="287.83" xlink:href="#ai" y="743"/>
 <use x="291.53" xlink:href="#aa" y="743"/>
 <use x="293.62" xlink:href="#O" y="743"/>
 <use x="296.41" xlink:href="#aj" y="743"/>
 <use x="300.2" xlink:href="#ak" y="743"/>
 <use x="306" xlink:href="#af" y="743"/>
 <use x="310.09" xlink:href="#Y" y="743"/>
 <use x="314.28" xlink:href="#X" y="743"/>
 <use x="317.78" xlink:href="#al" y="743"/>
 <use x="321.08" xlink:href="#O" y="743"/>
 <use x="323.87" xlink:href="#af" y="743"/>
 <use x="327.96" xlink:href="#ai" y="743"/>
 <use x="331.76" xlink:href="#am" y="743"/>
 <use x="334.46" xlink:href="#P" y="743"/>
 <use x="338.06" xlink:href="#an" y="743"/>
 <use x="342.95" xlink:href="#P" y="743"/>
 <use x="346.55" xlink:href="#am" y="743"/>
 <use x="349.44" xlink:href="#ao" y="743"/>
 <use x="353.14" xlink:href="#W" y="743"/>
 <use x="355.54" xlink:href="#ap" y="743"/>
 <use x="357.33" xlink:href="#aj" y="743"/>
 <use x="361.12" xlink:href="#ag" y="743"/>
</svg>
